<svg width="17" height="17" viewBox="0 0 17 17" fill="none" xmlns="http://www.w3.org/2000/svg">
<g clip-path="url(#clip0_1233_3720)">
<path d="M3.70693 1.91433H7.3533C7.8251 1.91433 8.20774 1.51368 8.20774 1.01967C8.20774 0.525647 7.8251 0.125 7.3533 0.125H3.06975C1.93806 0.126698 1.02039 1.08757 1.02039 2.27254V13.2615C1.02039 14.4447 1.93806 15.4056 3.06975 15.4056H7.35492C7.82672 15.4056 8.20936 15.005 8.20936 14.511C8.20936 14.0169 7.82672 13.6163 7.35492 13.6163H3.70855C3.16702 13.6163 2.72764 13.1562 2.72764 12.5892V2.93972C2.72764 2.3744 3.16702 1.91433 3.70693 1.91433Z" fill="#40403F"/>
<path d="M7.48577 9.54413C8.74134 9.54462 9.75893 10.5626 9.75893 11.8182C9.75893 12.1662 10.1302 12.3716 10.4042 12.1764L16.1194 8.12408C16.361 7.95262 16.361 7.57913 16.1194 7.40597L10.4042 3.35366C10.1302 3.15843 9.75893 3.36555 9.75893 3.71187C9.75893 4.9673 8.7412 5.98503 7.48577 5.98503H5.44133C5.21272 5.98503 5.02789 6.17856 5.02789 6.41793V9.11042C5.02789 9.34979 5.21272 9.54332 5.44133 9.54332L7.48577 9.54413Z" fill="#40403F"/>
</g>
<defs>
<clipPath id="clip0_1233_3720">
<rect width="16" height="16" fill="white" transform="translate(0.63623 0.125)"/>
</clipPath>
</defs>
</svg>
