<svg width="81" height="82" viewBox="0 0 81 82" fill="none" xmlns="http://www.w3.org/2000/svg">
<path d="M23.5029 9.23531C23.7825 11.7124 23.3557 14.7594 22.3309 17.2068C21.2651 19.7522 19.8357 21.0519 18.4754 21.2069C16.9398 21.3818 14.6559 20.3428 12.4926 18.1903C10.3846 16.0927 8.87852 13.4053 8.62401 11.1512C8.10163 6.52431 10.9868 3.31254 14.6789 2.89198C18.7094 2.43288 23.016 4.9225 23.5029 9.23531Z" fill="white" stroke="#222222" stroke-width="3.58028"/>
<path d="M60.6495 9.23531C60.3698 11.7124 60.7967 14.7594 61.8215 17.2068C62.8873 19.7522 64.3167 21.0519 65.677 21.2069C67.2126 21.3818 69.4964 20.3428 71.6597 18.1903C73.7678 16.0927 75.2738 13.4053 75.5283 11.1512C76.0507 6.52431 73.1655 3.31254 69.4734 2.89198C65.443 2.43288 61.1364 4.9225 60.6495 9.23531Z" fill="white" stroke="#222222" stroke-width="3.58028"/>
<path d="M13.3535 9.57812C17.0277 11.2556 18.9962 15.4293 18.2332 19.8226" stroke="#222222" stroke-width="2.36055" stroke-linecap="round"/>
<path d="M71.1738 10.3984C68.035 11.4735 65.0809 17.0124 65.095 19.1637" stroke="#222222" stroke-width="2.36055" stroke-linecap="round"/>
<mask id="path-5-inside-1_370_25353" fill="white">
<path d="M80.3521 45.6045C80.3521 65.4269 68.1992 81.4962 40.1761 81.4962C12.1529 81.4962 0 65.4269 0 45.6045C0 21.8848 21.3242 14.2383 40.1761 14.2383C57.7917 14.2383 80.3521 20.3243 80.3521 45.6045Z"/>
</mask>
<path d="M80.3521 45.6045C80.3521 65.4269 68.1992 81.4962 40.1761 81.4962C12.1529 81.4962 0 65.4269 0 45.6045C0 21.8848 21.3242 14.2383 40.1761 14.2383C57.7917 14.2383 80.3521 20.3243 80.3521 45.6045Z" fill="white"/>
<path d="M40.1761 14.2383V10.658V14.2383ZM76.7718 45.6045C76.7718 54.7924 73.9665 62.767 68.2501 68.4432C62.5438 74.1093 53.5022 77.9159 40.1761 77.9159V85.0764C54.8731 85.0764 65.9195 80.8484 73.2955 73.5243C80.6613 66.2103 83.9324 56.2389 83.9324 45.6045H76.7718ZM40.1761 77.9159C26.8499 77.9159 17.8083 74.1093 12.102 68.4432C6.38563 62.767 3.58028 54.7924 3.58028 45.6045H-3.58028C-3.58028 56.2389 -0.309178 66.2103 7.05665 73.5243C14.4327 80.8484 25.4791 85.0764 40.1761 85.0764V77.9159ZM3.58028 45.6045C3.58028 35.0368 8.22689 28.306 14.9364 24.0498C21.8486 19.665 31.1424 17.8186 40.1761 17.8186V10.658C30.3579 10.658 19.5636 12.6348 11.1008 18.0032C2.43522 23.5002 -3.58028 32.4525 -3.58028 45.6045H3.58028ZM40.1761 17.8186C48.6781 17.8186 57.9809 19.3045 65.0348 23.5155C71.8364 27.5759 76.7718 34.2729 76.7718 45.6045H83.9324C83.9324 31.6559 77.5876 22.6698 68.7052 17.3671C60.0749 12.2151 49.2896 10.658 40.1761 10.658V17.8186Z" fill="#222222" mask="url(#path-5-inside-1_370_25353)"/>
<path d="M40.9026 16.6172C40.1244 19.4552 39.0993 22.3829 38.699 25.3162C38.6019 26.0273 38.6024 26.7531 38.4297 27.4468" stroke="#222222" stroke-width="3.93425" stroke-linecap="round"/>
<path d="M50.0737 17.0117C49.4116 19.1328 48.4662 21.1454 47.8427 23.2821C47.7234 23.6908 47.7359 24.3096 47.502 24.662" stroke="#222222" stroke-width="3.1474" stroke-linecap="round"/>
<path d="M31.4928 17.3125C31.2192 19.2707 31.1139 21.281 30.7564 23.2241C30.6541 23.7802 30.6025 24.3007 30.6025 24.8635" stroke="#222222" stroke-width="3.1474" stroke-linecap="round"/>
<ellipse cx="28.3863" cy="47.3328" rx="2.66171" ry="2.4305" fill="#222222"/>
<ellipse cx="50.1637" cy="47.3328" rx="2.66171" ry="2.4305" fill="#222222"/>
<path d="M32.0156 55.9634C32.6902 56.7545 33.6108 57.6028 34.6978 57.7182C34.9874 57.749 35.286 57.781 35.5772 57.781C36.2061 57.781 36.7729 57.5892 37.3124 57.2689C38.5156 56.5548 39.3076 55.3628 39.3076 53.9492" stroke="#222222" stroke-width="2.41692" stroke-linecap="round"/>
<path d="M46.8457 56.1548C46.1711 56.9459 45.2506 57.7942 44.1635 57.9096C43.8739 57.9404 43.5753 57.9724 43.2841 57.9724C42.6552 57.9724 42.0885 57.7806 41.5489 57.4603C40.3457 56.7462 39.3117 55.5542 39.3117 54.1406" stroke="#222222" stroke-width="2.41692" stroke-linecap="round"/>
<path d="M42.4578 51.913C42.4578 53.7111 41.4899 54.6262 39.5541 54.6262C37.3763 54.6262 36.6504 53.7111 36.6504 51.913C36.6504 50.115 38.2232 48.793 39.5541 48.793C40.8849 48.793 42.4578 50.115 42.4578 51.913Z" fill="#222222"/>
<circle r="5.5" transform="matrix(-1 0 0 1 52.5 46.2031)" fill="#222222"/>
<path d="M49.9922 43.3129C50.5938 42.9941 52.1578 42.4521 53.6014 42.8347C54.3233 43.2179 53.9022 44.2691 53.6014 44.7467L50.8945 45.7031C50.4433 45.7031 49.4509 45.6075 49.0899 45.2249C48.729 44.8424 49.5411 43.7908 49.9922 43.3129Z" fill="white"/>
<path d="M51.8893 48.4337C51.4081 48.6075 50.2171 48.8124 49.3024 48.2412C48.8853 47.7903 49.3954 46.9555 49.7027 46.5945L51.7679 46.224C52.0787 46.2996 52.7425 46.5481 52.9112 46.938C53.0798 47.3279 52.3002 48.0976 51.8893 48.4337Z" fill="white"/>
<path d="M56.5079 45.9682C56.4325 46.5687 56.0083 47.9338 54.9149 48.5905C54.2156 48.7877 53.6102 47.8015 53.3949 47.2838L54.1144 44.9086C54.3611 44.6217 54.9797 44.0558 55.4812 44.0877C55.9826 44.1196 56.3746 45.3547 56.5079 45.9682Z" fill="white"/>
<ellipse rx="4" ry="2" transform="matrix(-1 0 0 1 57 51.7031)" fill="#9AC3FF"/>
<circle cx="29.5" cy="46.2031" r="5.5" fill="#222222"/>
<path d="M32.0078 43.3129C31.4062 42.9941 29.8422 42.4521 28.3986 42.8347C27.6767 43.2179 28.0978 44.2691 28.3986 44.7467L31.1055 45.7031C31.5567 45.7031 32.5491 45.6075 32.9101 45.2249C33.271 44.8424 32.4589 43.7908 32.0078 43.3129Z" fill="white"/>
<path d="M30.1107 48.4337C30.5919 48.6075 31.7829 48.8124 32.6976 48.2412C33.1147 47.7903 32.6046 46.9555 32.2973 46.5945L30.2321 46.224C29.9213 46.2996 29.2575 46.5481 29.0888 46.938C28.9202 47.3279 29.6998 48.0976 30.1107 48.4337Z" fill="white"/>
<path d="M25.4921 45.9682C25.5675 46.5687 25.9917 47.9338 27.0851 48.5905C27.7844 48.7877 28.3898 47.8015 28.6051 47.2838L27.8856 44.9086C27.6389 44.6217 27.0203 44.0558 26.5188 44.0877C26.0174 44.1196 25.6254 45.3547 25.4921 45.9682Z" fill="white"/>
<ellipse cx="25" cy="51.7031" rx="4" ry="2" fill="#9AC3FF"/>
<line x1="41" y1="54.7031" x2="41" y2="55.7031" stroke="#9AC3FF" stroke-width="2" stroke-linecap="round"/>
</svg>
