<svg width="82" height="83" viewBox="0 0 82 83" fill="none" xmlns="http://www.w3.org/2000/svg">
<path d="M24.3271 9.81343C24.6068 12.2906 24.1799 15.3376 23.1551 17.785C22.0893 20.3304 20.6599 21.63 19.2996 21.785C17.764 21.9599 15.4801 20.921 13.3168 18.7684C11.2088 16.6709 9.70274 13.9835 9.44823 11.7293C8.92585 7.10243 11.8111 3.89067 15.5031 3.47011C19.5336 3.01101 23.8402 5.50062 24.3271 9.81343Z" fill="white" stroke="#222222" stroke-width="3.58028"/>
<path d="M61.4739 9.81343C61.1943 12.2906 61.6211 15.3376 62.6459 17.785C63.7118 20.3304 65.1411 21.63 66.5014 21.785C68.037 21.9599 70.3209 20.921 72.4842 18.7684C74.5922 16.6709 76.0983 13.9835 76.3528 11.7293C76.8752 7.10243 73.99 3.89067 70.2979 3.47011C66.2674 3.01101 61.9609 5.50062 61.4739 9.81343Z" fill="white" stroke="#222222" stroke-width="3.58028"/>
<path d="M14.1777 10.1562C17.8519 11.8337 19.8204 16.0074 19.0574 20.4007" stroke="#222222" stroke-width="2.36055" stroke-linecap="round"/>
<path d="M71.9976 10.9766C68.8587 12.0517 65.9046 17.5905 65.9188 19.7418" stroke="#222222" stroke-width="2.36055" stroke-linecap="round"/>
<mask id="path-5-inside-1_1243_4742" fill="white">
<path d="M81.1761 46.1826C81.1761 66.005 69.0232 82.0743 41 82.0743C12.9769 82.0743 0.823975 66.005 0.823975 46.1826C0.823975 22.4629 22.1482 14.8164 41 14.8164C58.6157 14.8164 81.1761 20.9024 81.1761 46.1826Z"/>
</mask>
<path d="M81.1761 46.1826C81.1761 66.005 69.0232 82.0743 41 82.0743C12.9769 82.0743 0.823975 66.005 0.823975 46.1826C0.823975 22.4629 22.1482 14.8164 41 14.8164C58.6157 14.8164 81.1761 20.9024 81.1761 46.1826Z" fill="white"/>
<path d="M41 14.8164V18.3967V14.8164ZM77.5958 46.1826C77.5958 55.3706 74.7905 63.3451 69.0741 69.0213C63.3678 74.6874 54.3262 78.494 41 78.494V85.6546C55.697 85.6546 66.7434 81.4265 74.1194 74.1024C81.4853 66.7884 84.7564 56.8171 84.7564 46.1826H77.5958ZM41 78.494C27.6739 78.494 18.6322 74.6874 12.926 69.0213C7.2096 63.3451 4.40426 55.3706 4.40426 46.1826H-2.75631C-2.75631 56.8171 0.514797 66.7884 7.88063 74.1024C15.2566 81.4265 26.303 85.6546 41 85.6546V78.494ZM4.40426 46.1826C4.40426 35.6149 9.05086 28.8841 15.7604 24.6279C22.6726 20.2431 31.9664 18.3967 41 18.3967V11.2361C31.1818 11.2361 20.3876 13.2129 11.9247 18.5813C3.25919 24.0783 -2.75631 33.0306 -2.75631 46.1826H4.40426ZM41 18.3967C49.5021 18.3967 58.8049 19.8826 65.8587 24.0936C72.6604 28.154 77.5958 34.851 77.5958 46.1826H84.7564C84.7564 32.234 78.4116 23.2479 69.5291 17.9453C60.8989 12.7932 50.1136 11.2361 41 11.2361V18.3967Z" fill="#222222" mask="url(#path-5-inside-1_1243_4742)"/>
<path d="M41.7265 17.1953C40.9484 20.0333 39.9233 22.961 39.5229 25.8944C39.4259 26.6054 39.4263 27.3313 39.2537 28.025" stroke="#222222" stroke-width="3.93425" stroke-linecap="round"/>
<path d="M50.898 17.5898C50.2358 19.7109 49.2904 21.7235 48.6669 23.8602C48.5476 24.2689 48.5601 24.8877 48.3262 25.2402" stroke="#222222" stroke-width="3.1474" stroke-linecap="round"/>
<path d="M32.317 17.8906C32.0434 19.8488 31.9381 21.8591 31.5806 23.8022C31.4783 24.3583 31.4268 24.8789 31.4268 25.4416" stroke="#222222" stroke-width="3.1474" stroke-linecap="round"/>
<ellipse cx="29.21" cy="47.911" rx="2.66171" ry="2.4305" fill="#222222"/>
<ellipse cx="50.9879" cy="47.911" rx="2.66171" ry="2.4305" fill="#222222"/>
<path d="M32.8396 56.5415C33.5142 57.3326 34.4347 58.1809 35.5218 58.2963C35.8114 58.3271 36.11 58.3591 36.4012 58.3591C37.0301 58.3591 37.5968 58.1673 38.1364 57.847C39.3396 57.1329 40.1315 55.9409 40.1315 54.5273" stroke="#222222" stroke-width="2.41692" stroke-linecap="round"/>
<path d="M47.6699 56.733C46.9953 57.524 46.0748 58.3724 44.9878 58.4878C44.6981 58.5185 44.3995 58.5505 44.1083 58.5505C43.4794 58.5505 42.9127 58.3587 42.3731 58.0385C41.17 57.3243 40.1359 56.1323 40.1359 54.7188" stroke="#222222" stroke-width="2.41692" stroke-linecap="round"/>
<path d="M43.2815 52.4912C43.2815 54.2893 42.3136 55.2043 40.3778 55.2043C38.2 55.2043 37.4741 54.2893 37.4741 52.4912C37.4741 50.6931 39.0469 49.3711 40.3778 49.3711C41.7087 49.3711 43.2815 50.6931 43.2815 52.4912Z" fill="#222222"/>
</svg>
