<svg width="253" height="158" viewBox="0 0 253 158" fill="none" xmlns="http://www.w3.org/2000/svg">
<rect x="103.148" y="146.525" width="37.2952" height="11.0889" rx="5.54444" fill="#E8E8E8"/>
<path fill-rule="evenodd" clip-rule="evenodd" d="M163.731 133.555C159.369 131.848 154.487 131.848 150.125 133.555C142.948 136.362 135.178 137.897 127.065 137.897C118.826 137.897 110.941 136.314 103.671 133.423C99.2474 131.664 94.2781 131.664 89.8544 133.423C82.5847 136.314 74.6992 137.897 66.4604 137.897C30.079 137.897 0.585938 107.028 0.585938 68.9487C0.585938 30.8694 30.079 2.83213e-05 66.4604 2.83213e-05C74.6992 2.83213e-05 82.5847 1.58305 89.8544 4.47435C94.278 6.2337 99.2474 6.2337 103.671 4.47434C110.941 1.58303 118.826 0 127.065 0C135.178 0 142.948 1.535 150.125 4.34265C154.487 6.04901 159.369 6.04901 163.731 4.34265C170.908 1.535 178.678 0 186.791 0C223.173 0 252.666 30.8694 252.666 68.9487C252.666 107.028 223.173 137.897 186.791 137.897C178.678 137.897 170.908 136.362 163.731 133.555Z" fill="#EFEFEF"/>
<path fill-rule="evenodd" clip-rule="evenodd" d="M66.6172 77.6607C60.1444 77.6607 55.3498 75.7166 52.171 72.5378C48.9923 69.3591 47.0482 64.5644 47.0482 58.0917C47.0482 64.5644 45.104 69.3591 41.9253 72.5378C38.7465 75.7166 33.9519 77.6607 27.4791 77.6607C33.9519 77.6607 38.7465 79.6048 41.9253 82.7836C45.104 85.9624 47.0482 90.757 47.0482 97.2297C47.0482 90.757 48.9923 85.9624 52.171 82.7836C55.3498 79.6048 60.1444 77.6607 66.6172 77.6607Z" fill="#FFD338"/>
<path fill-rule="evenodd" clip-rule="evenodd" d="M213.984 37.9831C209.046 37.9831 205.387 36.4997 202.962 34.0743C200.536 31.6488 199.053 27.9904 199.053 23.0516C199.053 27.9904 197.569 31.6488 195.144 34.0743C192.718 36.4997 189.06 37.9831 184.121 37.9831C189.06 37.9831 192.718 39.4665 195.144 41.892C197.569 44.3175 199.053 47.9759 199.053 52.9147C199.053 47.9759 200.536 44.3175 202.962 41.892C205.387 39.4665 209.046 37.9831 213.984 37.9831Z" fill="#D2D2D2"/>
<path d="M102.392 20.299C102.757 23.5171 102.203 27.4457 100.87 30.6145C99.5038 33.8626 97.5522 35.8227 95.4208 36.0644C93.1448 36.3225 90.0631 34.8233 87.3002 32.0863C84.582 29.3936 82.5806 25.8933 82.2367 22.8603C81.5379 16.6986 85.4291 12.2998 90.4949 11.7253C95.8409 11.1191 101.722 14.3962 102.392 20.299Z" fill="white" stroke="#222222" stroke-width="2.96078"/>
<path d="M147.413 20.299C147.048 23.5171 147.602 27.4457 148.935 30.6145C150.301 33.8626 152.253 35.8227 154.384 36.0644C156.66 36.3225 159.742 34.8233 162.504 32.0863C165.223 29.3936 167.224 25.8933 167.568 22.8603C168.267 16.6986 164.376 12.2998 159.31 11.7253C153.964 11.1191 148.082 14.3962 147.413 20.299Z" fill="white" stroke="#222222" stroke-width="2.96078"/>
<path d="M88.918 20.8115C93.521 22.9037 95.9872 28.1094 95.0313 33.5891" stroke="#222222" stroke-width="2.96078" stroke-linecap="round"/>
<path d="M161.355 21.8339C157.423 23.1748 153.722 30.0833 153.74 32.7665" stroke="#222222" stroke-width="2.96078" stroke-linecap="round"/>
<path d="M171.965 99.177C151.01 96.0903 134.866 119.753 129.413 131.97L134.798 136.74C144.121 123.328 157.738 120.214 163.381 120.334C159.065 130.753 170.933 138.566 181.173 134.499C194.216 129.318 198.158 103.035 171.965 99.177Z" fill="white" stroke="#222222" stroke-width="2.96078" stroke-linejoin="round"/>
<mask id="path-10-inside-1_1433_37332" fill="white">
<path fill-rule="evenodd" clip-rule="evenodd" d="M139.631 108.645C162.633 103.122 172.854 86.008 172.854 65.7512C172.854 34.2199 144.59 26.6291 122.521 26.6291C98.9028 26.6291 72.1875 36.1663 72.1875 65.7512C72.1875 85.9698 82.3696 103.058 105.281 108.614C102.778 111.476 101.302 115.513 101.302 121.033C101.302 132.667 107.646 142.099 122.274 142.099C136.902 142.099 143.246 132.667 143.246 121.033C143.246 115.441 141.913 111.449 139.631 108.645Z"/>
</mask>
<path fill-rule="evenodd" clip-rule="evenodd" d="M139.631 108.645C162.633 103.122 172.854 86.008 172.854 65.7512C172.854 34.2199 144.59 26.6291 122.521 26.6291C98.9028 26.6291 72.1875 36.1663 72.1875 65.7512C72.1875 85.9698 82.3696 103.058 105.281 108.614C102.778 111.476 101.302 115.513 101.302 121.033C101.302 132.667 107.646 142.099 122.274 142.099C136.902 142.099 143.246 132.667 143.246 121.033C143.246 115.441 141.913 111.449 139.631 108.645Z" fill="white"/>
<path d="M139.631 108.645L138.94 105.767C137.95 106.004 137.152 106.733 136.826 107.697C136.5 108.661 136.692 109.725 137.334 110.514L139.631 108.645ZM105.281 108.614L107.509 110.563C108.191 109.784 108.416 108.706 108.103 107.719C107.79 106.732 106.985 105.981 105.979 105.737L105.281 108.614ZM169.893 65.7512C169.893 75.39 167.463 84.0898 162.47 90.9872C157.498 97.8553 149.83 103.152 138.94 105.767L140.322 111.524C152.434 108.616 161.378 102.594 167.267 94.4597C173.134 86.3549 175.815 76.3692 175.815 65.7512H169.893ZM122.521 29.5899C133.304 29.5899 145.276 31.4586 154.451 36.9111C163.416 42.2395 169.893 51.074 169.893 65.7512H175.815C175.815 48.8971 168.16 38.1706 157.476 31.8207C147.001 25.595 133.807 23.6683 122.521 23.6683V29.5899ZM75.1483 65.7512C75.1483 52.0334 81.2553 43.1713 90.0784 37.5992C99.0693 31.921 111.034 29.5899 122.521 29.5899V23.6683C110.389 23.6683 97.1876 26.1058 86.9164 32.5925C76.4773 39.1852 69.2267 49.884 69.2267 65.7512H75.1483ZM105.979 105.737C95.1337 103.107 87.4963 97.81 82.5431 90.9481C77.5689 84.0571 75.1483 75.3718 75.1483 65.7512H69.2267C69.2267 76.3492 71.8972 86.3173 77.7418 94.414C83.6075 102.54 92.5168 108.565 104.583 111.492L105.979 105.737ZM104.263 121.033C104.263 116.056 105.581 112.768 107.509 110.563L103.052 106.665C99.9738 110.185 98.341 114.97 98.341 121.033H104.263ZM122.274 139.139C115.63 139.139 111.256 137.022 108.508 133.954C105.71 130.83 104.263 126.344 104.263 121.033H98.341C98.341 127.357 100.065 133.403 104.097 137.904C108.178 142.461 114.289 145.06 122.274 145.06V139.139ZM140.285 121.033C140.285 126.344 138.838 130.83 136.04 133.954C133.292 137.022 128.917 139.139 122.274 139.139V145.06C130.259 145.06 136.37 142.461 140.451 137.904C144.482 133.403 146.207 127.357 146.207 121.033H140.285ZM137.334 110.514C139.068 112.644 140.285 115.906 140.285 121.033H146.207C146.207 114.975 144.757 110.254 141.927 106.777L137.334 110.514Z" fill="#222222" mask="url(#path-10-inside-1_1433_37332)"/>
<path d="M115.477 139.879H122.385V150.488H115.477V139.879Z" fill="#222222"/>
<path d="M126.336 139.139H133.244V150.488H126.336V139.139Z" fill="#222222"/>
<path d="M122.385 150.488C122.385 152.462 120.176 152.956 117.45 152.956C114.725 152.956 112.516 152.956 112.516 150.488C112.516 148.021 114.725 148.021 117.45 148.021C120.176 148.021 122.385 149.126 122.385 150.488Z" fill="#222222"/>
<path d="M133.244 150.488C133.244 152.462 131.035 152.956 128.31 152.956C125.584 152.956 123.375 152.956 123.375 150.488C123.375 148.021 125.584 148.021 128.31 148.021C131.035 148.021 133.244 149.126 133.244 150.488Z" fill="#222222"/>
<path d="M105.651 102.306C104.628 97.7124 104.116 95.4155 105.172 93.6823C106.228 91.9491 108.439 91.4566 112.861 90.4715L119.114 89.0784C123.536 88.0933 125.747 87.6008 127.439 88.7219C129.13 89.8431 129.642 92.14 130.665 96.734L133.136 107.823C134.107 112.182 134.592 114.361 133.421 115.321C132.249 116.282 130.3 115.303 126.402 113.345L125.154 112.719C122.962 111.618 121.866 111.067 120.784 111.308C119.703 111.549 118.944 112.513 117.427 114.44L116.563 115.537C113.864 118.964 112.515 120.678 111.047 120.306C109.578 119.933 109.093 117.754 108.122 113.396L105.651 102.306Z" fill="#FFCC37" stroke="#FFD029" stroke-width="0.493463"/>
<path d="M113.459 113.277C111.436 112.167 109.182 115.467 108.309 117.256L109.018 121.944L113.459 123.116C114.004 122.355 115.297 120.537 116.111 119.353C117.129 117.873 115.988 114.665 113.459 113.277Z" fill="white"/>
<path d="M127.49 114.209C125.299 114.933 126.178 118.831 126.891 120.69L134.69 120.914C134.504 119.997 134.056 117.812 133.744 116.409C133.354 114.655 130.229 113.304 127.49 114.209Z" fill="white"/>
<path d="M123.43 29.59C122.455 33.1297 121.171 36.7814 120.669 40.44C120.548 41.3269 120.548 42.2322 120.332 43.0975" stroke="#222222" stroke-width="4.93463" stroke-linecap="round"/>
<path d="M134.921 30.0856C134.092 32.7312 132.907 35.2415 132.126 37.9065C131.977 38.4162 131.992 39.1881 131.699 39.6276" stroke="#222222" stroke-width="3.9477" stroke-linecap="round"/>
<path d="M111.643 30.4575C111.3 32.8999 111.168 35.4072 110.72 37.8308C110.592 38.5244 110.527 39.1737 110.527 39.8755" stroke="#222222" stroke-width="3.9477" stroke-linecap="round"/>
<ellipse cx="107.749" cy="67.9039" rx="3.33463" ry="3.03148" fill="#222222"/>
<ellipse cx="135.034" cy="67.9039" rx="3.33463" ry="3.03148" fill="#222222"/>
<path d="M106.73 120.471C107.224 117.346 109.395 111.54 114.132 113.316C118.87 115.092 115.448 121.458 113.145 124.419" stroke="#222222" stroke-width="2.96078" stroke-linecap="round"/>
<path d="M135.172 120.471C134.678 117.346 132.507 111.54 127.77 113.316C123.033 115.092 126.454 121.458 128.757 124.419" stroke="#222222" stroke-width="2.96078" stroke-linecap="round"/>
<path d="M112.297 78.6692C113.142 79.6559 114.295 80.714 115.657 80.8579C116.02 80.8963 116.394 80.9362 116.759 80.9362C117.547 80.9362 118.257 80.697 118.933 80.2975C120.44 79.4068 121.432 77.9201 121.432 76.157" stroke="#222222" stroke-width="3.03148" stroke-linecap="round"/>
<path d="M130.875 78.9043C130.03 79.891 128.877 80.9491 127.515 81.093C127.152 81.1314 126.778 81.1713 126.413 81.1713C125.625 81.1713 124.915 80.9321 124.239 80.5327C122.732 79.6419 121.436 78.1552 121.436 76.3921" stroke="#222222" stroke-width="3.03148" stroke-linecap="round"/>
<path d="M125.377 73.6144C125.377 75.8571 124.165 76.9984 121.739 76.9984C119.011 76.9984 118.102 75.8571 118.102 73.6144C118.102 71.3717 120.072 69.7228 121.739 69.7228C123.407 69.7228 125.377 71.3717 125.377 73.6144Z" fill="#222222"/>
<path d="M115.608 104.491L113.555 103.347C112.044 102.506 111.501 100.598 112.343 99.0869V99.0869C113.185 97.5756 115.092 97.0329 116.604 97.8747L118.656 99.0178" stroke="white" stroke-width="1.56612" stroke-linecap="round" stroke-linejoin="round"/>
<path d="M121.235 104.041L115.762 100.992" stroke="white" stroke-width="1.56612" stroke-linecap="round" stroke-linejoin="round"/>
<path d="M118.343 106.015L120.395 107.158C121.906 108 123.814 107.457 124.656 105.946V105.946C125.497 104.435 124.955 102.527 123.443 101.685L121.391 100.542" stroke="white" stroke-width="1.56612" stroke-linecap="round" stroke-linejoin="round"/>
<path d="M142.448 121.512C150.467 114.85 167.556 107.251 175.263 111.519C186.564 117.777 182.111 131.432 177.133 135.035" stroke="#222222" stroke-width="3.9477" stroke-linecap="round" stroke-linejoin="round"/>
<path d="M162.54 120.311C163.965 120.225 167.29 120.715 169.189 123.368" stroke="#222222" stroke-width="2.96078" stroke-linecap="round" stroke-linejoin="round"/>
</svg>
