<svg width="417" height="261" viewBox="0 0 417 261" fill="none" xmlns="http://www.w3.org/2000/svg">
<rect x="169.66" y="242.388" width="61.6954" height="18.3437" rx="9.17185" fill="#E8E8E8"/>
<path fill-rule="evenodd" clip-rule="evenodd" d="M108.972 228.116C122.602 228.116 135.647 225.497 147.673 220.714C154.991 217.803 163.212 217.803 170.53 220.714C182.556 225.497 195.601 228.116 209.23 228.116C222.65 228.116 235.503 225.577 247.375 220.933C254.591 218.11 262.667 218.11 269.882 220.933C281.754 225.577 294.607 228.116 308.027 228.116C368.211 228.116 417 177.05 417 114.058C417 51.0654 368.211 0 308.027 0C294.607 0 281.754 2.539 269.882 7.18309C262.667 10.0055 254.591 10.0055 247.375 7.18309C235.503 2.539 222.65 0 209.23 0C195.601 0 182.556 2.61888 170.53 7.4021C163.212 10.3127 154.991 10.3127 147.673 7.4021C135.647 2.61888 122.602 0 108.972 0C48.7886 0 0 51.0654 0 114.058C0 177.05 48.7886 228.116 108.972 228.116Z" fill="white"/>
<path fill-rule="evenodd" clip-rule="evenodd" d="M109.232 128.47C98.5249 128.47 90.5934 125.254 85.335 119.995C80.0765 114.737 76.8605 106.805 76.8605 96.0979C76.8605 106.805 73.6445 114.737 68.386 119.995C63.1276 125.254 55.1961 128.47 44.4886 128.47C55.1961 128.47 63.1276 131.686 68.386 136.944C73.6445 142.203 76.8605 150.134 76.8605 160.842C76.8605 150.134 80.0765 142.203 85.335 136.944C90.5934 131.686 98.5249 128.47 109.232 128.47Z" fill="#FFD338"/>
<path fill-rule="evenodd" clip-rule="evenodd" d="M353.01 62.8332C344.84 62.8332 338.788 60.3793 334.776 56.367C330.763 52.3547 328.309 46.3028 328.309 38.1328C328.309 46.3028 325.855 52.3547 321.843 56.367C317.831 60.3793 311.779 62.8332 303.609 62.8332C311.779 62.8332 317.831 65.2871 321.843 69.2994C325.855 73.3117 328.309 79.3636 328.309 87.5336C328.309 79.3636 330.763 73.3117 334.776 69.2994C338.788 65.2871 344.84 62.8332 353.01 62.8332Z" fill="#D2D2D2"/>
<path d="M168.412 33.5793C169.016 38.9028 168.099 45.4017 165.895 50.6437C163.635 56.0168 160.406 59.2592 156.881 59.6591C153.116 60.086 148.018 57.6061 143.447 53.0784C138.951 48.6241 135.64 42.8337 135.071 37.8164C133.915 27.6233 140.352 20.3467 148.732 19.3964C157.576 18.3935 167.305 23.8147 168.412 33.5793Z" fill="white" stroke="#222222" stroke-width="4.89784"/>
<path d="M242.892 33.5792C242.289 38.9027 243.205 45.4016 245.41 50.6436C247.67 56.0166 250.898 59.2591 254.424 59.6589C258.189 60.0859 263.287 57.6059 267.857 53.0783C272.354 48.6239 275.665 42.8335 276.234 37.8163C277.39 27.6232 270.953 20.3466 262.573 19.3963C253.729 18.3933 244 23.8146 242.892 33.5792Z" fill="white" stroke="#222222" stroke-width="4.89784"/>
<path d="M146.125 34.4268C153.74 37.8878 157.819 46.4994 156.238 55.564" stroke="#222222" stroke-width="4.89784" stroke-linecap="round"/>
<path d="M265.955 36.1182C259.45 38.3364 253.328 49.7647 253.357 54.2034" stroke="#222222" stroke-width="4.89784" stroke-linecap="round"/>
<path d="M283.506 164.063C248.842 158.956 222.135 198.101 213.115 218.311L222.024 226.2C237.445 204.014 259.971 198.864 269.306 199.062C262.166 216.297 281.799 229.222 298.738 222.494C320.315 213.924 326.835 170.445 283.506 164.063Z" fill="white" stroke="#222222" stroke-width="4.89784" stroke-linejoin="round"/>
<mask id="path-10-inside-1_665_31785" fill="white">
<path fill-rule="evenodd" clip-rule="evenodd" d="M230.017 179.726C268.07 170.59 284.978 142.278 284.978 108.768C284.978 56.6076 238.222 44.0505 201.714 44.0505C162.645 44.0505 118.451 59.8274 118.451 108.768C118.451 142.214 135.294 170.482 173.194 179.673C169.053 184.408 166.611 191.086 166.611 200.217C166.611 219.464 177.106 235.067 201.304 235.067C225.503 235.067 235.997 219.464 235.997 200.217C235.997 190.967 233.792 184.364 230.017 179.726Z"/>
</mask>
<path fill-rule="evenodd" clip-rule="evenodd" d="M230.017 179.726C268.07 170.59 284.978 142.278 284.978 108.768C284.978 56.6076 238.222 44.0505 201.714 44.0505C162.645 44.0505 118.451 59.8274 118.451 108.768C118.451 142.214 135.294 170.482 173.194 179.673C169.053 184.408 166.611 191.086 166.611 200.217C166.611 219.464 177.106 235.067 201.304 235.067C225.503 235.067 235.997 219.464 235.997 200.217C235.997 190.967 233.792 184.364 230.017 179.726Z" fill="white"/>
<path d="M230.017 179.726L228.874 174.963C227.237 175.356 225.916 176.563 225.377 178.157C224.838 179.752 225.156 181.512 226.218 182.818L230.017 179.726ZM173.194 179.673L176.881 182.898C178.008 181.609 178.381 179.825 177.863 178.193C177.345 176.561 176.013 175.317 174.349 174.914L173.194 179.673ZM280.08 108.768C280.08 124.713 276.061 139.105 267.8 150.515C259.574 161.877 246.89 170.638 228.874 174.963L231.16 184.488C251.197 179.678 265.993 169.715 275.735 156.259C285.441 142.852 289.876 126.333 289.876 108.768H280.08ZM201.714 48.9484C219.553 48.9484 239.358 52.0397 254.534 61.0595C269.365 69.8739 280.08 84.4883 280.08 108.768H289.876C289.876 80.8873 277.213 63.143 259.539 52.6388C242.21 42.3399 220.384 39.1527 201.714 39.1527V48.9484ZM123.349 108.768C123.349 86.0755 133.452 71.4153 148.047 62.1977C162.92 52.8046 182.713 48.9484 201.714 48.9484V39.1527C181.646 39.1527 159.807 43.1849 142.816 53.9154C125.548 64.8214 113.553 82.5199 113.553 108.768H123.349ZM174.349 174.914C156.409 170.563 143.775 161.8 135.582 150.449C127.353 139.05 123.349 124.683 123.349 108.768H113.553C113.553 126.299 117.971 142.789 127.639 156.183C137.342 169.625 152.08 179.592 172.04 184.433L174.349 174.914ZM171.509 200.217C171.509 191.984 173.691 186.545 176.881 182.898L169.508 176.449C164.415 182.271 161.713 190.188 161.713 200.217H171.509ZM201.304 230.169C190.315 230.169 183.078 226.667 178.532 221.592C173.904 216.424 171.509 209.003 171.509 200.217H161.713C161.713 210.678 164.566 220.681 171.235 228.127C177.986 235.665 188.095 239.964 201.304 239.964V230.169ZM231.1 200.217C231.1 209.003 228.705 216.424 224.077 221.592C219.531 226.667 212.294 230.169 201.304 230.169V239.964C214.513 239.964 224.623 235.665 231.374 228.127C238.043 220.681 240.895 210.678 240.895 200.217H231.1ZM226.218 182.818C229.086 186.341 231.1 191.737 231.1 200.217H240.895C240.895 190.197 238.498 182.387 233.816 176.634L226.218 182.818Z" fill="#222222" mask="url(#path-10-inside-1_665_31785)"/>
<path d="M190.064 231.393H201.493V248.944H190.064V231.393Z" fill="#222222"/>
<path d="M208.021 230.169H219.45V248.944H208.021V230.169Z" fill="#222222"/>
<path d="M201.492 248.944C201.492 252.209 197.837 253.025 193.329 253.025C188.821 253.025 185.166 253.025 185.166 248.944C185.166 244.862 188.821 244.862 193.329 244.862C197.837 244.862 201.492 246.69 201.492 248.944Z" fill="#222222"/>
<path d="M219.449 248.944C219.449 252.209 215.794 253.025 211.286 253.025C206.778 253.025 203.123 253.025 203.123 248.944C203.123 244.862 206.778 244.862 211.286 244.862C215.794 244.862 219.449 246.69 219.449 248.944Z" fill="#222222"/>
<path d="M173.804 169.239C172.111 161.64 171.265 157.84 173.011 154.973C174.758 152.106 178.415 151.291 185.73 149.661L196.075 147.357C203.39 145.727 207.047 144.913 209.845 146.767C212.644 148.622 213.49 152.422 215.183 160.021L219.27 178.366C220.876 185.575 221.679 189.18 219.741 190.769C217.803 192.358 214.579 190.739 208.13 187.5L206.066 186.464C202.44 184.643 200.627 183.732 198.838 184.131C197.049 184.529 195.794 186.123 193.284 189.311L191.855 191.126C187.39 196.795 185.158 199.63 182.729 199.014C180.3 198.398 179.497 194.793 177.891 187.584L173.804 169.239Z" fill="#FFCC37" stroke="#FFD029" stroke-width="0.816307"/>
<path d="M186.721 187.388C183.375 185.551 179.647 191.01 178.201 193.969L179.375 201.724L186.721 203.663C187.623 202.405 189.762 199.398 191.109 197.439C192.793 194.99 190.905 189.684 186.721 187.388Z" fill="white"/>
<path d="M209.93 188.93C206.305 190.127 207.76 196.576 208.94 199.65L221.841 200.021C221.534 198.504 220.792 194.889 220.276 192.569C219.631 189.667 214.462 187.433 209.93 188.93Z" fill="white"/>
<path d="M203.217 48.9487C201.604 54.8043 199.48 60.845 198.65 66.8974C198.449 68.3645 198.45 69.8621 198.092 71.2934" stroke="#222222" stroke-width="8.16307" stroke-linecap="round"/>
<path d="M222.226 49.7686C220.854 54.1449 218.895 58.2975 217.603 62.7062C217.355 63.5494 217.381 64.8262 216.896 65.5533" stroke="#222222" stroke-width="6.53046" stroke-linecap="round"/>
<path d="M183.718 50.3838C183.151 54.4241 182.933 58.5718 182.192 62.5811C181.98 63.7285 181.873 64.8025 181.873 65.9636" stroke="#222222" stroke-width="6.53046" stroke-linecap="round"/>
<ellipse cx="177.282" cy="112.329" rx="5.51629" ry="5.01481" fill="#222222"/>
<ellipse cx="222.413" cy="112.329" rx="5.51629" ry="5.01481" fill="#222222"/>
<path d="M175.594 199.288C176.41 194.118 180.002 184.513 187.838 187.452C195.675 190.391 190.015 200.921 186.206 205.819" stroke="#222222" stroke-width="4.89784" stroke-linecap="round"/>
<path d="M222.643 199.288C221.826 194.118 218.235 184.513 210.398 187.452C202.561 190.391 208.221 200.921 212.031 205.819" stroke="#222222" stroke-width="4.89784" stroke-linecap="round"/>
<path d="M184.801 130.138C186.199 131.77 188.107 133.52 190.359 133.758C190.96 133.822 191.579 133.888 192.182 133.888C193.485 133.888 194.66 133.492 195.778 132.831C198.272 131.358 199.913 128.898 199.913 125.982" stroke="#222222" stroke-width="5.01481" stroke-linecap="round"/>
<path d="M215.535 130.526C214.137 132.159 212.229 133.909 209.976 134.147C209.376 134.211 208.757 134.277 208.154 134.277C206.85 134.277 205.676 133.881 204.558 133.22C202.064 131.747 199.921 129.287 199.921 126.371" stroke="#222222" stroke-width="5.01481" stroke-linecap="round"/>
<path d="M206.442 121.776C206.442 125.486 204.436 127.374 200.424 127.374C195.911 127.374 194.406 125.486 194.406 121.776C194.406 118.066 197.666 115.338 200.424 115.338C203.182 115.338 206.442 118.066 206.442 121.776Z" fill="#222222"/>
<path d="M190.274 172.852L186.879 170.961C184.379 169.569 183.481 166.413 184.873 163.913V163.913C186.266 161.413 189.421 160.516 191.921 161.908L195.316 163.799" stroke="white" stroke-width="2.59074" stroke-linecap="round" stroke-linejoin="round"/>
<path d="M199.585 172.108L190.531 167.066" stroke="white" stroke-width="2.59074" stroke-linecap="round" stroke-linejoin="round"/>
<path d="M194.801 175.374L198.196 177.265C200.696 178.658 203.852 177.76 205.244 175.26V175.26C206.637 172.76 205.739 169.605 203.239 168.212L199.844 166.321" stroke="white" stroke-width="2.59074" stroke-linecap="round" stroke-linejoin="round"/>
<path d="M234.677 201.01C247.942 189.99 276.211 177.419 288.962 184.48C307.655 194.831 300.29 217.42 292.054 223.38" stroke="#222222" stroke-width="6.53046" stroke-linecap="round" stroke-linejoin="round"/>
<path d="M267.916 199.024C270.274 198.881 275.774 199.692 278.915 204.081" stroke="#222222" stroke-width="4.89784" stroke-linecap="round" stroke-linejoin="round"/>
</svg>
