<svg width="90" height="23" viewBox="0 0 90 23" fill="none" xmlns="http://www.w3.org/2000/svg">
<path d="M52.8475 14.1533L53.3484 13.5323L53.3484 13.5323L52.8475 14.1533ZM50.2358 14.1533L49.7349 13.5323L49.7349 13.5323L50.2358 14.1533ZM49.879 14.4411L50.3799 15.0621L50.3799 15.0621L49.879 14.4411ZM53.2043 14.4411L52.7034 15.0621L52.7034 15.0621L53.2043 14.4411ZM50.4849 7.00099H52.5984V5.40526H50.4849V7.00099ZM54.971 9.45783V13.1615H56.5667V9.45783H54.971ZM48.1123 13.1615V9.45783H46.5166V13.1615H48.1123ZM53.7052 13.8201L53.3484 13.5323L52.3466 14.7743L52.7034 15.0621L53.7052 13.8201ZM49.7349 13.5323L49.3781 13.8201L50.3799 15.0621L50.7367 14.7743L49.7349 13.5323ZM53.3484 13.5323C53.0504 13.2919 52.772 13.0656 52.5192 12.9077C52.2483 12.7385 51.9302 12.597 51.5416 12.597V14.1927C51.5186 14.1927 51.54 14.1775 51.6739 14.2612C51.8259 14.3561 52.0177 14.5091 52.3466 14.7743L53.3484 13.5323ZM50.7367 14.7743C51.0656 14.5091 51.2574 14.3561 51.4094 14.2612C51.5433 14.1775 51.5647 14.1927 51.5416 14.1927V12.597C51.1531 12.597 50.835 12.7385 50.5641 12.9077C50.3113 13.0656 50.0329 13.2919 49.7349 13.5323L50.7367 14.7743ZM46.5166 13.1615C46.5166 13.8628 46.5146 14.4777 46.5803 14.9392C46.644 15.3864 46.8086 15.984 47.4044 16.2813L48.1168 14.8535C48.2665 14.9281 48.208 15.0507 48.1601 14.7143C48.1143 14.3925 48.1123 13.9157 48.1123 13.1615H46.5166ZM49.3781 13.8201C48.7992 14.287 48.4356 14.5776 48.1641 14.7374C47.8835 14.9027 47.9577 14.7741 48.1168 14.8535L47.4044 16.2813C48.0096 16.5833 48.5856 16.3412 48.9739 16.1124C49.3714 15.8783 49.8439 15.4945 50.3799 15.0621L49.3781 13.8201ZM54.971 13.1615C54.971 13.9157 54.969 14.3925 54.9232 14.7143C54.8753 15.0507 54.8168 14.9281 54.9665 14.8535L55.6789 16.2813C56.2747 15.984 56.4393 15.3864 56.503 14.9392C56.5687 14.4777 56.5667 13.8628 56.5667 13.1615H54.971ZM52.7034 15.0621C53.2394 15.4945 53.7119 15.8783 54.1094 16.1124C54.4977 16.3412 55.0737 16.5833 55.6789 16.2813L54.9665 14.8535C55.1256 14.7741 55.1998 14.9027 54.9192 14.7374C54.6477 14.5776 54.2841 14.287 53.7052 13.8201L52.7034 15.0621ZM52.5984 7.00099C53.3689 7.00099 53.8643 7.00278 54.2288 7.05308C54.5681 7.09991 54.6729 7.17479 54.733 7.23649L55.8761 6.12304C55.4719 5.7081 54.971 5.54466 54.4469 5.47233C53.948 5.40347 53.3226 5.40526 52.5984 5.40526V7.00099ZM56.5667 9.45783C56.5667 8.71268 56.5683 8.0756 56.5019 7.56858C56.4328 7.0407 56.2774 6.53505 55.8761 6.12304L54.733 7.23649C54.796 7.30112 54.8728 7.41736 54.9197 7.77579C54.9694 8.15507 54.971 8.6687 54.971 9.45783H56.5667ZM50.4849 5.40526C49.7607 5.40526 49.1353 5.40347 48.6364 5.47233C48.1123 5.54466 47.6114 5.7081 47.2072 6.12304L48.3503 7.23649C48.4104 7.17479 48.5152 7.09991 48.8545 7.05308C49.219 7.00278 49.7144 7.00099 50.4849 7.00099V5.40526ZM48.1123 9.45783C48.1123 8.6687 48.1139 8.15507 48.1636 7.77579C48.2105 7.41736 48.2873 7.30112 48.3503 7.23649L47.2072 6.12304C46.8059 6.53505 46.6505 7.0407 46.5814 7.56857C46.515 8.0756 46.5166 8.71268 46.5166 9.45783H48.1123Z" fill="white"/>
<path d="M0.753399 6.216L4.70344 13.3559V17.0078H7.23743V13.3559L11.1726 6.216H8.34046L6.01516 10.7474H5.92572L3.60041 6.216H0.753399ZM21.688 11.6119C21.6954 8.04941 19.4521 6.06694 16.5603 6.06694C13.6537 6.06694 11.4327 8.04941 11.4327 11.6119C11.4327 15.152 13.6537 17.1569 16.5603 17.1569C19.4521 17.1569 21.6954 15.1669 21.688 11.6119ZM14.0264 11.6119C14.0264 9.46546 14.9878 8.29536 16.5603 8.30281C18.1404 8.29536 19.1018 9.46546 19.0943 11.6119C19.1018 13.7583 18.1404 14.921 16.5603 14.921C14.9878 14.921 14.0264 13.7583 14.0264 11.6119ZM29.7371 6.216V12.9683C29.7446 14.1086 28.9322 14.9359 27.7397 14.9359C26.5398 14.9359 25.7274 14.1086 25.7274 12.9683V6.216H23.1934V13.177C23.1934 15.5918 25.0045 17.1494 27.7397 17.1569C30.4526 17.1494 32.286 15.5918 32.286 13.177V6.216H29.7371ZM33.9256 17.0078H36.4596V13.2963H37.8757L39.8582 17.0078H42.6455L40.3873 12.8864C41.5798 12.3423 42.2654 11.284 42.258 9.79339C42.2654 7.59478 40.7674 6.216 38.3378 6.216H33.9256V17.0078ZM36.4596 11.2691V8.273H37.8012C39.0011 8.273 39.6346 8.7798 39.6346 9.79339C39.6346 10.807 39.0011 11.2765 37.8012 11.2691H36.4596ZM67.8215 6.216V12.9683C67.8289 14.1086 67.0166 14.9359 65.8241 14.9359C64.6242 14.9359 63.8118 14.1086 63.8118 12.9683V6.216H61.2778V13.177C61.2778 15.5918 63.0889 17.1494 65.8241 17.1569C68.537 17.1494 70.3704 15.5918 70.3704 13.177V6.216H67.8215ZM72.01 17.0078H74.544V13.2963H75.9601L77.9425 17.0078H80.7299L78.4717 12.8864C79.6642 12.3423 80.3498 11.284 80.3424 9.79339C80.3498 7.59478 78.8518 6.216 76.4221 6.216H72.01V17.0078ZM74.544 11.2691V8.273H75.8855C77.0855 8.273 77.719 8.7798 77.719 9.79339C77.719 10.807 77.0855 11.2765 75.8855 11.2691H74.544ZM81.7733 17.0078H88.8387V14.9359H84.3073V6.216H81.7733V17.0078Z" fill="white"/>
</svg>
