<svg width="16" height="16" viewBox="0 0 16 16" fill="none" xmlns="http://www.w3.org/2000/svg">
<path fill-rule="evenodd" clip-rule="evenodd" d="M13.298 2.68059C12.919 2.74799 12.3818 2.92429 11.5217 3.21102L5.03067 5.37468C4.20327 5.65048 3.61951 5.84539 3.19961 6.00922C2.99194 6.09025 2.8473 6.15498 2.74673 6.20804C2.66155 6.25298 2.63092 6.27773 2.6291 6.279C2.22324 6.6719 2.22324 7.32295 2.6291 7.71585C2.63092 7.71712 2.66155 7.74188 2.74673 7.78682C2.8473 7.83987 2.99194 7.9046 3.19961 7.98563C3.61951 8.14946 4.20327 8.34437 5.03067 8.62017C5.04966 8.6265 5.0685 8.63277 5.08718 8.63898C5.36055 8.72991 5.60057 8.80974 5.82153 8.92659C6.354 9.2082 6.78938 9.64357 7.07098 10.176C7.18784 10.397 7.26767 10.637 7.3586 10.9104C7.36481 10.9291 7.37108 10.9479 7.37741 10.9669C7.6532 11.7943 7.84812 12.3781 8.01195 12.798C8.09298 13.0056 8.15771 13.1503 8.21076 13.2508C8.2557 13.336 8.28046 13.3667 8.28173 13.3685C8.67463 13.7743 9.32568 13.7743 9.71858 13.3685C9.71984 13.3667 9.7446 13.336 9.78954 13.2508C9.8426 13.1503 9.90733 13.0056 9.98835 12.798C10.1522 12.3781 10.3471 11.7943 10.6229 10.9669L12.7866 4.47593C13.0733 3.61576 13.2496 3.07853 13.317 2.69963C13.3184 2.69174 13.3197 2.68406 13.321 2.6766C13.3135 2.67786 13.3058 2.67918 13.298 2.68059ZM13.5569 2.65747C13.5567 2.65766 13.5534 2.65739 13.5477 2.65612C13.5542 2.65666 13.5571 2.65729 13.5569 2.65747ZM13.3415 2.44989C13.3402 2.44415 13.3399 2.44086 13.3401 2.44066C13.3403 2.44045 13.3409 2.44331 13.3415 2.44989ZM12.9477 0.7115C13.4987 0.613482 14.2532 0.584295 14.8332 1.16435C15.4133 1.74441 15.3841 2.49892 15.2861 3.04991C15.1898 3.59134 14.9633 4.27046 14.7078 5.03675L14.6839 5.10839L12.5203 11.5994L12.5109 11.6276C12.2466 12.4204 12.0359 13.0524 11.8516 13.5249C11.6782 13.9691 11.4728 14.4295 11.1633 14.7515C9.98281 15.98 8.0175 15.98 6.83702 14.7515C6.52754 14.4295 6.32206 13.9691 6.14875 13.5249C5.96438 13.0524 5.75374 12.4205 5.48948 11.6277L5.48004 11.5994C5.35964 11.2382 5.33252 11.1669 5.303 11.1111C5.20914 10.9336 5.06401 10.7884 4.88652 10.6946C4.8307 10.6651 4.75941 10.6379 4.39821 10.5175L4.36988 10.5081C3.5771 10.2438 2.94518 10.0332 2.47264 9.84883C2.02846 9.67552 1.56809 9.47003 1.24604 9.16056C0.0175968 7.98008 0.0175968 6.01477 1.24604 4.8343C1.56809 4.52482 2.02846 4.31933 2.47264 4.14602C2.9452 3.96164 3.57714 3.751 4.36997 3.48673L4.39821 3.47731L10.8892 1.31365C10.9131 1.30567 10.937 1.29771 10.9608 1.28978C11.7271 1.03426 12.4062 0.807816 12.9477 0.7115Z" fill="#F9B900"/>
</svg>
