<svg width="213" height="167" viewBox="0 0 213 167" fill="none" xmlns="http://www.w3.org/2000/svg">
<path d="M24.5565 106.959H58.4636V120H70.4422V106.959H79.6194V96.6225H70.4422V50.0606H54.7928L24.5565 96.9123V106.959ZM37.4045 96.6225V96.1394L57.884 64.3576H58.6568V96.6225H37.4045ZM111.283 120.966C128.092 120.966 138.139 107.973 138.139 85.0303C138.139 62.2323 128.044 49.0946 111.283 49.0946C94.5231 49.0946 84.38 62.2323 84.4283 85.0303C84.38 107.925 94.4265 120.966 111.283 120.966ZM97.0831 85.0303C97.1314 68.3665 102.541 59.5758 111.283 59.5275C120.026 59.5758 125.436 68.3665 125.484 85.0303C125.484 101.839 120.026 110.388 111.283 110.436C102.493 110.388 97.0831 101.839 97.0831 85.0303ZM143.237 106.959H177.145V120H189.123V106.959H198.3V96.6225H189.123V50.0606H173.474L143.237 96.9123V106.959ZM156.085 96.6225V96.1394L176.565 64.3576H177.338V96.6225H156.085Z" fill="#FFCC37"/>
<path d="M14.6659 106.959H48.573V120H60.5516V106.959H69.7287V96.6225H60.5516V50.0606H44.9022L14.6659 96.9123V106.959ZM27.5139 96.6225V96.1394L47.9934 64.3576H48.7662V96.6225H27.5139ZM101.393 120.966C118.202 120.966 128.248 107.973 128.248 85.0303C128.248 62.2323 118.153 49.0946 101.393 49.0946C84.6325 49.0946 74.4894 62.2323 74.5377 85.0303C74.4894 107.925 84.5359 120.966 101.393 120.966ZM87.1924 85.0303C87.2407 68.3665 92.6504 59.5758 101.393 59.5275C110.135 59.5758 115.545 68.3665 115.593 85.0303C115.593 101.839 110.135 110.388 101.393 110.436C92.6021 110.388 87.1924 101.839 87.1924 85.0303ZM133.347 106.959H167.254V120H179.232V106.959H188.41V96.6225H179.232V50.0606H163.583L133.347 96.9123V106.959ZM146.195 96.6225V96.1394L166.674 64.3576H167.447V96.6225H146.195Z" fill="white"/>
<path d="M14.6659 106.959H10.7091V110.916H14.6659V106.959ZM48.573 106.959H52.5298V103.002H48.573V106.959ZM48.573 120H44.6162V123.957H48.573V120ZM60.5516 120V123.957H64.5084V120H60.5516ZM60.5516 106.959V103.002H56.5948V106.959H60.5516ZM69.7287 106.959V110.916H73.6855V106.959H69.7287ZM69.7287 96.6225H73.6855V92.6657H69.7287V96.6225ZM60.5516 96.6225H56.5948V100.579H60.5516V96.6225ZM60.5516 50.0606H64.5084V46.1038H60.5516V50.0606ZM44.9022 50.0606V46.1038H42.7465L41.5776 47.915L44.9022 50.0606ZM14.6659 96.9123L11.3413 94.7667L10.7091 95.7463V96.9123H14.6659ZM27.5139 96.6225H23.5571V100.579H27.5139V96.6225ZM27.5139 96.1395L24.1878 93.9962L23.5571 94.975V96.1395H27.5139ZM47.9934 64.3576V60.4008H45.8359L44.6673 62.2143L47.9934 64.3576ZM48.7662 64.3576H52.723V60.4008H48.7662V64.3576ZM48.7662 96.6225V100.579H52.723V96.6225H48.7662ZM14.6659 110.916H48.573V103.002H14.6659V110.916ZM44.6162 106.959V120H52.5298V106.959H44.6162ZM48.573 123.957H60.5516V116.043H48.573V123.957ZM64.5084 120V106.959H56.5948V120H64.5084ZM60.5516 110.916H69.7287V103.002H60.5516V110.916ZM73.6855 106.959V96.6225H65.7719V106.959H73.6855ZM69.7287 92.6657H60.5516V100.579H69.7287V92.6657ZM64.5084 96.6225V50.0606H56.5948V96.6225H64.5084ZM60.5516 46.1038H44.9022V54.0174H60.5516V46.1038ZM41.5776 47.915L11.3413 94.7667L17.9905 99.0578L48.2267 52.2061L41.5776 47.915ZM10.7091 96.9123V106.959H18.6227V96.9123H10.7091ZM31.4707 96.6225V96.1395H23.5571V96.6225H31.4707ZM30.84 98.2827L51.3195 66.5008L44.6673 62.2143L24.1878 93.9962L30.84 98.2827ZM47.9934 68.3144H48.7662V60.4008H47.9934V68.3144ZM44.8094 64.3576V96.6225H52.723V64.3576H44.8094ZM48.7662 92.6657H27.5139V100.579H48.7662V92.6657ZM74.5377 85.0303L78.4944 85.0386L78.4945 85.0303L78.4944 85.0219L74.5377 85.0303ZM87.1925 85.0303L83.2357 85.0188V85.0303H87.1925ZM101.393 59.5275L101.415 55.5708L101.393 55.5707L101.371 55.5708L101.393 59.5275ZM115.593 85.0303H119.55L119.55 85.0188L115.593 85.0303ZM101.393 110.436L101.371 114.393L101.393 114.393L101.415 114.393L101.393 110.436ZM101.393 124.923C110.935 124.923 118.862 121.172 124.283 113.984C129.592 106.945 132.205 97.0082 132.205 85.0303H124.291C124.291 95.9952 121.881 104.026 117.965 109.219C114.16 114.264 108.659 117.009 101.393 117.009V124.923ZM132.205 85.0303C132.205 73.1156 129.576 63.1844 124.267 56.1331C118.849 48.9383 110.928 45.1378 101.393 45.1378V53.0513C108.618 53.0513 114.125 55.8197 117.945 60.8932C121.873 66.1104 124.291 74.147 124.291 85.0303H132.205ZM101.393 45.1378C91.859 45.1378 83.9266 48.9369 78.5026 56.1312C73.1851 63.1841 70.5556 73.1186 70.5809 85.0387L78.4944 85.0219C78.4714 74.144 80.8894 66.1106 84.8215 60.8952C88.647 55.8211 94.1664 53.0513 101.393 53.0513V45.1378ZM70.5809 85.0219C70.5556 96.9789 73.1561 106.918 78.4656 113.965C83.8862 121.159 91.8257 124.923 101.393 124.923V117.009C94.103 117.009 88.5908 114.252 84.786 109.203C80.8701 104.005 78.4714 95.9762 78.4944 85.0386L70.5809 85.0219ZM91.1492 85.0418C91.1724 77.0396 92.4972 71.4574 94.4672 68.0123C96.3185 64.7748 98.647 63.4995 101.415 63.4842L101.371 55.5708C95.3963 55.6038 90.6488 58.748 87.5975 64.0839C84.665 69.2122 83.2608 76.3572 83.2357 85.0188L91.1492 85.0418ZM101.371 63.4842C104.139 63.4995 106.467 64.7748 108.318 68.0123C110.289 71.4574 111.613 77.0396 111.636 85.0418L119.55 85.0188C119.525 76.3572 118.121 69.2122 115.188 64.0839C112.137 58.748 107.389 55.6038 101.415 55.5708L101.371 63.4842ZM111.636 85.0303C111.636 93.1054 110.309 98.6474 108.347 102.036C106.513 105.203 104.186 106.464 101.371 106.48L101.415 114.393C107.343 114.36 112.115 111.322 115.196 106.001C118.149 100.901 119.55 93.7638 119.55 85.0303H111.636ZM101.415 106.48C98.5712 106.464 96.2472 105.199 94.4226 102.04C92.4664 98.6525 91.1492 93.111 91.1492 85.0303H83.2357C83.2357 93.7582 84.6234 100.896 87.5697 105.997C90.6476 111.327 95.4238 114.361 101.371 114.393L101.415 106.48ZM133.347 106.959H129.39V110.916H133.347V106.959ZM167.254 106.959H171.211V103.002H167.254V106.959ZM167.254 120H163.297V123.957H167.254V120ZM179.232 120V123.957H183.189V120H179.232ZM179.232 106.959V103.002H175.276V106.959H179.232ZM188.41 106.959V110.916H192.366V106.959H188.41ZM188.41 96.6225H192.366V92.6657H188.41V96.6225ZM179.232 96.6225H175.276V100.579H179.232V96.6225ZM179.232 50.0606H183.189V46.1038H179.232V50.0606ZM163.583 50.0606V46.1038H161.427L160.258 47.915L163.583 50.0606ZM133.347 96.9123L130.022 94.7667L129.39 95.7463V96.9123H133.347ZM146.195 96.6225H142.238V100.579H146.195V96.6225ZM146.195 96.1395L142.869 93.9962L142.238 94.975V96.1395H146.195ZM166.674 64.3576V60.4008H164.517L163.348 62.2143L166.674 64.3576ZM167.447 64.3576H171.404V60.4008H167.447V64.3576ZM167.447 96.6225V100.579H171.404V96.6225H167.447ZM133.347 110.916H167.254V103.002H133.347V110.916ZM163.297 106.959V120H171.211V106.959H163.297ZM167.254 123.957H179.232V116.043H167.254V123.957ZM183.189 120V106.959H175.276V120H183.189ZM179.232 110.916H188.41V103.002H179.232V110.916ZM192.366 106.959V96.6225H184.453V106.959H192.366ZM188.41 92.6657H179.232V100.579H188.41V92.6657ZM183.189 96.6225V50.0606H175.276V96.6225H183.189ZM179.232 46.1038H163.583V54.0174H179.232V46.1038ZM160.258 47.915L130.022 94.7667L136.671 99.0578L166.908 52.2061L160.258 47.915ZM129.39 96.9123V106.959H137.304V96.9123H129.39ZM150.152 96.6225V96.1395H142.238V96.6225H150.152ZM149.521 98.2827L170 66.5008L163.348 62.2143L142.869 93.9962L149.521 98.2827ZM166.674 68.3144H167.447V60.4008H166.674V68.3144ZM163.49 64.3576V96.6225H171.404V64.3576H163.49ZM167.447 92.6657H146.195V100.579H167.447V92.6657Z" fill="#F9B900"/>
</svg>
