<svg width="273" height="40" viewBox="0 0 273 40" fill="none" xmlns="http://www.w3.org/2000/svg">
<rect y="8" width="273" height="32" rx="5" fill="#40403F"/>
<path d="M34.4398 18.6533H33.0307V30.1426H34.4398V24.1631H36.2045V23.0078H34.4398V18.6533ZM25.9213 27.3369H26.8734C28.9428 27.3369 30.4853 27.2861 32.2689 26.9814L32.1039 25.7881C30.5297 26.061 29.1142 26.1499 27.3305 26.1562V20.8877H31.2914V19.7451H25.9213V27.3369ZM46.4605 24.9121H35.9742V26.042H46.4605V24.9121ZM37.2691 20.0625H43.7564V21.002H37.3072V24.0615H45.3941V22.9951H38.7037V22.0176H45.1656V18.958H37.2691V20.0625ZM37.3199 29.9014H45.4195V28.7588H38.7418V26.7656H37.3199V29.9014ZM59.3809 24.5947H48.8945V25.7246H53.5537V27.7051H54.9502V25.7246H59.3809V24.5947ZM50.1641 29.9014H58.2256V28.7588H51.5605V26.7402H50.1641V29.9014ZM50.2656 23.6934H58.0098V19.0215H56.6133V20.3164H51.6621V19.0215H50.2656V23.6934ZM51.6621 22.5762V21.3701H56.6133V22.5762H51.6621ZM69.9162 23.249H59.4426V24.3662H69.9162V23.249ZM60.674 26.2197H67.2121V27.0195H60.6867V30.0156H68.9133V28.9111H62.0705V28.0352H68.5959V25.1533H60.674V26.2197ZM60.7756 22.5127H68.6721V21.3955H62.1848V20.0752H68.5705V18.9453H60.7756V22.5127ZM80.4389 24.582H69.9779V25.7119H80.4389V24.582ZM71.057 21.3447C71.057 22.8047 72.6884 23.6934 75.1957 23.6934C77.6967 23.6934 79.328 22.8047 79.3344 21.3447C79.328 19.8911 77.6967 19.0151 75.1957 19.0215C72.6884 19.0151 71.057 19.8911 71.057 21.3447ZM71.2729 29.9014H79.2582V28.7588H72.682V26.5625H71.2729V29.9014ZM72.5297 21.3447C72.517 20.5894 73.5263 20.1514 75.1957 20.1514C76.8715 20.1514 77.8744 20.5894 77.8744 21.3447C77.8744 22.1255 76.8715 22.5444 75.1957 22.5381C73.5263 22.5444 72.517 22.1255 72.5297 21.3447ZM144.89 23.8584H134.404V24.9248H144.89V23.8584ZM135.622 26.6006H142.224V27.3115H135.635V30.0029H143.963V29.0254H137.044V28.2256H143.62V25.6104H135.622V26.6006ZM135.698 19.8848H142.186V20.583H135.737V23.2109H143.798V22.2461H137.133V21.4971H143.595V18.9072H135.698V19.8848ZM156.464 19.123H148.657V23.1094H151.843V24.3154H147.337V25.458H157.797V24.3154H153.265V23.1094H156.464V19.123ZM148.492 27.54H155.106V30.1299H156.515V26.4229H148.492V27.54ZM150.028 21.9922V20.2275H155.068V21.9922H150.028ZM168.358 27.667H165.591V25.3057H167.406V24.1631H165.768V20.7607H167.444V19.6309H158.735V20.7607H160.386V24.1631H158.773V25.3057H160.589V27.667H157.872V28.8096H168.358V27.667ZM161.795 24.1631V20.7607H164.372V24.1631H161.795ZM161.998 27.667V25.3057H164.181V27.667H161.998ZM178.894 27.6289H174.323V25.7627H177.916V24.6074H171.061V23.1221H177.649V19.4404H169.626V20.583H176.253V22.0049H169.651V25.7627H172.927V27.6289H168.407V28.7969H178.894V27.6289ZM190.938 18.6533H189.529V20.4941H187.244V21.624H189.529V24.5312H190.938V18.6533ZM181.264 23.4648L182 24.5947C183.352 24.1504 184.298 23.2363 184.793 22.0747C185.301 23.1157 186.203 23.9282 187.447 24.3408L188.196 23.249C186.412 22.7031 185.485 21.3638 185.492 19.9482V19.0342H184.07V19.9482C184.07 21.4907 183.111 22.9062 181.264 23.4648ZM183.384 26.1309H189.541V26.9434H183.397V29.9902H191.306V28.873H184.781V27.9971H190.938V25.0264H183.384V26.1309ZM201.473 18.6533H200.064V21.5098H198.109V22.665H200.064V25.4707H201.473V18.6533ZM191.825 24.3281L192.561 25.4453C193.926 24.9629 194.884 23.9727 195.386 22.7539C195.894 23.833 196.795 24.709 198.071 25.1406L198.782 24.0234C197.004 23.4268 196.078 22.0176 196.078 20.6211V20.5449H198.452V19.4023H192.256V20.5449H194.643V20.6338C194.643 22.1509 193.672 23.6934 191.825 24.3281ZM193.691 27.9463C193.678 29.3237 195.17 30.1235 197.588 30.1299C200.02 30.1235 201.505 29.3237 201.511 27.9463C201.505 26.5688 200.02 25.7627 197.588 25.7627C195.17 25.7627 193.678 26.5688 193.691 27.9463ZM195.087 27.9463C195.081 27.229 195.995 26.8418 197.588 26.8418C199.194 26.8418 200.102 27.229 200.102 27.9463C200.102 28.6572 199.194 29.0444 197.588 29.0381C195.995 29.0444 195.081 28.6572 195.087 27.9463ZM211.387 18.6533H209.99V30.1299H211.387V24.3916H213.151V23.2236H211.387V18.6533ZM202.335 21.5479H209.101V20.418H206.461V18.8184H205.052V20.418H202.335V21.5479ZM202.868 25.001C202.855 26.5815 204.087 27.6924 205.763 27.6924C207.413 27.6924 208.638 26.5815 208.644 25.001C208.638 23.4141 207.413 22.2905 205.763 22.2969C204.087 22.2905 202.855 23.4141 202.868 25.001ZM204.214 25.001C204.207 24.0679 204.861 23.4521 205.763 23.4521C206.645 23.4521 207.286 24.0679 207.299 25.001C207.286 25.9341 206.645 26.5308 205.763 26.5244C204.861 26.5308 204.207 25.9341 204.214 25.001ZM222.544 18.6533H221.135V19.8848H219.104V21.0273H221.135V22.0811H219.104V23.2109H221.135V25.3057H222.544V18.6533ZM212.883 24.1504L213.683 25.2676C214.984 24.7661 215.898 23.7886 216.399 22.5635C216.888 23.7061 217.751 24.6265 218.964 25.1025L219.776 23.9854C217.993 23.3379 217.091 21.7637 217.098 20.1895V19.0723H215.676V20.1895C215.676 21.8843 214.743 23.4712 212.883 24.1504ZM213.556 28.9238L214.241 29.9775C215.301 29.584 216.025 28.8413 216.431 27.959C216.799 28.8794 217.485 29.6665 218.558 30.0664C219.611 29.6411 220.291 28.8286 220.671 27.9209C221.065 28.8477 221.795 29.584 222.912 29.9775L223.623 28.9238C222.087 28.4414 221.382 27.2925 221.389 26.0928V25.7119H220.005V26.0928C219.992 26.9624 219.548 28.0225 218.551 28.7144C217.561 28.0669 217.123 27.064 217.136 26.0928V25.7119H215.765V26.0928C215.758 27.229 215.041 28.416 213.556 28.9238ZM226.605 19.4912C224.878 19.4912 223.653 21.0654 223.659 23.541C223.653 26.0356 224.878 27.6035 226.605 27.6035C228.198 27.6035 229.366 26.2388 229.518 24.0234H231.695V30.1426H233.092V18.6533H231.695V22.8809H229.506C229.302 20.7861 228.154 19.4912 226.605 19.4912ZM225.018 23.541C225.011 21.7891 225.659 20.7607 226.605 20.7607C227.557 20.7607 228.198 21.7891 228.204 23.541C228.198 25.3057 227.557 26.3276 226.605 26.334C225.659 26.3276 225.011 25.3057 225.018 23.541ZM244.491 27.5781H242.079V24.6455C242.967 24.1187 243.507 23.3125 243.5 22.3096C243.507 20.4814 241.704 19.2754 239.222 19.2754C236.753 19.2754 234.963 20.4814 234.969 22.3096C234.963 23.3252 235.515 24.1504 236.429 24.6772V27.5781H234.004V28.7334H244.491V27.5781ZM236.353 22.3096C236.347 21.1162 237.508 20.3862 239.222 20.3926C240.93 20.3862 242.117 21.1162 242.117 22.3096C242.117 23.4839 240.93 24.2329 239.222 24.2266C237.508 24.2329 236.347 23.4839 236.353 22.3096ZM237.826 27.5781V25.1914C238.257 25.2803 238.727 25.3311 239.222 25.3311C239.73 25.3311 240.206 25.2803 240.644 25.1851V27.5781H237.826ZM246.901 19.8086H245.174L245.327 26.2959H246.761L246.901 19.8086ZM245.06 28.1113C245.054 28.6572 245.504 29.1016 246.05 29.1016C246.577 29.1016 247.028 28.6572 247.028 28.1113C247.028 27.5781 246.577 27.1401 246.05 27.1338C245.504 27.1401 245.054 27.5781 245.06 28.1113Z" fill="white"/>
<path d="M89.3094 19.377H83.1521V20.6719H84.0916V23.9219L82.8602 23.9346L83.0252 25.2422C84.8597 25.2422 87.3797 25.1978 89.5506 24.8359L89.4871 23.6426C89.1253 23.687 88.7444 23.7251 88.3572 23.7505V20.6719H89.3094V19.377ZM84.6756 28.0225C84.6756 29.3682 86.1736 30.1743 88.6492 30.168C91.1311 30.1743 92.6292 29.3682 92.6355 28.0225C92.6292 26.6387 91.1311 25.8579 88.6492 25.8516C86.1736 25.8579 84.6756 26.6387 84.6756 28.0225ZM85.6531 23.8901V20.6719H86.8084V23.8521C86.4212 23.8647 86.034 23.8838 85.6531 23.8901ZM86.2879 28.0225C86.2879 27.394 87.1067 27.0894 88.6492 27.0957C90.1917 27.0894 91.0169 27.394 91.0232 28.0225C91.0169 28.6318 90.1917 28.9365 88.6492 28.9365C87.1067 28.9365 86.2879 28.6318 86.2879 28.0225ZM89.5633 23.9473H90.9852V25.6738H92.5975V18.6152H90.9852V20.4941H89.5633V21.7637H90.9852V22.6523H89.5633V23.9473ZM102.714 19.1611H94.665V20.4307H101.102C101.095 21.2876 101.07 22.2207 100.86 23.4268H93.3955V24.7217H96.8994V27.248H98.4863V24.7217H99.7432V27.248H101.317V24.7217H103.971V23.4268H102.479C102.72 22.1128 102.72 21.0718 102.714 20.1514V19.1611ZM94.5254 29.9648H103.019V28.6699H96.1377V26.207H94.5254V29.9648ZM110.162 29.127C112.238 29.1333 113.647 27.7939 113.641 25.9277C113.647 24.1948 112.416 22.957 110.759 22.957C109.744 22.957 108.836 23.4331 108.411 24.252H108.322C108.334 22.4429 108.988 21.3193 110.239 21.3193C110.981 21.3193 111.508 21.7192 111.661 22.3604H113.539C113.355 20.8496 112.086 19.6816 110.239 19.6816C107.941 19.6816 106.462 21.5161 106.455 24.6201C106.449 27.9844 108.265 29.1206 110.162 29.127ZM108.512 25.9785C108.525 25.0835 109.236 24.3472 110.175 24.3408C111.108 24.3472 111.787 25.0581 111.787 25.9785C111.787 26.9053 111.096 27.6226 110.15 27.6162C109.21 27.6226 108.525 26.8799 108.512 25.9785ZM114.998 29.1143C115.563 29.1143 116.051 28.6382 116.051 28.0479C116.051 27.4639 115.563 26.9878 114.998 26.9941C114.401 26.9878 113.919 27.4639 113.931 28.0479C113.919 28.6382 114.401 29.1143 114.998 29.1143ZM120.15 29.127C122.22 29.127 123.629 27.8003 123.629 25.9404C123.629 24.1758 122.372 22.9126 120.683 22.9189C119.877 22.9126 119.179 23.2427 118.843 23.6934H118.766L119.02 21.3701H123.108V19.8086H117.446L116.951 25.1025H118.678C118.95 24.5884 119.433 24.3281 120.125 24.3281C121.09 24.3345 121.782 25.0137 121.775 25.9912C121.782 26.9497 121.102 27.6226 120.15 27.6162C119.35 27.6226 118.697 27.1274 118.652 26.4102H116.799C116.83 27.9971 118.233 29.127 120.15 29.127ZM133.809 18.6152H132.247V22.9951H131.193V18.9199H129.683V29.6602H131.193V24.29H132.247V30.168H133.809V18.6152ZM123.703 26.6768L124.643 27.7939C127.899 25.9023 128.864 23.2617 128.87 20.0371H124.287V21.332H127.29C127.074 23.5981 126.058 25.293 123.703 26.6768Z" fill="#FFCC48"/>
<path d="M135.268 3C136.038 1.66667 137.962 1.66667 138.732 3L142.196 9C142.966 10.3333 142.004 12 140.464 12H133.536C131.996 12 131.034 10.3333 131.804 9L135.268 3Z" fill="#40403F"/>
</svg>
