<svg width="21" height="23" viewBox="0 0 21 23" fill="none" xmlns="http://www.w3.org/2000/svg">
<path d="M0.736084 8.08454C0.736084 4.46496 0.736084 2.65517 1.83142 1.53071C2.92675 0.40625 4.68966 0.40625 8.21548 0.40625H13.2017C16.7276 0.40625 18.4905 0.40625 19.5858 1.53071C20.6811 2.65517 20.6811 4.46496 20.6811 8.08454V16.8219C20.6811 20.2558 20.6811 21.9727 19.6287 22.4978C18.5762 23.023 17.2611 21.9622 14.631 19.8407L13.7892 19.1618C12.3103 17.9689 11.5709 17.3724 10.7086 17.3724C9.84633 17.3724 9.10688 17.9689 7.62799 19.1618L6.78625 19.8407C4.1561 21.9622 2.84102 23.023 1.78855 22.4978C0.736084 21.9727 0.736084 20.2558 0.736084 16.8219V8.08454Z" fill="#F9B900"/>
</svg>
