<svg width="464" height="177" viewBox="0 0 464 177" fill="none" xmlns="http://www.w3.org/2000/svg">
<path d="M72.5935 76.0382L84.7573 79.3772L75.7838 88.2419L72.5935 76.0382Z" fill="#CECECE"/>
<path d="M270.325 94.4052L271.272 107.015L259.878 101.53L270.325 94.4052Z" fill="#FFCC37"/>
<path d="M437.224 58.1724L424.273 77.7322L413.809 56.737L437.224 58.1724Z" fill="#7DEDAC"/>
<path d="M431.676 153.062L442.836 159.145L431.988 165.769L431.676 153.062Z" fill="#EF5F5F"/>
<path d="M449.676 4.0624L460.836 10.1452L449.988 16.7691L449.676 4.0624Z" fill="#CECECE"/>
<path d="M134.977 35.8844L137.994 51.5881L122.886 46.3486L134.977 35.8844Z" fill="#FFCC37"/>
<path d="M212.174 22.9136L198.208 23.432L204.742 11.0784L212.174 22.9136Z" fill="#7DEDAC"/>
<path d="M9.36451 154.15L24.4859 163.323L8.98069 171.832L9.36451 154.15Z" fill="#84D8E6"/>
<path d="M355.031 122.384L370.618 124.623L360.886 137.002L355.031 122.384Z" fill="#84D8E6"/>
<circle cx="129.607" cy="129.173" r="4.85082" transform="rotate(0.349579 129.607 129.173)" fill="#FFF129"/>
<circle cx="201.92" cy="130.745" r="3.48534" transform="rotate(0.349579 201.92 130.745)" fill="#7DEDAC"/>
<circle cx="32.4311" cy="30.2626" r="4" transform="rotate(0.349579 32.4311 30.2626)" fill="#EF5F5F"/>
<circle cx="320.005" cy="57.6604" r="4.09645" transform="rotate(0.349579 320.005 57.6604)" fill="#84D8E6"/>
<path fill-rule="evenodd" clip-rule="evenodd" d="M186.184 64.4914L193.875 56.8939L196.724 59.778L189.033 67.3755L186.184 64.4914ZM194.222 78.3966L194.223 78.3984L197.107 75.5493L186.186 64.4938L183.302 67.3429L191.373 75.5126L183.683 83.1093L186.532 85.9934L194.222 78.3966Z" fill="white"/>
<path fill-rule="evenodd" clip-rule="evenodd" d="M62.7609 133.325L64.7664 136.848L74.7521 131.164L80.0994 140.558L83.6226 138.552L78.2745 129.157L78.2711 129.159L76.2664 125.637L62.7609 133.325ZM62.7621 133.324L57.414 123.929L60.9371 121.923L66.2852 131.318L62.7621 133.324Z" fill="white"/>
<path fill-rule="evenodd" clip-rule="evenodd" d="M379.661 41.3002L383.583 42.3284L386.496 31.2171L396.953 33.959L397.981 30.0375L387.524 27.2956L387.524 27.2962L383.603 26.2681L380.69 37.3772L370.233 34.6354L369.205 38.5569L379.661 41.2987L379.661 41.3002Z" fill="white"/>
</svg>
