<svg width="31" height="32" viewBox="0 0 31 32" fill="none" xmlns="http://www.w3.org/2000/svg">
<path d="M9.11849 3.55772C9.22738 4.52219 9.06137 5.70648 8.66269 6.6586C8.24935 7.64574 7.68708 8.16984 7.13389 8.23285C6.51806 8.303 5.62222 7.8886 4.784 7.05455C3.96552 6.24014 3.37668 5.19322 3.27678 4.3084C3.07221 2.49644 4.20427 1.23108 5.65775 1.06551C7.23214 0.886178 8.92658 1.85795 9.11849 3.55772Z" fill="white" stroke="#222222" stroke-width="1.27921"/>
<path d="M23.3464 3.55772C23.2375 4.52219 23.4035 5.70648 23.8022 6.6586C24.2155 7.64574 24.7778 8.16984 25.331 8.23285C25.9468 8.303 26.8426 7.8886 27.6808 7.05455C28.4993 6.24014 29.0882 5.19322 29.1881 4.3084C29.3926 2.49644 28.2606 1.23108 26.8071 1.06551C25.2327 0.886178 23.5383 1.85795 23.3464 3.55772Z" fill="white" stroke="#222222" stroke-width="1.27921"/>
<path d="M5.15234 3.69482C6.56984 4.34198 7.32929 5.95221 7.03493 7.64716" stroke="#222222" stroke-width="0.84341" stroke-linecap="round"/>
<path d="M27.457 4.01025C26.2461 4.42503 25.1064 6.56194 25.1118 7.39191" stroke="#222222" stroke-width="0.84341" stroke-linecap="round"/>
<mask id="path-5-inside-1_1717_5461" fill="white">
<path d="M31 17.5933C31 25.2409 26.3114 31.4404 15.5 31.4404C4.68861 31.4404 0 25.2409 0 17.5933C0 8.44222 8.22692 5.49219 15.5 5.49219C22.2962 5.49219 31 7.84017 31 17.5933Z"/>
</mask>
<path d="M31 17.5933C31 25.2409 26.3114 31.4404 15.5 31.4404C4.68861 31.4404 0 25.2409 0 17.5933C0 8.44222 8.22692 5.49219 15.5 5.49219C22.2962 5.49219 31 7.84017 31 17.5933Z" fill="white"/>
<path d="M15.5 5.49219V6.7714V5.49219ZM29.7208 17.5933C29.7208 21.1587 28.6318 24.2637 26.4029 26.477C24.1777 28.6866 20.6608 30.1612 15.5 30.1612V32.7196C21.1506 32.7196 25.3837 31.0944 28.2056 28.2924C31.0239 25.494 32.2792 21.6755 32.2792 17.5933H29.7208ZM15.5 30.1612C10.3392 30.1612 6.82235 28.6866 4.59707 26.477C2.36816 24.2637 1.27921 21.1587 1.27921 17.5933H-1.27921C-1.27921 21.6755 -0.0238537 25.494 2.79439 28.2924C5.61626 31.0944 9.84941 32.7196 15.5 32.7196V30.1612ZM1.27921 17.5933C1.27921 13.4795 3.0914 10.851 5.70783 9.1913C8.39668 7.48562 12.0036 6.7714 15.5 6.7714V4.21297C11.7233 4.21297 7.58024 4.97377 4.33737 7.03088C1.02207 9.13394 -1.27921 12.5561 -1.27921 17.5933H1.27921ZM15.5 6.7714C18.7888 6.7714 22.399 7.34568 25.1429 8.9837C27.7966 10.5679 29.7208 13.1843 29.7208 17.5933H32.2792C32.2792 12.2492 29.8515 8.815 26.4543 6.78694C23.1472 4.81268 19.0073 4.21297 15.5 4.21297V6.7714Z" fill="#222222" mask="url(#path-5-inside-1_1717_5461)"/>
<path d="M15.7822 6.40942C15.482 7.50433 15.0865 8.63385 14.932 9.76554C14.8946 10.0399 14.8947 10.3199 14.8281 10.5875" stroke="#222222" stroke-width="1.40568" stroke-linecap="round"/>
<path d="M19.3164 6.56323C19.061 7.38155 18.6962 8.15802 18.4557 8.98236C18.4097 9.14003 18.4145 9.37877 18.3242 9.51474" stroke="#222222" stroke-width="1.12455" stroke-linecap="round"/>
<path d="M12.1481 6.6792C12.0426 7.43468 12.002 8.21024 11.864 8.95991C11.8246 9.17444 11.8047 9.37528 11.8047 9.59237" stroke="#222222" stroke-width="1.12455" stroke-linecap="round"/>
<ellipse cx="10.9527" cy="18.2607" rx="1.02689" ry="0.93769" fill="#222222"/>
<ellipse cx="19.3511" cy="18.2607" rx="1.02689" ry="0.93769" fill="#222222"/>
<path d="M12.3516 21.5891C12.6118 21.8943 12.967 22.2216 13.3863 22.2661C13.4981 22.278 13.6133 22.2903 13.7256 22.2903C13.9683 22.2903 14.1869 22.2163 14.3951 22.0928C14.8593 21.8172 15.1648 21.3574 15.1648 20.812" stroke="#222222" stroke-width="0.863552" stroke-linecap="round"/>
<path d="M18.0703 21.6621C17.81 21.9673 17.4549 22.2946 17.0355 22.3391C16.9238 22.351 16.8086 22.3633 16.6962 22.3633C16.4536 22.3633 16.235 22.2893 16.0268 22.1658C15.5626 21.8902 15.1637 21.4304 15.1637 20.885" stroke="#222222" stroke-width="0.863552" stroke-linecap="round"/>
<path d="M16.3811 20.0277C16.3811 20.7214 16.0077 21.0744 15.2609 21.0744C14.4207 21.0744 14.1406 20.7214 14.1406 20.0277C14.1406 19.334 14.7474 18.824 15.2609 18.824C15.7743 18.824 16.3811 19.334 16.3811 20.0277Z" fill="#222222"/>
</svg>
