<svg width="16" height="16" viewBox="0 0 16 16" fill="none" xmlns="http://www.w3.org/2000/svg">
<path fill-rule="evenodd" clip-rule="evenodd" d="M12.6102 6.01081L14.1224 4.49867L14.1224 4.49866C14.4583 4.16272 14.6263 3.99475 14.7374 3.82678C15.1804 3.15755 15.1804 2.28839 14.7374 1.61917C14.6263 1.45119 14.4583 1.28322 14.1224 0.947279L14.1224 0.947272C13.7864 0.611326 13.6184 0.443353 13.4505 0.332182C12.7812 -0.110727 11.9121 -0.110727 11.2429 0.332182C11.0749 0.443353 10.9069 0.611326 10.571 0.947274L9.03837 2.47986C9.88995 3.94849 11.1217 5.17074 12.6102 6.01081ZM7.58384 3.9344L1.66099 9.85724C1.23593 10.2823 1.0234 10.4948 0.883668 10.7559C0.743933 11.017 0.684988 11.3118 0.567098 11.9012L0.0638519 14.4174C-0.00267026 14.75 -0.0359313 14.9163 0.0586767 15.011C0.153285 15.1056 0.31959 15.0723 0.6522 15.0058L3.16843 14.5025L3.16844 14.5025C3.75788 14.3846 4.05261 14.3257 4.3137 14.186C4.5748 14.0462 4.78733 13.8337 5.21239 13.4086L11.1519 7.46913C9.7145 6.56444 8.49723 5.35551 7.58384 3.9344Z" fill="#AFAFAF"/>
</svg>
