<svg width="92" height="13" viewBox="0 0 92 13" fill="none" xmlns="http://www.w3.org/2000/svg">
<path d="M6.73643 0.157227L6.72806 7.01918C6.72806 8.25768 6.12555 8.96061 5.04604 8.96061C3.95817 8.96061 3.34729 8.25768 3.34729 7.01918V0.157227H0V6.80997C0 10.2409 1.9749 12.0234 5.04604 12.0234C8.10882 12.0234 10.0837 10.2409 10.0837 6.80997V0.157227H6.73643Z" fill="white"/>
<path d="M25.8675 4.46687C25.8675 1.93129 24.2357 0.157227 20.9972 0.157227H15.9846V11.8728H19.3319V8.76814H20.6457L22.4868 11.8728H25.8424L23.6332 8.24931C25.1227 7.54638 25.8675 6.18236 25.8675 4.46687ZM19.3236 6.12378V2.80159H20.6457C21.7922 2.80159 22.5202 3.52963 22.5202 4.46687C22.5202 5.40411 21.7838 6.12378 20.6457 6.12378H19.3236Z" fill="white"/>
<path d="M58.5858 0.157227L58.5774 7.01918C58.5774 8.25768 57.9749 8.96061 56.8954 8.96061C55.8075 8.96061 55.1967 8.25768 55.1967 7.01918V0.157227H51.8494V6.80997C51.8494 10.2409 53.8243 12.0234 56.8954 12.0234C59.9582 12.0234 61.9331 10.2409 61.9331 6.80997V0.157227H58.5858Z" fill="white"/>
<path d="M77.7169 4.46687C77.7169 1.93129 76.0851 0.157227 72.8466 0.157227H67.834V11.8728H71.1813V8.76814H72.4951L74.3361 11.8728H77.6918L75.4826 8.24931C76.9721 7.54638 77.7169 6.18236 77.7169 4.46687ZM71.1729 6.12378V2.80159H72.4951C73.6416 2.80159 74.3696 3.52963 74.3696 4.46687C74.3696 5.40411 73.6332 6.12378 72.4951 6.12378H71.1729Z" fill="white"/>
<path d="M83.3446 11.8728H91.0434V9.22839H86.6836L86.6919 0.157227H83.3446V11.8728Z" fill="white"/>
<path d="M33.0484 1.30172C33.0484 0.582801 33.6312 0 34.3502 0H42.71C43.429 0 44.0118 0.582802 44.0118 1.30173V10.8649C44.0118 11.9785 42.7042 12.5779 41.8605 11.8512L39.3796 9.71427C38.8914 9.29369 38.1688 9.29369 37.6805 9.71427L35.1997 11.8512C34.3559 12.5779 33.0484 11.9785 33.0484 10.8649V1.30172Z" fill="#F9B900"/>
</svg>
