<svg width="12" height="12" viewBox="0 0 12 12" fill="none" xmlns="http://www.w3.org/2000/svg">
<path fill-rule="evenodd" clip-rule="evenodd" d="M6 12C2.68629 12 0 9.31371 0 6C0 2.68629 2.68629 0 6 0C9.31371 0 12 2.68629 12 6C12 9.31371 9.31371 12 6 12ZM6 9.61527C6.4974 9.61527 6.9 9.21207 6.9 8.71527C6.9 8.21847 6.4974 7.81527 6 7.81527C5.5032 7.81527 5.1 8.21847 5.1 8.71527C5.1 9.21207 5.5032 9.61527 6 9.61527ZM6 2.4C5.66863 2.4 5.4 2.66863 5.4 3V6.6C5.4 6.93137 5.66863 7.2 6 7.2C6.33137 7.2 6.6 6.93137 6.6 6.6V3C6.6 2.66863 6.33137 2.4 6 2.4Z" fill="#505050"/>
</svg>
