<svg width="106" height="15" viewBox="0 0 106 15" fill="none" xmlns="http://www.w3.org/2000/svg">
<path d="M7.7728 0.564453L7.76315 8.48209C7.76315 9.91113 7.06794 10.7222 5.82236 10.7222C4.56712 10.7222 3.86226 9.91113 3.86226 8.48209V0.564453H0V8.2407C0 12.1995 2.27873 14.2562 5.82236 14.2562C9.35633 14.2562 11.6351 12.1995 11.6351 8.2407V0.564453H7.7728Z" fill="#222222"/>
<path d="M29.8471 5.53712C29.8471 2.61145 27.9643 0.564453 24.2275 0.564453H18.4438V14.0824H22.3061V10.5001H23.822L25.9463 14.0824H29.8182L27.2691 9.90147C28.9878 9.0904 29.8471 7.51653 29.8471 5.53712ZM22.2964 7.44894V3.61564H23.822C25.1448 3.61564 25.9849 4.45568 25.9849 5.53712C25.9849 6.61855 25.1352 7.44894 23.822 7.44894H22.2964Z" fill="#222222"/>
<path d="M67.5987 0.564453L67.589 8.48209C67.589 9.91113 66.8938 10.7222 65.6483 10.7222C64.393 10.7222 63.6882 9.91113 63.6882 8.48209V0.564453H59.8259V8.2407C59.8259 12.1995 62.1046 14.2562 65.6483 14.2562C69.1822 14.2562 71.461 12.1995 71.461 8.2407V0.564453H67.5987Z" fill="#222222"/>
<path d="M89.673 5.53712C89.673 2.61145 87.7902 0.564453 84.0534 0.564453H78.2697V14.0824H82.132V10.5001H83.6479L85.7721 14.0824H89.6441L87.095 9.90147C88.8137 9.0904 89.673 7.51653 89.673 5.53712ZM82.1223 7.44894V3.61564H83.6479C84.9707 3.61564 85.8108 4.45568 85.8108 5.53712C85.8108 6.61855 84.9611 7.44894 83.6479 7.44894H82.1223Z" fill="#222222"/>
<path d="M96.1666 14.0824H105.05V11.0312H100.019L100.029 0.564453H96.1666V14.0824Z" fill="#222222"/>
<path d="M38.132 1.8848C38.132 1.05528 38.8044 0.382812 39.6339 0.382812H49.28C50.1095 0.382812 50.7819 1.05528 50.7819 1.8848V12.9192C50.7819 14.2041 49.2733 14.8958 48.2997 14.0572L45.4372 11.5916C44.8738 11.1063 44.0401 11.1063 43.4767 11.5916L40.6142 14.0572C39.6406 14.8958 38.132 14.2041 38.132 12.9192V1.8848Z" fill="white"/>
</svg>
