<svg width="14" height="17" viewBox="0 0 14 17" fill="none" xmlns="http://www.w3.org/2000/svg">
<path fill-rule="evenodd" clip-rule="evenodd" d="M0.274461 5.62813C0 6.22487 0 6.90374 0 8.2615V12.5019C0 14.3875 0 15.3303 0.585786 15.9161C1.11733 16.4477 1.94285 16.4969 3.5 16.5014V11.502C3.5 10.3974 4.39543 9.50195 5.5 9.50195H8.5C9.60457 9.50195 10.5 10.3974 10.5 11.502V16.5014C12.0572 16.4969 12.8827 16.4477 13.4142 15.9161C14 15.3303 14 14.3875 14 12.5019V8.2615C14 6.90374 14 6.22487 13.7255 5.62813C13.4511 5.03139 12.9356 4.58958 11.9047 3.70596L10.9047 2.84882C9.04143 1.25169 8.10977 0.453125 7 0.453125C5.89023 0.453125 4.95857 1.25169 3.09525 2.84882L2.09525 3.70596C1.06437 4.58958 0.548923 5.03139 0.274461 5.62813ZM8.5 16.5019V11.502H5.5V16.5019H8.5Z" fill="white"/>
</svg>
