<svg width="21" height="21" viewBox="0 0 21 21" fill="none" xmlns="http://www.w3.org/2000/svg">
<path fill-rule="evenodd" clip-rule="evenodd" d="M10.8226 20.2334C5.29978 20.2334 0.822632 15.7562 0.822632 10.2334C0.822632 4.71055 5.29978 0.233398 10.8226 0.233398C16.3455 0.233398 20.8226 4.71055 20.8226 10.2334C20.8226 15.7562 16.3455 20.2334 10.8226 20.2334ZM10.8226 16.2588C11.6516 16.2588 12.3226 15.5868 12.3226 14.7588C12.3226 13.9308 11.6516 13.2588 10.8226 13.2588C9.99463 13.2588 9.32263 13.9308 9.32263 14.7588C9.32263 15.5868 9.99463 16.2588 10.8226 16.2588ZM10.8226 4.2334C10.2703 4.2334 9.82263 4.68111 9.82263 5.2334V11.2334C9.82263 11.7857 10.2703 12.2334 10.8226 12.2334C11.3749 12.2334 11.8226 11.7857 11.8226 11.2334V5.2334C11.8226 4.68111 11.3749 4.2334 10.8226 4.2334Z" fill="#AFAFAF"/>
</svg>
