<svg width="15" height="15" viewBox="0 0 15 15" fill="none" xmlns="http://www.w3.org/2000/svg">
<path d="M2.49805 8.00282C2.49805 6.8819 2.49805 6.32145 2.84627 5.97322C3.19449 5.625 3.75495 5.625 4.87587 5.625H10.1202C11.2411 5.625 11.8016 5.625 12.1498 5.97322C12.498 6.32145 12.498 6.8819 12.498 8.00282V9.55827C12.498 11.2396 12.498 12.0803 11.9757 12.6027C11.4534 13.125 10.6127 13.125 8.93132 13.125H6.06478C4.3834 13.125 3.54272 13.125 3.02038 12.6027C2.49805 12.0803 2.49805 11.2396 2.49805 9.55827V8.00282Z" stroke="#505050" stroke-width="1.18891"/>
<path d="M9.99805 5V4.375C9.99805 2.99429 8.87876 1.875 7.49805 1.875V1.875C6.11734 1.875 4.99805 2.99429 4.99805 4.375V5" stroke="#505050" stroke-width="1.18891" stroke-linecap="round"/>
<circle cx="7.49805" cy="9.375" r="1.25" fill="#505050"/>
</svg>
