<svg width="103" height="14" viewBox="0 0 103 14" fill="none" xmlns="http://www.w3.org/2000/svg">
<path d="M8.25227 0.53125L8.24286 8.13307C8.24286 9.50511 7.56571 10.2838 6.35248 10.2838C5.12985 10.2838 4.44329 9.50511 4.44329 8.13307V0.53125H0.681335V7.90131C0.681335 11.7022 2.90089 13.6768 6.35248 13.6768C9.79467 13.6768 12.0142 11.7022 12.0142 7.90131V0.53125H8.25227Z" fill="#222222"/>
<path d="M29.7533 5.30556C29.7533 2.4966 27.9194 0.53125 24.2797 0.53125H18.6461V13.51H22.4081V10.0706H23.8847L25.9537 13.51H29.7251L27.2422 9.49584C28.9163 8.71711 29.7533 7.20602 29.7533 5.30556ZM22.3987 7.14113V3.46073H23.8847C25.1731 3.46073 25.9914 4.26727 25.9914 5.30556C25.9914 6.34386 25.1637 7.14113 23.8847 7.14113H22.3987Z" fill="#222222"/>
<path d="M66.3421 0.53125L66.3328 8.13307C66.3328 9.50511 65.6605 10.2838 64.4559 10.2838C63.242 10.2838 62.5604 9.50511 62.5604 8.13307V0.53125H58.8253V7.90131C58.8253 11.7022 61.029 13.6768 64.4559 13.6768C67.8735 13.6768 70.0772 11.7022 70.0772 7.90131V0.53125H66.3421Z" fill="#222222"/>
<path d="M87.6894 5.30556C87.6894 2.4966 85.8685 0.53125 82.2549 0.53125H76.6616V13.51H80.3967V10.0706H81.8627L83.917 13.51H87.6614L85.1962 9.49584C86.8583 8.71711 87.6894 7.20602 87.6894 5.30556ZM80.3873 7.14113V3.46073H81.8627C83.1419 3.46073 83.9543 4.26727 83.9543 5.30556C83.9543 6.34386 83.1326 7.14113 81.8627 7.14113H80.3873Z" fill="#222222"/>
<path d="M93.9691 13.51H102.56V10.5805H97.6948L97.7041 0.53125H93.9691V13.51Z" fill="#222222"/>
<path d="M37.59 1.7376C37.59 0.931124 38.2485 0.277344 39.0608 0.277344H48.5064C49.3187 0.277344 49.9772 0.931126 49.9772 1.73761V12.4654C49.9772 13.7147 48.4999 14.3871 47.5465 13.5719L44.7435 11.1747C44.1918 10.7029 43.3754 10.7029 42.8237 11.1747L40.0207 13.5719C39.0673 14.3871 37.59 13.7147 37.59 12.4654V1.7376Z" fill="#F9B900"/>
</svg>
