<svg width="129" height="34" viewBox="0 0 129 34" fill="none" xmlns="http://www.w3.org/2000/svg">
<path d="M75.4506 21.5683L76.1726 20.6732L76.1726 20.6732L75.4506 21.5683ZM71.6863 21.5683L70.9643 20.6732H70.9643L71.6863 21.5683ZM71.172 21.9831L71.894 22.8782L71.894 22.8782L71.172 21.9831ZM75.9648 21.9831L75.2428 22.8782L75.2428 22.8782L75.9648 21.9831ZM72.0452 11.2594H75.0916V8.95938H72.0452V11.2594ZM78.5112 14.8005V20.1387H80.8112V14.8005H78.5112ZM68.6256 20.1387V14.8005H66.3256V20.1387H68.6256ZM76.6868 21.088L76.1726 20.6732L74.7286 22.4634L75.2428 22.8782L76.6868 21.088ZM70.9643 20.6732L70.45 21.088L71.894 22.8782L72.4083 22.4634L70.9643 20.6732ZM76.1726 20.6732C75.743 20.3267 75.3418 20.0006 74.9774 19.773C74.587 19.5291 74.1285 19.3251 73.5684 19.3251V21.6251C73.5352 21.6251 73.566 21.6032 73.759 21.7238C73.9781 21.8606 74.2546 22.0811 74.7286 22.4634L76.1726 20.6732ZM72.4083 22.4634C72.8822 22.0811 73.1587 21.8606 73.3778 21.7238C73.5709 21.6032 73.6017 21.6251 73.5684 21.6251V19.3251C73.0083 19.3251 72.5499 19.5291 72.1594 19.773C71.795 20.0006 71.3939 20.3267 70.9643 20.6732L72.4083 22.4634ZM66.3256 20.1387C66.3256 21.1496 66.3227 22.0358 66.4174 22.7011C66.5092 23.3455 66.7464 24.207 67.6052 24.6355L68.632 22.5775C68.8478 22.6851 68.7635 22.8617 68.6945 22.3769C68.6284 21.913 68.6256 21.2258 68.6256 20.1387H66.3256ZM70.45 21.088C69.6157 21.761 69.0915 22.1798 68.7002 22.4102C68.2958 22.6484 68.4027 22.463 68.632 22.5775L67.6052 24.6355C68.4775 25.0708 69.3077 24.7217 69.8674 24.3921C70.4404 24.0547 71.1214 23.5014 71.894 22.8782L70.45 21.088ZM78.5112 20.1387C78.5112 21.2258 78.5084 21.913 78.4423 22.3769C78.3733 22.8617 78.2891 22.6851 78.5048 22.5775L79.5317 24.6355C80.3904 24.207 80.6276 23.3455 80.7194 22.7011C80.8141 22.0358 80.8112 21.1496 80.8112 20.1387H78.5112ZM75.2428 22.8782C76.0154 23.5014 76.6965 24.0547 77.2694 24.3921C77.8292 24.7217 78.6593 25.0708 79.5317 24.6355L78.5048 22.5775C78.7342 22.463 78.8411 22.6484 78.4366 22.4102C78.0453 22.1798 77.5212 21.761 76.6868 21.088L75.2428 22.8782ZM75.0916 11.2594C76.202 11.2594 76.9161 11.2619 77.4414 11.3345C77.9305 11.402 78.0816 11.5099 78.1683 11.5988L79.8158 9.99394C79.2332 9.39588 78.5112 9.1603 77.7559 9.05605C77.0369 8.9568 76.1353 8.95938 75.0916 8.95938V11.2594ZM80.8112 14.8005C80.8112 13.7265 80.8136 12.8082 80.7179 12.0775C80.6182 11.3166 80.3943 10.5878 79.8158 9.99394L78.1683 11.5988C78.259 11.692 78.3697 11.8595 78.4373 12.3761C78.5089 12.9228 78.5112 13.6631 78.5112 14.8005H80.8112ZM72.0452 8.95938C71.0015 8.95938 70.1 8.9568 69.3809 9.05605C68.6256 9.1603 67.9036 9.39588 67.321 9.99394L68.9686 11.5988C69.0552 11.5099 69.2063 11.402 69.6954 11.3345C70.2207 11.2619 70.9348 11.2594 72.0452 11.2594V8.95938ZM68.6256 14.8005C68.6256 13.6631 68.6279 12.9228 68.6995 12.3761C68.7672 11.8595 68.8778 11.692 68.9686 11.5988L67.321 9.99394C66.7426 10.5878 66.5186 11.3166 66.419 12.0775C66.3233 12.8082 66.3256 13.7265 66.3256 14.8005H68.6256Z" fill="white"/>
<path d="M0.365234 9.49219L6.05859 19.7832V25.0469H9.71094V19.7832L15.3828 9.49219H11.3008L7.94922 16.0234H7.82031L4.46875 9.49219H0.365234ZM30.5391 17.2695C30.5498 12.1348 27.3164 9.27734 23.1484 9.27734C18.959 9.27734 15.7578 12.1348 15.7578 17.2695C15.7578 22.3721 18.959 25.2617 23.1484 25.2617C27.3164 25.2617 30.5498 22.3936 30.5391 17.2695ZM19.4961 17.2695C19.4961 14.1758 20.8818 12.4893 23.1484 12.5C25.4258 12.4893 26.8115 14.1758 26.8008 17.2695C26.8115 20.3633 25.4258 22.0391 23.1484 22.0391C20.8818 22.0391 19.4961 20.3633 19.4961 17.2695ZM42.1406 9.49219V19.2246C42.1514 20.8682 40.9805 22.0605 39.2617 22.0605C37.5322 22.0605 36.3613 20.8682 36.3613 19.2246V9.49219H32.709V19.5254C32.709 23.0059 35.3193 25.251 39.2617 25.2617C43.1719 25.251 45.8145 23.0059 45.8145 19.5254V9.49219H42.1406ZM48.1777 25.0469H51.8301V19.6973H53.8711L56.7285 25.0469H60.7461L57.4912 19.1064C59.21 18.3223 60.1982 16.7969 60.1875 14.6484C60.1982 11.4795 58.0391 9.49219 54.5371 9.49219H48.1777V25.0469ZM51.8301 16.7754V12.457H53.7637C55.4932 12.457 56.4062 13.1875 56.4062 14.6484C56.4062 16.1094 55.4932 16.7861 53.7637 16.7754H51.8301ZM97.0332 9.49219V19.2246C97.0439 20.8682 95.873 22.0605 94.1543 22.0605C92.4248 22.0605 91.2539 20.8682 91.2539 19.2246V9.49219H87.6016V19.5254C87.6016 23.0059 90.2119 25.251 94.1543 25.2617C98.0645 25.251 100.707 23.0059 100.707 19.5254V9.49219H97.0332ZM103.07 25.0469H106.723V19.6973H108.764L111.621 25.0469H115.639L112.384 19.1064C114.103 18.3223 115.091 16.7969 115.08 14.6484C115.091 11.4795 112.932 9.49219 109.43 9.49219H103.07V25.0469ZM106.723 16.7754V12.457H108.656C110.386 12.457 111.299 13.1875 111.299 14.6484C111.299 16.1094 110.386 16.7861 108.656 16.7754H106.723ZM117.143 25.0469H127.326V22.0605H120.795V9.49219H117.143V25.0469Z" fill="#40403F"/>
</svg>
