<svg width="17" height="17" viewBox="0 0 17 17" fill="none" xmlns="http://www.w3.org/2000/svg">
<g clip-path="url(#clip0_396_2712)">
<path d="M3.68654 1.87332H7.33291C7.80472 1.87332 8.18735 1.47267 8.18735 0.97865C8.18735 0.484632 7.80472 0.0839844 7.33291 0.0839844H3.04936C1.91767 0.085682 1 1.04656 1 2.23152V13.2205C1 14.4037 1.91767 15.3646 3.04936 15.3646H7.33453C7.80634 15.3646 8.18897 14.964 8.18897 14.4699C8.18897 13.9759 7.80634 13.5753 7.33453 13.5753H3.68816C3.14664 13.5753 2.70726 13.1152 2.70726 12.5482V2.8987C2.70726 2.33338 3.14664 1.87332 3.68654 1.87332Z" fill="#707070"/>
<path d="M7.46569 9.50409C8.72126 9.50458 9.73885 10.5226 9.73885 11.7781C9.73885 12.1262 10.1101 12.3316 10.3841 12.1363L16.0993 8.08404C16.3409 7.91258 16.3409 7.53909 16.0993 7.36593L10.3841 3.31362C10.1101 3.11839 9.73885 3.32551 9.73885 3.67183C9.73885 4.92726 8.72112 5.94499 7.46569 5.94499H5.42125C5.19264 5.94499 5.00781 6.13853 5.00781 6.3779V9.07038C5.00781 9.30975 5.19264 9.50328 5.42125 9.50328L7.46569 9.50409Z" fill="#707070"/>
</g>
<defs>
<clipPath id="clip0_396_2712">
<rect width="16" height="16" fill="white" transform="translate(0.615234 0.0839844)"/>
</clipPath>
</defs>
</svg>
