<svg width="115" height="16" viewBox="0 0 115 16" fill="none" xmlns="http://www.w3.org/2000/svg">
<path d="M8.5223 0.199219L8.51176 8.84252C8.51176 10.4025 7.75283 11.2879 6.3931 11.2879C5.02282 11.2879 4.25335 10.4025 4.25335 8.84252V0.199219H0.0371094V8.579C0.0371094 12.9007 2.52469 15.1458 6.3931 15.1458C10.251 15.1458 12.7385 12.9007 12.7385 8.579V0.199219H8.5223Z" fill="#222222"/>
<path d="M32.6198 5.62763C32.6198 2.43383 30.5644 0.199219 26.4851 0.199219H20.1713V14.9561H24.3876V11.0455H26.0424L28.3614 14.9561H32.5882L29.8054 10.392C31.6817 9.50658 32.6198 7.78846 32.6198 5.62763ZM24.377 7.71467V3.53005H26.0424C27.4865 3.53005 28.4035 4.44708 28.4035 5.62763C28.4035 6.80818 27.476 7.71467 26.0424 7.71467H24.377Z" fill="#222222"/>
<path d="M73.8309 0.199219L73.8204 8.84252C73.8204 10.4025 73.0614 11.2879 71.7017 11.2879C70.3314 11.2879 69.5619 10.4025 69.5619 8.84252V0.199219H65.3457V8.579C65.3457 12.9007 67.8333 15.1458 71.7017 15.1458C75.5596 15.1458 78.0471 12.9007 78.0471 8.579V0.199219H73.8309Z" fill="#222222"/>
<path d="M97.9284 5.62763C97.9284 2.43383 95.8729 0.199219 91.7937 0.199219H85.4799V14.9561H89.6962V11.0455H91.351L93.67 14.9561H97.8967L95.114 10.392C96.9903 9.50658 97.9284 7.78846 97.9284 5.62763ZM89.6856 7.71467V3.53005H91.351C92.7951 3.53005 93.7121 4.44708 93.7121 5.62763C93.7121 6.80818 92.7846 7.71467 91.351 7.71467H89.6856Z" fill="#222222"/>
<path d="M105.017 14.9561H114.714V11.6252H109.223L109.233 0.199219H105.017V14.9561Z" fill="#222222"/>
<path d="M41.6641 1.63965C41.6641 0.734095 42.3982 0 43.3037 0H53.8338C54.7393 0 55.4734 0.734096 55.4734 1.63965V13.6854C55.4734 15.0881 53.8265 15.8431 52.7637 14.9277L49.6388 12.2361C49.0238 11.7063 48.1137 11.7063 47.4987 12.2361L44.3738 14.9277C43.311 15.8431 41.6641 15.0881 41.6641 13.6854V1.63965Z" fill="#F9B900"/>
</svg>
