<svg width="425" height="221" viewBox="0 0 425 221" fill="none" xmlns="http://www.w3.org/2000/svg">
<rect width="425" height="220.524" fill="#D3D3D3"/>
<path d="M148.667 106.783L148.653 118.158C148.653 120.211 147.654 121.377 145.865 121.377C144.061 121.377 143.049 120.211 143.049 118.158V106.783H137.5V117.812C137.5 123.499 140.774 126.454 145.865 126.454C150.942 126.454 154.216 123.499 154.216 117.812V106.783H148.667Z" fill="#222222" fill-opacity="0.3"/>
<path d="M180.38 113.928C180.38 109.724 177.675 106.783 172.307 106.783H163.998V126.204H169.546V121.058H171.724L174.776 126.204H180.339L176.677 120.198C179.146 119.032 180.38 116.771 180.38 113.928ZM169.532 116.674V111.167H171.724C173.625 111.167 174.832 112.374 174.832 113.928C174.832 115.481 173.611 116.674 171.724 116.674H169.532Z" fill="#222222" fill-opacity="0.3"/>
<path d="M234.617 106.783L234.603 118.158C234.603 120.211 233.604 121.377 231.815 121.377C230.011 121.377 228.999 120.211 228.999 118.158V106.783H223.45V117.812C223.45 123.499 226.724 126.454 231.815 126.454C236.892 126.454 240.166 123.499 240.166 117.812V106.783H234.617Z" fill="#222222" fill-opacity="0.3"/>
<path d="M266.33 113.928C266.33 109.724 263.625 106.783 258.257 106.783H249.948V126.204H255.496V121.058H257.674L260.726 126.204H266.289L262.627 120.198C265.096 119.032 266.33 116.771 266.33 113.928ZM255.482 116.674V111.167H257.674C259.575 111.167 260.782 112.374 260.782 113.928C260.782 115.481 259.561 116.674 257.674 116.674H255.482Z" fill="#222222" fill-opacity="0.3"/>
<path d="M275.659 126.204H288.422V121.821H281.194L281.208 106.783H275.659V126.204Z" fill="#222222" fill-opacity="0.3"/>
<path d="M192.283 108.68C192.283 107.489 193.249 106.522 194.441 106.522H208.299C209.491 106.522 210.457 107.489 210.457 108.68V124.533C210.457 126.379 208.289 127.373 206.891 126.168L202.778 122.626C201.969 121.929 200.771 121.929 199.962 122.626L195.849 126.168C194.45 127.373 192.283 126.379 192.283 124.533V108.68Z" fill="white"/>
</svg>
