<svg width="70" height="72" viewBox="0 0 70 72" fill="none" xmlns="http://www.w3.org/2000/svg">
<path d="M20.4752 8.90999C20.7188 11.068 20.3469 13.7224 19.4542 15.8545C18.5257 18.072 17.2804 19.2042 16.0954 19.3392C14.7576 19.4916 12.768 18.5865 10.8834 16.7113C9.04694 14.8839 7.73493 12.5428 7.51321 10.579C7.05813 6.54825 9.57163 3.75028 12.788 3.3839C16.2992 2.98395 20.051 5.15282 20.4752 8.90999Z" fill="white" stroke="#222222" stroke-width="3.11902"/>
<path d="M52.8361 8.90999C52.5925 11.068 52.9643 13.7224 53.8571 15.8545C54.7856 18.072 56.0309 19.2042 57.2159 19.3392C58.5537 19.4916 60.5433 18.5865 62.4279 16.7113C64.2643 14.8839 65.5764 12.5428 65.7981 10.579C66.2531 6.54825 63.7397 3.75028 60.5233 3.3839C57.0121 2.98395 53.2603 5.15282 52.8361 8.90999Z" fill="white" stroke="#222222" stroke-width="3.11902"/>
<path d="M11.6333 9.20703C14.8341 10.6684 16.549 14.3044 15.8843 18.1317" stroke="#222222" stroke-width="2.05643" stroke-linecap="round"/>
<path d="M62.0038 9.92188C59.2693 10.8585 56.6958 15.6838 56.7081 17.5579" stroke="#222222" stroke-width="2.05643" stroke-linecap="round"/>
<mask id="path-5-inside-1_1238_4337" fill="white">
<path d="M70 40.5957C70 57.8643 59.4128 71.8633 35 71.8633C10.5872 71.8633 0 57.8643 0 40.5957C0 19.9319 18.5769 13.2705 35 13.2705C50.3462 13.2705 70 18.5724 70 40.5957Z"/>
</mask>
<path d="M70 40.5957C70 57.8643 59.4128 71.8633 35 71.8633C10.5872 71.8633 0 57.8643 0 40.5957C0 19.9319 18.5769 13.2705 35 13.2705C50.3462 13.2705 70 18.5724 70 40.5957Z" fill="white"/>
<path d="M35 13.2705V16.3895V13.2705ZM66.881 40.5957C66.881 48.5999 64.4371 55.547 59.4571 60.4919C54.4861 65.4281 46.6093 68.7442 35 68.7442V74.9823C47.8035 74.9823 57.4268 71.299 63.8525 64.9184C70.2693 58.5467 73.119 49.86 73.119 40.5957H66.881ZM35 68.7442C23.3907 68.7442 15.514 65.4281 10.5429 60.4919C5.56294 55.547 3.11902 48.5999 3.11902 40.5957H-3.11902C-3.11902 49.86 -0.269345 58.5467 6.14751 64.9184C12.5732 71.299 22.1965 74.9823 35 74.9823V68.7442ZM3.11902 40.5957C3.11902 31.3895 7.16698 25.5258 13.0121 21.818C19.0338 17.9981 27.1302 16.3895 35 16.3895V10.1515C26.4467 10.1515 17.0431 11.8736 9.6706 16.5504C2.12148 21.3391 -3.11902 29.1381 -3.11902 40.5957H3.11902ZM35 16.3895C42.4067 16.3895 50.511 17.684 56.656 21.3525C62.5814 24.8898 66.881 30.7239 66.881 40.5957H73.119C73.119 28.4441 67.5917 20.6157 59.8536 15.9963C52.3352 11.508 42.9394 10.1515 35 10.1515V16.3895Z" fill="#222222" mask="url(#path-5-inside-1_1238_4337)"/>
<path d="M35.6327 15.3389C34.9548 17.8112 34.0618 20.3618 33.713 22.9172C33.6284 23.5366 33.6288 24.1689 33.4784 24.7733" stroke="#222222" stroke-width="3.42738" stroke-linecap="round"/>
<path d="M43.6228 15.6846C43.0459 17.5324 42.2223 19.2857 41.6791 21.1471C41.5752 21.5031 41.5861 22.0422 41.3823 22.3493" stroke="#222222" stroke-width="2.74191" stroke-linecap="round"/>
<path d="M27.4356 15.9443C27.1972 17.6503 27.1055 19.4015 26.7941 21.0943C26.705 21.5788 26.66 22.0323 26.66 22.5225" stroke="#222222" stroke-width="2.74191" stroke-linecap="round"/>
<ellipse cx="24.7291" cy="42.0998" rx="2.31879" ry="2.11736" fill="#222222"/>
<ellipse cx="43.7011" cy="42.0998" rx="2.31879" ry="2.11736" fill="#222222"/>
<path d="M27.8909 49.619C28.4786 50.3081 29.2805 51.0472 30.2275 51.1477C30.4798 51.1745 30.7399 51.2023 30.9936 51.2023C31.5415 51.2023 32.0352 51.0353 32.5052 50.7563C33.5534 50.1341 34.2434 49.0957 34.2434 47.8643" stroke="#222222" stroke-width="2.10554" stroke-linecap="round"/>
<path d="M40.8107 49.783C40.223 50.4721 39.421 51.2112 38.4741 51.3117C38.2217 51.3385 37.9616 51.3664 37.7079 51.3664C37.16 51.3664 36.6663 51.1993 36.1963 50.9203C35.1481 50.2982 34.2473 49.2598 34.2473 48.0283" stroke="#222222" stroke-width="2.10554" stroke-linecap="round"/>
<path d="M36.9875 46.0882C36.9875 47.6547 36.1443 48.4518 34.4579 48.4518C32.5607 48.4518 31.9283 47.6547 31.9283 46.0882C31.9283 44.5218 33.2985 43.3701 34.4579 43.3701C35.6173 43.3701 36.9875 44.5218 36.9875 46.0882Z" fill="#222222"/>
<path d="M46.9166 54.9487C45.0956 52.4162 45.5142 47.4032 46.0186 45.1621C48.0374 46.2595 51.2089 48.2229 52.576 49.779C54.2848 51.7242 54.329 55.2318 52.3866 56.2362C51.2679 56.8146 48.8754 57.6729 46.9166 54.9487Z" fill="url(#paint0_linear_1238_4337)"/>
<defs>
<linearGradient id="paint0_linear_1238_4337" x1="53.1047" y1="56.3408" x2="43.2735" y2="51.6052" gradientUnits="userSpaceOnUse">
<stop stop-color="#4A6CE6"/>
<stop offset="1" stop-color="#5ABAFF"/>
</linearGradient>
</defs>
</svg>
