<svg width="35" height="35" viewBox="0 0 35 35" fill="none" xmlns="http://www.w3.org/2000/svg">
<circle cx="17.5" cy="17.5" r="17.5" fill="black" fill-opacity="0.5"/>
<path d="M11.1641 18.1369C11.1641 16.7171 11.1641 16.0072 11.6051 15.5661C12.0462 15.125 12.7561 15.125 14.176 15.125H20.8188C22.2387 15.125 22.9486 15.125 23.3896 15.5661C23.8307 16.0072 23.8307 16.7171 23.8307 18.1369V20.1071C23.8307 22.2369 23.8307 23.3018 23.1691 23.9634C22.5075 24.625 21.4426 24.625 19.3129 24.625H15.6819C13.5522 24.625 12.4873 24.625 11.8257 23.9634C11.1641 23.3018 11.1641 22.2369 11.1641 20.1071V18.1369Z" stroke="white" stroke-width="1.50595"/>
<path d="M20.6634 14.3333V13.5417C20.6634 11.7928 19.2456 10.375 17.4967 10.375V10.375C15.7478 10.375 14.3301 11.7928 14.3301 13.5417V14.3333" stroke="white" stroke-width="1.50595" stroke-linecap="round"/>
<circle cx="17.4974" cy="19.8763" r="1.58333" fill="white"/>
</svg>
