<svg width="15" height="15" viewBox="0 0 15 15" fill="none" xmlns="http://www.w3.org/2000/svg">
<path fill-rule="evenodd" clip-rule="evenodd" d="M0.375 7.5C0.375 3.56497 3.56497 0.375 7.5 0.375C11.435 0.375 14.625 3.56497 14.625 7.5C14.625 11.435 11.435 14.625 7.5 14.625C3.56497 14.625 0.375 11.435 0.375 7.5ZM6.70833 10.6667C6.70833 10.2294 7.06277 9.875 7.5 9.875C7.93723 9.875 8.29167 10.2294 8.29167 10.6667C8.29167 11.1039 7.93723 11.4583 7.5 11.4583C7.06277 11.4583 6.70833 11.1039 6.70833 10.6667ZM6.70833 3.54167V8.29167H8.29167V3.54167H6.70833Z" fill="#E54949"/>
</svg>
