<svg width="13" height="13" viewBox="0 0 13 13" fill="none" xmlns="http://www.w3.org/2000/svg">
<path d="M2.57617 7.42996C2.57617 6.41035 2.57617 5.90055 2.83156 5.54057C2.92171 5.41351 3.03265 5.30257 3.15971 5.21242C3.51969 4.95703 4.02949 4.95703 5.0491 4.95703H8.34635C9.36596 4.95703 9.87576 4.95703 10.2357 5.21242C10.3628 5.30257 10.4737 5.41351 10.5639 5.54057C10.8193 5.90055 10.8193 6.41035 10.8193 7.42996V7.42996C10.8193 8.95938 10.8193 9.72409 10.4362 10.264C10.301 10.4546 10.1346 10.6211 9.94397 10.7563C9.404 11.1394 8.6393 11.1394 7.10988 11.1394H6.28557C4.75615 11.1394 3.99145 11.1394 3.45148 10.7563C3.26089 10.6211 3.09448 10.4546 2.95926 10.264C2.57617 9.72409 2.57617 8.95938 2.57617 7.42996V7.42996Z" stroke="white" stroke-width="1.03039"/>
<path d="M8.75827 4.43925V3.92406C8.75827 2.78592 7.83563 1.86328 6.6975 1.86328V1.86328C5.55936 1.86328 4.63672 2.78592 4.63672 3.92406V4.43925" stroke="white" stroke-width="1.03039" stroke-linecap="round"/>
<circle cx="6.69836" cy="8.04601" r="1.03039" fill="white"/>
</svg>
