<svg width="20" height="20" viewBox="0 0 20 20" fill="none" xmlns="http://www.w3.org/2000/svg">
<path fill-rule="evenodd" clip-rule="evenodd" d="M10 20C4.47715 20 0 15.5228 0 10C0 4.47715 4.47715 0 10 0C15.5228 0 20 4.47715 20 10C20 15.5228 15.5228 20 10 20ZM10 16.0254C10.829 16.0254 11.5 15.3534 11.5 14.5254C11.5 13.6974 10.829 13.0254 10 13.0254C9.172 13.0254 8.5 13.6974 8.5 14.5254C8.5 15.3534 9.172 16.0254 10 16.0254ZM10 4C9.44772 4 9 4.44772 9 5V11C9 11.5523 9.44772 12 10 12C10.5523 12 11 11.5523 11 11V5C11 4.44772 10.5523 4 10 4Z" fill="#AFAFAF"/>
</svg>
