<svg width="74" height="21" viewBox="0 0 74 21" fill="none" xmlns="http://www.w3.org/2000/svg">
<path d="M48.4126 16.2316C50.9599 16.2316 52.8456 14.7098 52.8456 12.2121V4.42118H50.5629V12.0301C50.5629 13.1549 49.9674 13.9985 48.4126 13.9985C46.8577 13.9985 46.2622 13.1549 46.2622 12.0301V4.42118H43.9961V12.2121C43.9961 14.7098 45.8818 16.2316 48.4126 16.2316ZM62.0809 16H64.5455L61.9816 11.6331C63.3049 11.0211 64.2147 9.71435 64.2147 8.25873C64.2147 6.14146 62.4944 4.42118 60.3606 4.42118H55.729V16H58.0117V11.9805H59.7486L62.0809 16ZM58.0117 6.55499H60.3606C61.2207 6.55499 61.932 7.29934 61.932 8.25873C61.932 9.21812 61.2207 9.97901 60.3606 9.97901H58.0117V6.55499ZM68.9993 13.8166V4.42118H66.7167V16H73.4158V13.8166H68.9993Z" fill="#40403F"/>
<path d="M5.81292 16.4308C8.36027 16.4308 10.246 14.909 10.246 12.4113V4.62039H7.96328V12.2293C7.96328 13.3541 7.36779 14.1977 5.81292 14.1977C4.25805 14.1977 3.66257 13.3541 3.66257 12.2293V4.62039H1.39643V12.4113C1.39643 14.909 3.28212 16.4308 5.81292 16.4308ZM19.4812 16.1992H21.9459L19.382 11.8323C20.7053 11.2203 21.615 9.91357 21.615 8.45795C21.615 6.34068 19.8948 4.62039 17.761 4.62039H13.1294V16.1992H15.4121V12.1797H17.1489L19.4812 16.1992ZM15.4121 6.75421H17.761C18.6211 6.75421 19.3324 7.49856 19.3324 8.45795C19.3324 9.41734 18.6211 10.1782 17.761 10.1782H15.4121V6.75421Z" fill="#40403F"/>
<path d="M36.8094 15.7641L32.6464 13.4516L28.4844 15.7641V5.12656C28.4844 5.0039 28.5331 4.88626 28.6198 4.79953C28.7066 4.71279 28.8242 4.66406 28.9469 4.66406H36.3469C36.4695 4.66406 36.5872 4.71279 36.6739 4.79953C36.7606 4.88626 36.8094 5.0039 36.8094 5.12656V15.7641Z" stroke="#F9B900" stroke-width="2.17647" stroke-linecap="round" stroke-linejoin="round"/>
<path d="M25.2461 2.8125V2.46426H24.8979V2.8125H25.2461ZM40.0461 2.8125H40.3943V2.46426H40.0461V2.8125ZM40.0461 17.6125V17.9607H40.3943V17.6125H40.0461ZM25.2461 17.6125H24.8979V17.9607H25.2461V17.6125ZM25.2461 3.16074H40.0461V2.46426H25.2461V3.16074ZM39.6979 2.8125V17.6125H40.3943V2.8125H39.6979ZM40.0461 17.2643H25.2461V17.9607H40.0461V17.2643ZM25.5943 17.6125V2.8125H24.8979V17.6125H25.5943Z" fill="white"/>
</svg>
