<svg width="43" height="48" viewBox="0 0 43 48"  xmlns="http://www.w3.org/2000/svg">
<path fill-rule="evenodd" clip-rule="evenodd" d="M16.3042 8.79079e-08H16.2465C12.6213 -8.25674e-06 9.82553 -1.4694e-05 7.65432 0.29966C5.44901 0.604041 3.78194 1.22968 2.48604 2.56004C1.1927 3.88777 0.586719 5.59145 0.29141 7.84633C-1.23196e-05 10.0715 -6.89559e-06 12.9385 1.37763e-07 16.6637V16.7187V34.9279V34.994C-1.08891e-05 38.5164 -1.9353e-05 41.2403 0.28133 43.2166C0.562589 45.1922 1.15859 46.6838 2.5901 47.3981C4.0301 48.1166 5.5556 47.671 7.24851 46.674C8.9385 45.6787 11.0265 43.9944 13.7222 41.8201L13.7755 41.7771L15.5297 40.3621C17.0846 39.1079 18.2016 38.2085 19.1514 37.6153C20.0851 37.0322 20.7864 36.7919 21.5 36.7919C22.2136 36.7919 22.9149 37.0322 23.8486 37.6153C24.7984 38.2085 25.9154 39.1079 27.4702 40.3621L29.2245 41.7771L29.2779 41.8201C31.9735 43.9945 34.0615 45.6787 35.7515 46.674C37.4444 47.671 38.9699 48.1166 40.4099 47.3981C41.8414 46.6838 42.4374 45.1922 42.7187 43.2166C43 41.2403 43 38.5164 43 34.994V34.9279V16.7187V16.6636C43 12.9385 43 10.0715 42.7086 7.84633C42.4133 5.59145 41.8073 3.88777 40.514 2.56004C39.2181 1.22968 37.551 0.604041 35.3457 0.29966C33.1745 -1.4694e-05 30.3787 -8.25674e-06 26.7535 8.79079e-08H26.6958H16.3042ZM3.51277 3.56017C4.49961 2.54709 5.8109 2.00101 7.85029 1.71953C9.91226 1.43494 12.6094 1.43333 16.3042 1.43333H26.6958C30.3906 1.43333 33.0877 1.43494 35.1497 1.71953C37.1891 2.00101 38.5004 2.54709 39.4872 3.56017C40.4766 4.57588 41.012 5.92978 41.2874 8.03246C41.5652 10.1539 41.5667 12.9272 41.5667 16.7187V34.9279C41.5667 38.5298 41.5649 41.1514 41.2996 43.0146C41.0326 44.8907 40.5319 45.7354 39.77 46.1156C39.0166 46.4915 38.075 46.3789 36.4789 45.4389C34.8909 44.5037 32.8843 42.8876 30.1244 40.6614L28.3701 39.2464L28.3328 39.2163L28.3327 39.2162C26.8234 37.9988 25.6398 37.0441 24.6078 36.3996C23.5512 35.7397 22.5834 35.3585 21.5 35.3585C20.4166 35.3585 19.4488 35.7397 18.3922 36.3996C17.3602 37.0441 16.1766 37.9988 14.6672 39.2163L14.6299 39.2464L12.8756 40.6614C10.1157 42.8876 8.10906 44.5037 6.52113 45.4389C4.925 46.3789 3.98345 46.4915 3.23004 46.1156C2.46814 45.7354 1.96745 44.8907 1.70036 43.0146C1.43511 41.1514 1.43333 38.5298 1.43333 34.9279V16.7187C1.43333 12.9272 1.43478 10.1539 1.71261 8.03246C1.98798 5.92978 2.52337 4.57588 3.51277 3.56017ZM22.0068 13.541C22.1412 13.6754 22.2167 13.8577 22.2167 14.0478V20.4978H28.6667C28.8567 20.4978 29.039 20.5733 29.1734 20.7077C29.3078 20.8421 29.3833 21.0244 29.3833 21.2145C29.3833 21.4045 29.3078 21.5868 29.1734 21.7212C29.039 21.8556 28.8567 21.9311 28.6667 21.9311H22.2167V28.3811C22.2167 28.5712 22.1412 28.7535 22.0068 28.8879C21.8724 29.0223 21.6901 29.0978 21.5 29.0978C21.3099 29.0978 21.1276 29.0223 20.9932 28.8879C20.8588 28.7535 20.7833 28.5712 20.7833 28.3811V21.9311H14.3333C14.1433 21.9311 13.961 21.8556 13.8266 21.7212C13.6922 21.5868 13.6167 21.4045 13.6167 21.2145C13.6167 21.0244 13.6922 20.8421 13.8266 20.7077C13.961 20.5733 14.1433 20.4978 14.3333 20.4978H20.7833V14.0478C20.7833 13.8577 20.8588 13.6754 20.9932 13.541C21.1276 13.4066 21.3099 13.3311 21.5 13.3311C21.6901 13.3311 21.8724 13.4066 22.0068 13.541Z"/>
</svg>
