<svg width="24" height="25" viewBox="0 0 24 25" fill="none" xmlns="http://www.w3.org/2000/svg">
<path d="M5 10.1886C5 7.46648 5 6.1054 5.82376 5.25973C6.64752 4.41406 7.97335 4.41406 10.625 4.41406H14.375C17.0267 4.41406 18.3525 4.41406 19.1762 5.25973C20 6.1054 20 7.46648 20 10.1886V16.7597C20 19.3422 20 20.6335 19.2085 21.0284C18.417 21.4233 17.4279 20.6256 15.4499 19.0301L14.8168 18.5194C13.7046 17.6223 13.1485 17.1738 12.5 17.1738C11.8515 17.1738 11.2954 17.6223 10.1832 18.5194L9.55012 19.0301C7.57207 20.6256 6.58305 21.4233 5.79153 21.0284C5 20.6335 5 19.3422 5 16.7597V10.1886Z" fill="#FFCC37"/>
</svg>
