<svg width="16" height="16" viewBox="0 0 16 16" fill="none" xmlns="http://www.w3.org/2000/svg">
<path fill-rule="evenodd" clip-rule="evenodd" d="M14.4118 7.99966C14.4118 11.5408 11.5411 14.4114 8.00002 14.4114C4.4589 14.4114 1.58826 11.5408 1.58826 7.99966C1.58826 4.45854 4.4589 1.58789 8.00002 1.58789C11.5411 1.58789 14.4118 4.45854 14.4118 7.99966ZM8.00002 12.9997C10.7614 12.9997 13 10.7611 13 7.99966C13 5.23823 10.7614 2.99966 8.00002 2.99966C5.2386 2.99966 3.00002 5.23823 3.00002 7.99966C3.00002 10.7611 5.2386 12.9997 8.00002 12.9997Z" fill="#CECECE"/>
<path d="M10.8125 8H8.23529C8.10534 8 8 7.89466 8 7.76471V5.8125" stroke="#CECECE" stroke-width="1.41176" stroke-linecap="round"/>
</svg>
