<svg width="16" height="16" viewBox="0 0 16 16" fill="none" xmlns="http://www.w3.org/2000/svg">
<path d="M5.33317 7.9974C5.33317 8.73378 4.73622 9.33073 3.99984 9.33073C3.26346 9.33073 2.6665 8.73378 2.6665 7.9974C2.6665 7.26102 3.26346 6.66406 3.99984 6.66406C4.73622 6.66406 5.33317 7.26102 5.33317 7.9974Z" fill="#CECECE"/>
<path d="M9.33317 7.9974C9.33317 8.73378 8.73622 9.33073 7.99984 9.33073C7.26346 9.33073 6.6665 8.73378 6.6665 7.9974C6.6665 7.26102 7.26346 6.66406 7.99984 6.66406C8.73622 6.66406 9.33317 7.26102 9.33317 7.9974Z" fill="#CECECE"/>
<path d="M11.9998 9.33073C12.7362 9.33073 13.3332 8.73378 13.3332 7.9974C13.3332 7.26102 12.7362 6.66406 11.9998 6.66406C11.2635 6.66406 10.6665 7.26102 10.6665 7.9974C10.6665 8.73378 11.2635 9.33073 11.9998 9.33073Z" fill="#CECECE"/>
</svg>
