<svg width="16" height="17" viewBox="0 0 16 17" fill="none" xmlns="http://www.w3.org/2000/svg">
<mask id="path-1-inside-1_488_2388" fill="white">
<path d="M0.5 5.77458C0.5 3.05242 0.5 1.69134 1.32376 0.845668C2.14752 0 3.47335 0 6.125 0H9.875C12.5267 0 13.8525 0 14.6762 0.845668C15.5 1.69134 15.5 3.05242 15.5 5.77458V12.3457C15.5 14.9282 15.5 16.2194 14.7085 16.6143C13.917 17.0093 12.9279 16.2115 10.9499 14.616L10.3168 14.1054C9.20461 13.2083 8.64849 12.7597 8 12.7597C7.35151 12.7597 6.79539 13.2083 5.68317 14.1054L5.05012 14.616C3.07207 16.2115 2.08305 17.0093 1.29153 16.6143C0.5 16.2194 0.5 14.9282 0.5 12.3457V5.77458Z"/>
</mask>
<path d="M10.3168 14.1054L11.8236 12.2373L11.8236 12.2373L10.3168 14.1054ZM5.68317 14.1054L4.17639 12.2373L4.17639 12.2373L5.68317 14.1054ZM5.05012 14.616L6.5569 16.4841L5.05012 14.616ZM10.9499 14.616L9.44309 16.4841L9.44309 16.4841L10.9499 14.616ZM6.125 2.4H9.875V-2.4H6.125V2.4ZM13.1 5.77458V12.3457H17.9V5.77458H13.1ZM2.9 12.3457V5.77458H-1.9V12.3457H2.9ZM12.4567 12.748L11.8236 12.2373L8.81004 15.9734L9.44309 16.4841L12.4567 12.748ZM4.17639 12.2373L3.54334 12.748L6.5569 16.4841L7.18995 15.9734L4.17639 12.2373ZM11.8236 12.2373C11.3138 11.8261 10.7667 11.3795 10.2558 11.0605C9.69079 10.7076 8.94338 10.3597 8 10.3597V15.1597C7.70511 15.1597 7.56001 15.0361 7.7132 15.1317C7.79711 15.1841 7.92093 15.2708 8.11349 15.4189C8.30573 15.5668 8.52569 15.7441 8.81005 15.9734L11.8236 12.2373ZM7.18995 15.9734C7.4743 15.7441 7.69427 15.5668 7.88651 15.4189C8.07907 15.2708 8.2029 15.1841 8.2868 15.1317C8.43999 15.0361 8.29489 15.1597 8 15.1597V10.3597C7.05661 10.3597 6.30921 10.7076 5.74416 11.0605C5.23334 11.3795 4.68619 11.8261 4.17639 12.2373L7.18995 15.9734ZM-1.9 12.3457C-1.9 13.5573 -1.90595 14.7335 -1.7771 15.6386C-1.65444 16.5002 -1.29697 18.0049 0.22 18.7618L2.36305 14.4668C2.68459 14.6272 2.88074 14.8758 2.96927 15.0483C3.03076 15.1682 3.00676 15.1853 2.97498 14.9621C2.94509 14.7521 2.92318 14.4449 2.9116 13.9861C2.90016 13.5323 2.9 13.0005 2.9 12.3457H-1.9ZM3.54334 12.748C3.04142 13.1528 2.63529 13.4802 2.28206 13.7502C1.9246 14.0235 1.68044 14.192 1.50794 14.2936C1.32345 14.4022 1.33817 14.3632 1.49101 14.3344C1.70787 14.2936 2.03837 14.3048 2.36305 14.4668L0.22 18.7618C1.7654 19.5329 3.18832 18.8745 3.94381 18.4296C4.72679 17.9685 5.63234 17.2298 6.5569 16.4841L3.54334 12.748ZM13.1 12.3457C13.1 13.0005 13.0998 13.5323 13.0884 13.9861C13.0768 14.4449 13.0549 14.7521 13.025 14.9621C12.9932 15.1853 12.9692 15.1682 13.0307 15.0483C13.1193 14.8758 13.3154 14.6272 13.637 14.4668L15.78 18.7618C17.297 18.0049 17.6544 16.5002 17.7771 15.6386C17.906 14.7335 17.9 13.5573 17.9 12.3457H13.1ZM9.44309 16.4841C10.3677 17.2298 11.2732 17.9685 12.0562 18.4296C12.8117 18.8745 14.2346 19.5329 15.78 18.7618L13.637 14.4668C13.9616 14.3048 14.2921 14.2936 14.509 14.3344C14.6618 14.3632 14.6766 14.4022 14.4921 14.2936C14.3196 14.192 14.0754 14.0235 13.7179 13.7502C13.3647 13.4802 12.9586 13.1528 12.4567 12.748L9.44309 16.4841ZM9.875 2.4C11.2704 2.4 12.0692 2.40537 12.6329 2.48317C13.121 2.55053 13.0627 2.62874 12.9571 2.52031L16.3954 -0.828976C15.466 -1.78307 14.3329 -2.1277 13.2892 -2.27175C12.3212 -2.40537 11.1312 -2.4 9.875 -2.4V2.4ZM17.9 5.77458C17.9 4.47964 17.9048 3.27316 17.7767 2.29479C17.6404 1.25369 17.3162 0.116327 16.3954 -0.828976L12.9571 2.52031C12.86 2.42068 12.9478 2.38669 13.0174 2.91809C13.0952 3.51221 13.1 4.34736 13.1 5.77458H17.9ZM6.125 -2.4C4.86878 -2.4 3.67884 -2.40537 2.71078 -2.27175C1.66708 -2.1277 0.533962 -1.78307 -0.395414 -0.828976L3.04294 2.52031C2.93732 2.62873 2.879 2.55053 3.36706 2.48317C3.93077 2.40537 4.72957 2.4 6.125 2.4V-2.4ZM2.9 5.77458C2.9 4.34736 2.90484 3.51221 2.98265 2.91809C3.05224 2.38669 3.13999 2.42068 3.04294 2.52031L-0.395414 -0.828976C-1.31623 0.116326 -1.64036 1.25369 -1.77671 2.29479C-1.90484 3.27316 -1.9 4.47963 -1.9 5.77458H2.9Z" fill="#FFCC37" mask="url(#path-1-inside-1_488_2388)"/>
</svg>
