<svg width="21" height="21" viewBox="0 0 21 21" fill="none" xmlns="http://www.w3.org/2000/svg">
<path d="M16.4295 2.8519C15.0021 1.3827 12.6879 1.3827 11.2606 2.8519L7.38387 6.84221C5.95651 8.3114 5.95651 10.6934 7.38387 12.1626C8.81122 13.6318 11.1254 13.6318 12.5528 12.1626L13.0943 11.6053C12.9379 11.3251 12.7504 11.0361 12.5527 10.8326C12.355 10.6291 12.0742 10.4361 11.8021 10.2752L11.2606 10.8325C10.5469 11.5671 9.38978 11.5671 8.6761 10.8325C7.96242 10.0979 7.96242 8.90691 8.6761 8.17232L12.5528 4.182C13.2665 3.4474 14.4236 3.4474 15.1373 4.182C15.8509 4.9166 15.8509 6.10761 15.1373 6.84221L14.3917 7.6096C14.655 7.76647 14.9292 7.95829 15.1372 8.17239C15.3616 8.40336 15.547 8.67442 15.6935 8.92988L16.4295 8.17232C17.8568 6.70312 17.8568 4.32109 16.4295 2.8519Z" fill="#F9B900"/>
<path d="M14.4911 8.83737C13.0638 7.36818 10.7496 7.36818 9.32221 8.83737L8.78248 9.39292C8.94043 9.67637 9.12836 9.96794 9.32221 10.1675C9.54661 10.3984 9.80996 10.5893 10.0582 10.7401L10.6144 10.1675C11.3281 9.43288 12.4852 9.43288 13.1989 10.1675C13.9126 10.9021 13.9126 12.0931 13.1989 12.8277L9.32221 16.818C8.60853 17.5526 7.45143 17.5526 6.73775 16.818C6.02407 16.0834 6.02407 14.8924 6.73775 14.1578L7.4737 13.4003C7.2255 13.2495 6.96214 13.0587 6.73775 12.8277C6.51336 12.5967 6.32793 12.3256 6.18147 12.0702L5.44552 12.8277C4.01816 14.2969 4.01816 16.6789 5.44552 18.1481C6.87288 19.6173 9.18708 19.6173 10.6144 18.1481L14.4911 14.1578C15.9185 12.6886 15.9185 10.3066 14.4911 8.83737Z" fill="#F9B900"/>
</svg>
