<svg width="33" height="33" viewBox="0 0 33 33" fill="none" xmlns="http://www.w3.org/2000/svg">
<path d="M15.04 13.7992L11.79 8.17007C11.4591 7.5959 11.3697 6.91385 11.5415 6.27382C11.7133 5.6338 12.1322 5.08816 12.7061 4.75682C13.28 4.42548 13.9619 4.33555 14.6021 4.5068C15.2423 4.67804 15.7883 5.09645 16.1201 5.67007L21.1201 14.3303" stroke="#40403F" stroke-width="2" stroke-linecap="round" stroke-linejoin="round"/>
<path d="M11.21 17.1666L6.46001 8.93931C6.29553 8.65498 6.1887 8.34101 6.14562 8.01537C6.10254 7.68973 6.12405 7.35879 6.20894 7.04146C6.29382 6.72414 6.44041 6.42665 6.64032 6.16601C6.84023 5.90537 7.08955 5.68668 7.37402 5.52244C7.6585 5.3582 7.97255 5.25163 8.29823 5.20882C8.62391 5.16601 8.95483 5.18781 9.27208 5.27296C9.58933 5.35811 9.88669 5.50494 10.1472 5.70507C10.4076 5.9052 10.6261 6.1547 10.7901 6.43931L15.0401 13.8005" stroke="#40403F" stroke-width="2" stroke-linecap="round" stroke-linejoin="round"/>
<path d="M19.2901 21.1611C18.627 20.0126 18.4473 18.6479 18.7906 17.367C19.1338 16.0861 19.9718 14.994 21.1202 14.3309L19.8702 12.1659C19.7057 11.8815 19.5989 11.5676 19.5558 11.2419C19.5127 10.9163 19.5342 10.5853 19.6191 10.268C19.704 9.9507 19.8506 9.65322 20.0505 9.39257C20.2504 9.13193 20.4997 8.91324 20.7842 8.749C21.0687 8.58476 21.3827 8.47819 21.7084 8.43538C22.0341 8.39257 22.365 8.41437 22.6823 8.49952C22.9995 8.58467 23.2969 8.7315 23.5573 8.93163C23.8178 9.13176 24.0363 9.38126 24.2003 9.66587L26.7003 13.996C27.3573 15.1333 27.7837 16.3889 27.9554 17.691C28.127 18.9932 28.0405 20.3164 27.7007 21.585C27.3609 22.8537 26.7745 24.0431 25.975 25.0851C25.1755 26.1271 24.1786 27.0015 23.0412 27.6582C21.9037 28.3149 20.6481 28.7411 19.3459 28.9125C18.0437 29.0838 16.7205 28.997 15.4519 28.6569C14.1833 28.3168 12.9941 27.7302 11.9522 26.9304C10.9104 26.1307 10.0362 25.1336 9.3798 23.996L4.6298 15.7688C4.29894 15.1946 4.20958 14.5125 4.38136 13.8725C4.55314 13.2325 4.97201 12.6868 5.5459 12.3555C6.1198 12.0242 6.80177 11.9342 7.44194 12.1055C8.08211 12.2767 8.6281 12.6951 8.95992 13.2688L11.2099 17.1659" stroke="#40403F" stroke-width="2" stroke-linecap="round" stroke-linejoin="round"/>
<path d="M10.1778 30.5015C8.48284 29.3255 7.06996 27.788 6.04102 26" stroke="#40403F" stroke-width="2" stroke-linecap="round" stroke-linejoin="round"/>
<path d="M22.041 4.375C23.182 4.37485 24.3028 4.67519 25.2909 5.24581C26.2789 5.81643 27.0992 6.6372 27.6692 7.62554" stroke="#40403F" stroke-width="2" stroke-linecap="round" stroke-linejoin="round"/>
</svg>
