<svg width="90" height="90" viewBox="0 0 90 90" fill="none" xmlns="http://www.w3.org/2000/svg">
<g clip-path="url(#clip0_1049_3456)">
<rect width="90" height="90" rx="45" fill="#DEDEDE"/>
<path d="M34.5199 69.7582C33.6513 76.995 26.4199 82.3387 18.074 81.337C9.72813 80.3352 3.96669 73.432 4.83531 66.1952C5.70393 58.9583 12.9354 53.6146 21.2812 54.6164C29.6271 55.6181 35.3885 62.5213 34.5199 69.7582Z" fill="white" fill-opacity="0.8" stroke="#222222" stroke-width="3.3"/>
<path d="M53.4386 69.7582C54.3072 76.995 61.5386 82.3387 69.8845 81.337C78.2304 80.3352 83.9918 73.432 83.1232 66.1952C82.2546 58.9583 75.0231 53.6146 66.6773 54.6164C58.3314 55.6181 52.57 62.5213 53.4386 69.7582Z" fill="white" fill-opacity="0.8" stroke="#222222" stroke-width="3.3"/>
<g clip-path="url(#clip1_1049_3456)">
<path d="M73.2038 81.3515C73.2038 94.8083 60.6147 106.134 44.5346 106.134C28.4544 106.134 15.8654 94.8083 15.8654 81.3515C15.8654 67.8946 28.4544 56.5685 44.5346 56.5685C60.6147 56.5685 73.2038 67.8946 73.2038 81.3515Z" fill="white" stroke="#222222" stroke-width="3.73077"/>
<path d="M72.9373 64.6962C72.9373 69.6226 70.0493 74.3118 64.914 77.8598C59.7873 81.4019 52.5886 83.661 44.5346 83.661C36.4805 83.661 29.2819 81.4019 24.1552 77.8598C19.0198 74.3118 16.1319 69.6226 16.1319 64.6962C16.1319 59.7698 19.0198 55.0807 24.1552 51.5326C29.2819 47.9905 36.4805 45.7315 44.5346 45.7315C52.5886 45.7315 59.7873 47.9905 64.914 51.5326C70.0493 55.0807 72.9373 59.7698 72.9373 64.6962Z" stroke="#222222" stroke-width="4.26374"/>
<path d="M72.9373 41.934C72.9373 58.306 60.1498 71.447 44.5346 71.447C28.9193 71.447 16.1319 58.306 16.1319 41.934C16.1319 25.562 28.9193 12.4209 44.5346 12.4209C60.1498 12.4209 72.9373 25.562 72.9373 41.934Z" stroke="#222222" stroke-width="4.26374"/>
</g>
<path d="M15.0659 85.2377C15.0659 68.9626 28.2595 55.7691 44.5346 55.7691C60.8096 55.7691 74.0032 68.9626 74.0032 85.2377V106.934H15.0659V85.2377Z" stroke="#222222" stroke-width="2.13187"/>
<path d="M65.6933 38.9766C65.6933 49.9956 56.3001 59.0695 44.5345 59.0695C32.769 59.0695 23.3757 49.9956 23.3757 38.9766C23.3757 27.9577 32.769 18.8838 44.5345 18.8838C56.3001 18.8838 65.6933 27.9577 65.6933 38.9766Z" fill="white" stroke="#222222" stroke-width="3.51758"/>
<path d="M63.7213 43.7737C63.7213 52.6996 55.3441 60.2957 44.5345 60.2957C33.7248 60.2957 25.3477 52.6996 25.3477 43.7737C25.3477 34.8478 33.7248 27.2517 44.5345 27.2517C55.3441 27.2517 63.7213 34.8478 63.7213 43.7737Z" stroke="#222222" stroke-width="3.1978"/>
<path d="M49.0073 23.1393C49.0073 18.191 53.5949 13.9272 60.5234 13.9272" stroke="#222222" stroke-width="3.51758" stroke-linecap="round" stroke-linejoin="round"/>
<path d="M40.5945 23.1393C40.5945 18.191 36.0069 13.9272 29.0784 13.9272" stroke="#222222" stroke-width="3.51758" stroke-linecap="round" stroke-linejoin="round"/>
<circle cx="34.7149" cy="40.4615" r="2.43853" fill="black"/>
<circle cx="55.0049" cy="40.4615" r="2.43853" fill="black"/>
<path d="M38.6719 48.9448C40.4222 49.82 45.2882 51.0453 50.7494 48.9448" stroke="black" stroke-width="3.01937" stroke-linecap="round" stroke-linejoin="round"/>
<circle cx="45.0674" cy="41.6417" r="3.1978" fill="#FDD600"/>
</g>
<defs>
<clipPath id="clip0_1049_3456">
<rect width="90" height="90" rx="45" fill="white"/>
</clipPath>
<clipPath id="clip1_1049_3456">
<path d="M14 85.2377C14 68.3739 27.6708 54.7031 44.5346 54.7031C61.3983 54.7031 75.0691 68.3739 75.0691 85.2377V108H14V85.2377Z" fill="white"/>
</clipPath>
</defs>
</svg>
