<svg width="90" height="90" viewBox="0 0 90 90" fill="none" xmlns="http://www.w3.org/2000/svg">
<rect width="90" height="90" rx="45" fill="#DEDEDE"/>
<path d="M26.5219 35.8854C31.8786 36.1831 35.1026 39.6797 36.045 41.3907C37.161 41.0933 39.1234 40.4509 42.3226 41.7901C44.8028 42.8283 48.5938 45.9537 49.2138 47.8633L45.345 63.8592C44.4026 65.0248 41.1769 68.098 34.2131 69.1693C25.5084 70.5085 17.6963 66.7885 13.902 59.1254C10.2401 51.7296 13.4556 44.5428 14.4691 42.8043C15.9453 40.2722 19.8259 35.5132 26.5219 35.8854Z" fill="white" stroke="#222222" stroke-width="3.5" stroke-linejoin="round"/>
<path d="M64.3668 39.538C60.1066 40.056 57.4581 42.3925 56.6664 43.496L56.9292 44.8515C56.4957 44.4527 55.2021 43.5822 53.4959 43.2909C51.363 42.9267 43.1957 42.6146 40.5427 52.3945C37.8896 62.1744 47.9046 75.3876 62.7079 72.4429C76.5463 69.6901 79.5513 59.5442 77.968 50.6926C76.3848 41.8409 69.6921 38.8904 64.3668 39.538Z" fill="white" stroke="#222222" stroke-width="3.5" stroke-linejoin="round"/>
<path fill-rule="evenodd" clip-rule="evenodd" d="M35.5698 54.9891C35.9311 55.6656 35.6755 56.5069 34.9991 56.8681C28.3877 60.3989 22.4172 58.3791 20.1195 56.7839C19.4896 56.3466 19.3334 55.4813 19.7708 54.8514C20.2081 54.2214 21.0734 54.0653 21.7033 54.5026C23.2994 55.6107 28.1536 57.3755 33.6908 54.4184C34.3673 54.0571 35.2085 54.3127 35.5698 54.9891Z" fill="#FE6C6C"/>
<path fill-rule="evenodd" clip-rule="evenodd" d="M71.7877 56.6801C72.2706 57.2759 72.1791 58.1503 71.5833 58.6332C65.7607 63.3526 59.5157 62.5006 56.9574 61.3696C56.2559 61.0596 55.9387 60.2396 56.2488 59.5382C56.5588 58.8368 57.3788 58.5195 58.0802 58.8296C59.8574 59.6152 64.958 60.4283 69.8346 56.4757C70.4304 55.9928 71.3049 56.0843 71.7877 56.6801Z" fill="#FE6C6C"/>
<circle cx="22.2588" cy="48.9304" r="2.24293" fill="#222222"/>
<circle cx="57.5701" cy="53.2534" r="2.24293" transform="rotate(-10.9216 57.5701 53.2534)" fill="#222222"/>
<circle cx="33.5916" cy="48.9304" r="2.24293" fill="#222222"/>
<circle cx="68.6978" cy="51.106" r="2.24293" transform="rotate(-10.9216 68.6978 51.106)" fill="#222222"/>
<path fill-rule="evenodd" clip-rule="evenodd" d="M52.1828 22.8961C52.4628 23.8449 51.9205 24.8409 50.9718 25.1209C41.9013 27.7969 38.4607 36.5705 37.911 40.6575C37.7791 41.6379 36.8775 42.3257 35.8971 42.1939C34.9167 42.062 34.2288 41.1603 34.3607 40.18C35.0051 35.3891 38.9678 24.9275 49.9581 21.685C50.9069 21.4051 51.9029 21.9473 52.1828 22.8961Z" fill="#222222"/>
<path fill-rule="evenodd" clip-rule="evenodd" d="M51.3118 22.4702C52.2614 22.7474 52.8065 23.7419 52.5294 24.6915C52.0272 26.4122 52.1234 29.9272 53.0828 33.7403C54.0356 37.5273 55.7167 41.1066 57.9378 43.1227C58.6702 43.7876 58.725 44.9204 58.0601 45.6528C57.3952 46.3853 56.2624 46.44 55.53 45.7752C52.549 43.0691 50.6343 38.6905 49.6088 34.6143C48.5898 30.5643 48.325 26.3108 49.0906 23.6878C49.3677 22.7382 50.3622 22.1931 51.3118 22.4702Z" fill="#222222"/>
<path d="M32.0276 41.0723C32.8785 41.7879 35.1844 42.8282 37.6008 41.2651" stroke="#222222" stroke-width="2" stroke-linecap="round" stroke-linejoin="round"/>
<path d="M54.0474 45.9331C55.0794 46.3466 57.595 46.6136 59.4013 44.3732" stroke="#222222" stroke-width="1.79114" stroke-linecap="round" stroke-linejoin="round"/>
<path d="M52.9999 24.5001C50.9556 25.0548 48.4999 27.3392 42.4999 26.5001C37.19 25.7575 31.4887 23.6522 27.7821 11.8996C30.4999 11.0001 34.6353 10.6694 36.9999 11.0001C49.4242 12.7376 51.0837 20.2071 52.9999 24.5001Z" fill="white"/>
<path fill-rule="evenodd" clip-rule="evenodd" d="M52.9999 24.5001C52.7969 24.0453 52.5968 23.5548 52.3864 23.0393C52.2124 22.6128 52.0314 22.1692 51.8359 21.7144C50.0378 17.5299 47.019 12.4013 36.9999 11.0001C35.3897 10.7749 32.9583 10.8564 30.7126 11.2154C29.7996 11.3613 28.9174 11.5531 28.1335 11.7887C28.014 11.8247 27.8968 11.8616 27.7821 11.8996C27.9144 12.3192 28.0493 12.7266 28.1866 13.122C28.3808 13.6809 28.5797 14.2161 28.7833 14.7284C32.4685 24.005 37.6476 25.8215 42.4999 26.5001C46.1561 27.0114 48.4963 26.3629 50.2292 25.6527C50.6422 25.4834 51.0207 25.3106 51.3743 25.1492C51.9718 24.8765 52.4982 24.6362 52.9999 24.5001ZM49.0594 22.8625C48.4466 21.4245 47.7729 20.0627 46.6458 18.7243C44.9758 16.7414 42.1625 14.7513 36.5844 13.9712C35.4061 13.8064 33.5491 13.8533 31.763 14.0927C33.2431 17.6535 34.8824 19.7328 36.4394 21.0067C38.3824 22.5964 40.5094 23.1925 42.9154 23.529C46.0705 23.9702 47.6101 23.5001 49.0594 22.8625Z" fill="#222222"/>
</svg>
