<svg width="90" height="90" viewBox="0 0 90 90" fill="none" xmlns="http://www.w3.org/2000/svg">
<rect width="90" height="90" rx="45" fill="#DEDEDE"/>
<circle cx="35.2877" cy="45.8927" r="2.28769" fill="#222222"/>
<circle cx="54.3228" cy="45.8927" r="2.28769" fill="#222222"/>
<path d="M37.3569 53.1545C39.315 54.2878 41.2316 53.9962 42.5234 53.4046C44.1644 52.653 44.898 51.1963 44.922 49.5891" stroke="#222222" stroke-width="2.2" stroke-linecap="round" stroke-linejoin="round"/>
<path d="M52.6451 53.1545C50.6869 54.2878 48.7704 53.9962 47.4786 53.4046C45.8376 52.653 45.104 51.1963 45.08 49.5891" stroke="#222222" stroke-width="2.2" stroke-linecap="round" stroke-linejoin="round"/>
<path fill-rule="evenodd" clip-rule="evenodd" d="M26.5593 22.844C25.5475 23.8606 24.8004 24.9878 24.3215 26.142C21.6727 24.6268 18.7031 23.7918 16.3937 25.2581C11.144 28.5912 9.31076 31.591 11.4773 32.9243C13.2106 33.9909 17.477 33.091 19.3936 32.5077L19.5793 32.6503C18.9823 33.9739 18.6494 35.4472 18.6494 36.9998C18.6494 37.4696 18.6799 37.9321 18.7389 38.3854C16.0878 40.6554 14.3958 44.1057 14.3958 47.9694C14.3958 51.9821 16.2207 55.5488 19.0496 57.8105C19.1247 59.0268 19.3555 60.2553 19.7552 61.4696C21.9046 68.0007 28.2246 71.9619 34.6651 71.2533C37.4468 73.0059 41.056 74.0639 45 74.0639C50.0608 74.0639 54.5703 72.3218 57.4876 69.6057C63.2413 70.3408 69.1435 67.2527 71.8698 61.5726C73.0958 59.0184 73.5111 56.291 73.2176 53.6963C75.3389 51.4747 76.6493 48.416 76.6493 45.0392C76.6493 41.599 75.2891 38.4889 73.097 36.2577C73.0119 35.0243 72.7164 33.8502 72.2468 32.7725C74.38 33.3093 77.7201 33.8374 79.2038 32.9243C81.3704 31.591 79.5372 28.5912 74.2874 25.2581C72.0731 23.8521 69.2519 24.5619 66.6885 25.9584C66.1847 24.8063 65.4216 23.679 64.4036 22.6562C61.171 19.4082 56.4237 18.2735 53.0039 19.7059C50.7061 18.0876 47.7962 17.1206 44.631 17.1206C41.5148 17.1206 38.6459 18.0579 36.3651 19.6313C33.1649 18.943 29.2866 20.1037 26.5593 22.844Z" fill="white"/>
<path d="M24.3215 26.142L23.5766 27.444C23.9505 27.6579 24.3983 27.7007 24.806 27.5616C25.2137 27.4225 25.5418 27.1148 25.7069 26.7169L24.3215 26.142ZM26.5593 22.844L25.4961 21.7859L25.4961 21.7859L26.5593 22.844ZM16.3937 25.2581L17.1977 26.5244L16.3937 25.2581ZM11.4773 32.9243L12.2635 31.6468L12.2635 31.6468L11.4773 32.9243ZM19.3936 32.5077L20.3071 31.3179C19.923 31.023 19.4201 30.9317 18.9568 31.0727L19.3936 32.5077ZM19.5793 32.6503L20.9467 33.2669C21.2328 32.6324 21.0449 31.8844 20.4928 31.4605L19.5793 32.6503ZM18.7389 38.3854L19.7145 39.5248C20.0993 39.1954 20.2918 38.694 20.2264 38.1917L18.7389 38.3854ZM19.0496 57.8105L20.5468 57.7182C20.5207 57.2954 20.3171 56.9034 19.9863 56.639L19.0496 57.8105ZM19.7552 61.4696L21.18 61.0007L19.7552 61.4696ZM34.6651 71.2533L35.4647 69.9842C35.1778 69.8034 34.8381 69.7252 34.5011 69.7623L34.6651 71.2533ZM57.4876 69.6057L57.6777 68.1178C57.2357 68.0613 56.7915 68.2043 56.4655 68.5079L57.4876 69.6057ZM71.8698 61.5726L73.2221 62.2217L71.8698 61.5726ZM73.2176 53.6963L72.1327 52.6605C71.8257 52.982 71.6771 53.4232 71.7271 53.865L73.2176 53.6963ZM73.097 36.2577L71.6006 36.3609C71.6252 36.7176 71.7764 37.0538 72.027 37.3089L73.097 36.2577ZM72.2468 32.7725L72.6129 31.3178C72.0583 31.1782 71.4726 31.3662 71.1027 31.8024C70.7328 32.2387 70.6432 32.8473 70.8717 33.3716L72.2468 32.7725ZM79.2038 32.9243L78.4177 31.6468V31.6468L79.2038 32.9243ZM74.2874 25.2581L73.4834 26.5244V26.5244L74.2874 25.2581ZM66.6885 25.9584L65.3142 26.5594C65.4826 26.9445 65.8049 27.2413 66.2026 27.3775C66.6003 27.5137 67.0369 27.4767 67.4061 27.2756L66.6885 25.9584ZM64.4036 22.6562L63.3405 23.7144V23.7144L64.4036 22.6562ZM53.0039 19.7059L52.1402 20.9323C52.5622 21.2295 53.1073 21.2888 53.5834 21.0894L53.0039 19.7059ZM36.3651 19.6313L36.0497 21.0978C36.454 21.1848 36.8764 21.1009 37.2168 20.8661L36.3651 19.6313ZM25.7069 26.7169C26.1069 25.7529 26.7409 24.7879 27.6224 23.9022L25.4961 21.7859C24.3541 22.9333 23.4939 24.2226 22.936 25.5671L25.7069 26.7169ZM17.1977 26.5244C18.7379 25.5465 20.9949 25.9671 23.5766 27.444L25.0663 24.84C22.3505 23.2864 18.6683 22.0371 15.5897 23.9917L17.1977 26.5244ZM12.2635 31.6468C12.1393 31.5704 12.0991 31.5164 12.0916 31.5054C12.0883 31.5005 12.0876 31.5017 12.0862 31.4871C12.0807 31.4313 12.0909 31.1664 12.4219 30.6432C13.0867 29.5928 14.6317 28.1536 17.1977 26.5244L15.5897 23.9917C12.906 25.6957 10.9096 27.4229 9.88688 29.039C9.37423 29.8492 9.00421 30.7925 9.10032 31.7783C9.20476 32.8494 9.82688 33.6699 10.6912 34.2018L12.2635 31.6468ZM18.9568 31.0727C18.0678 31.3432 16.6157 31.691 15.2055 31.8434C14.5009 31.9195 13.8475 31.9423 13.3013 31.8965C12.7309 31.8486 12.4086 31.7362 12.2635 31.6468L10.6912 34.2018C11.4126 34.6458 12.2736 34.8208 13.0505 34.886C13.8516 34.9532 14.7097 34.9144 15.5279 34.826C17.1634 34.6493 18.8028 34.2554 19.8303 33.9427L18.9568 31.0727ZM20.4928 31.4605L20.3071 31.3179L18.48 33.6974L18.6657 33.84L20.4928 31.4605ZM20.1494 36.9998C20.1494 35.6634 20.4357 34.4 20.9467 33.2669L18.2119 32.0336C17.529 33.5479 17.1494 35.2311 17.1494 36.9998H20.1494ZM20.2264 38.1917C20.1757 37.8025 20.1494 37.4047 20.1494 36.9998H17.1494C17.1494 37.5345 17.1841 38.0618 17.2515 38.5792L20.2264 38.1917ZM15.8958 47.9694C15.8958 44.5488 17.3924 41.5131 19.7145 39.5248L17.7634 37.246C14.7832 39.7977 12.8958 43.6625 12.8958 47.9694H15.8958ZM19.9863 56.639C17.51 54.6591 15.8958 51.5219 15.8958 47.9694H12.8958C12.8958 52.4422 14.9314 56.4384 18.1129 58.9821L19.9863 56.639ZM21.18 61.0007C20.8208 59.9092 20.614 58.8073 20.5468 57.7182L17.5525 57.9029C17.6354 59.2463 17.8903 60.6014 18.3303 61.9385L21.18 61.0007ZM34.5011 69.7623C28.7726 70.3926 23.1102 66.8656 21.18 61.0007L18.3303 61.9385C20.699 69.1358 27.6765 73.5313 34.8292 72.7443L34.5011 69.7623ZM45 72.5639C41.3167 72.5639 37.9889 71.5745 35.4647 69.9842L33.8655 72.5224C36.9047 74.4372 40.7952 75.5639 45 75.5639V72.5639ZM56.4655 68.5079C53.8639 70.9299 49.737 72.5639 45 72.5639V75.5639C50.3845 75.5639 55.2766 73.7136 58.5097 70.7035L56.4655 68.5079ZM70.5175 60.9235C68.0673 66.0285 62.782 68.7699 57.6777 68.1178L57.2975 71.0936C63.7007 71.9117 70.2197 68.4769 73.2221 62.2217L70.5175 60.9235ZM71.7271 53.865C71.9895 56.1851 71.6191 58.6285 70.5175 60.9235L73.2221 62.2217C74.5724 59.4083 75.0327 56.397 74.7081 53.5277L71.7271 53.865ZM75.1493 45.0392C75.1493 48.0227 73.9927 50.7124 72.1327 52.6605L74.3025 54.7322C76.685 52.2369 78.1493 48.8092 78.1493 45.0392H75.1493ZM72.027 37.3089C73.9488 39.265 75.1493 41.9997 75.1493 45.0392H78.1493C78.1493 41.1983 76.6294 37.7128 74.167 35.2064L72.027 37.3089ZM70.8717 33.3716C71.2738 34.2944 71.5275 35.301 71.6006 36.3609L74.5935 36.1544C74.4964 34.7476 74.159 33.4059 73.622 32.1733L70.8717 33.3716ZM71.8807 34.2271C73.0009 34.509 74.4634 34.796 75.8701 34.8889C76.5739 34.9353 77.2993 34.9358 77.9798 34.8493C78.6458 34.7647 79.367 34.5852 79.99 34.2018L78.4177 31.6468C78.2988 31.72 78.0461 31.8168 77.6018 31.8732C77.1721 31.9278 76.6511 31.9339 76.0677 31.8954C74.9001 31.8183 73.6259 31.5728 72.6129 31.3178L71.8807 34.2271ZM79.99 34.2018C80.8543 33.6699 81.4764 32.8494 81.5808 31.7783C81.6769 30.7925 81.3069 29.8492 80.7943 29.039C79.7716 27.4229 77.7752 25.6957 75.0915 23.9917L73.4834 26.5244C76.0494 28.1536 77.5945 29.5928 78.2592 30.6432C78.5903 31.1664 78.6004 31.4313 78.595 31.4871C78.5936 31.5017 78.5928 31.5005 78.5895 31.5054C78.5821 31.5164 78.5419 31.5704 78.4177 31.6468L79.99 34.2018ZM75.0915 23.9917C72.1362 22.1154 68.6237 23.196 65.9709 24.6412L67.4061 27.2756C69.8802 25.9278 72.0101 25.5889 73.4834 26.5244L75.0915 23.9917ZM63.3405 23.7144C64.2347 24.6128 64.8889 25.587 65.3142 26.5594L68.0629 25.3574C67.4805 24.0256 66.6085 22.7452 65.4668 21.5981L63.3405 23.7144ZM53.5834 21.0894C56.3288 19.9395 60.446 20.8061 63.3405 23.7144L65.4668 21.5981C61.896 18.0103 56.5185 16.6075 52.4244 18.3224L53.5834 21.0894ZM44.631 18.6206C47.4907 18.6206 50.0982 19.4942 52.1402 20.9323L53.8676 18.4795C51.3139 16.681 48.1017 15.6206 44.631 15.6206V18.6206ZM37.2168 20.8661C39.2444 19.4674 41.8156 18.6206 44.631 18.6206V15.6206C41.2139 15.6206 38.0474 16.6485 35.5133 18.3966L37.2168 20.8661ZM27.6224 23.9022C30.0247 21.4885 33.3953 20.5269 36.0497 21.0978L36.6805 18.1649C32.9346 17.3592 28.5485 18.7189 25.4961 21.7859L27.6224 23.9022Z" fill="black"/>
<path d="M42.5432 48.9079C43.351 51.2399 46.649 51.2399 47.4568 48.9079L47.7016 48.201C48.2867 46.512 47.0324 44.75 45.2449 44.75H44.7551C42.9676 44.75 41.7133 46.512 42.2984 48.201L42.5432 48.9079Z" fill="#9C6B0C"/>
<circle cx="34.6531" cy="45.219" r="2.4402" fill="#222222"/>
<circle cx="54.9573" cy="45.219" r="2.4402" fill="#222222"/>
<path d="M36.8602 52.9647C38.9489 54.1736 40.9933 53.8625 42.3712 53.2314C44.1216 52.4298 44.9041 50.8759 44.9297 49.1616" stroke="#222222" stroke-width="2.34667" stroke-linecap="round" stroke-linejoin="round"/>
<path d="M53.1676 52.9647C51.0789 54.1736 49.0346 53.8625 47.6567 53.2314C45.9063 52.4298 45.1237 50.8759 45.0982 49.1616" stroke="#222222" stroke-width="2.34667" stroke-linecap="round" stroke-linejoin="round"/>
<path d="M42.3923 48.4351C43.254 50.9225 46.7718 50.9225 47.6334 48.4351L47.8946 47.6811C48.5187 45.8795 47.1807 44 45.2741 44H44.7517C42.845 44 41.507 45.8795 42.1311 47.6811L42.3923 48.4351Z" fill="#9C6B0C"/>
</svg>
