<svg width="90" height="90" viewBox="0 0 90 90" fill="none" xmlns="http://www.w3.org/2000/svg">
<rect width="90" height="90" rx="45" fill="#DEDEDE"/>
<path d="M30.0512 22.4625C30.0512 22.4625 26.9364 24.7365 23.574 28.0313C20.2116 31.3261 17.9282 35.4439 17.8748 34.394C14.1514 30.5943 13.8588 24.843 17.2212 21.5482C20.5837 18.2534 26.3278 18.6627 30.0512 22.4625Z" fill="white"/>
<path d="M19.7663 35.012C19.3811 34.6207 19.0959 34.3158 18.9099 34.1011L18.9015 33.9362L18.4711 33.497C14.979 29.9332 14.9191 24.8163 17.7484 22.0439C20.5537 19.295 25.606 19.4328 29.0955 22.9094C29.1395 22.972 29.2019 23.0607 29.2815 23.1742C29.4538 23.42 29.7065 23.7816 30.0272 24.2435C30.6687 25.1673 31.5818 26.492 32.6665 28.093C34.8371 31.2966 37.69 35.599 40.428 40.0062C43.1729 44.4244 45.7741 48.9032 47.4611 52.4717C48.3095 54.2663 48.8899 55.755 49.158 56.854C49.2501 57.2316 49.2954 57.5242 49.3112 57.7415C49.141 57.7091 48.9195 57.6514 48.641 57.5551C47.6588 57.2155 46.3284 56.5269 44.7202 55.528C41.5271 53.5444 37.5512 50.5355 33.6394 47.3432C29.7377 44.1592 25.9443 40.8295 23.1273 38.2301C21.7174 36.9291 20.563 35.8212 19.7663 35.012ZM49.3004 58.1209C49.3004 58.1208 49.3009 58.1183 49.3025 58.1136C49.3013 58.1187 49.3005 58.121 49.3004 58.1209ZM18.738 33.8902C18.7378 33.8899 18.7376 33.8896 18.7374 33.8893L18.738 33.8902Z" stroke="#222222" stroke-width="3.24588"/>
<path d="M21.6145 25.8185C22.5547 24.9755 24.2556 24.9673 25.6996 26.0503C25.6779 26.0661 25.6559 26.0821 25.6337 26.0984C25.0533 26.524 24.268 27.1331 23.4503 27.8661C22.6254 28.6057 21.9375 29.4474 21.4718 30.0209C20.4719 28.4366 20.6507 26.6826 21.6145 25.8185Z" stroke="#222222" stroke-width="1.73114"/>
<path d="M60.4447 23.5445C60.4447 23.5445 63.5594 25.8186 66.9218 29.1134C70.2842 32.4082 72.5676 36.526 72.6211 35.4761C76.3444 31.6763 76.637 25.925 73.2746 22.6302C69.9122 19.3354 64.168 19.7448 60.4447 23.5445Z" fill="white"/>
<path d="M70.7295 36.094C71.1148 35.7027 71.3999 35.3979 71.5859 35.1831L71.5943 35.0183L72.0247 34.579C75.5168 31.0153 75.5767 25.8983 72.7475 23.1259C69.9422 20.3771 64.8899 20.5149 61.4004 23.9915C61.3564 24.054 61.294 24.1428 61.2144 24.2563C61.0421 24.502 60.7893 24.8636 60.4686 25.3255C59.8271 26.2494 58.914 27.5741 57.8293 29.175C55.6587 32.3786 52.8058 36.6811 50.0678 41.0882C47.323 45.5065 44.7217 49.9852 43.0348 53.5537C42.1864 55.3483 41.606 56.837 41.3378 57.936C41.2457 58.3136 41.2005 58.6062 41.1847 58.8235C41.3549 58.7912 41.5763 58.7334 41.8549 58.6371C42.8371 58.2976 44.1675 57.609 45.7756 56.61C48.9687 54.6264 52.9447 51.6175 56.8565 48.4252C60.7581 45.2413 64.5515 41.9115 67.3686 39.3121C68.7785 38.0111 69.9328 36.9032 70.7295 36.094ZM41.1954 59.203C41.1955 59.2029 41.1949 59.2003 41.1934 59.1956C41.1945 59.2007 41.1953 59.2031 41.1954 59.203ZM71.7579 34.9722C71.7581 34.9719 71.7583 34.9716 71.7585 34.9713L71.7579 34.9722Z" stroke="#222222" stroke-width="3.24588"/>
<path d="M68.8814 26.9005C67.9412 26.0575 66.2402 26.0493 64.7963 27.1323C64.8179 27.1481 64.8399 27.1642 64.8622 27.1805C65.4426 27.6061 66.2279 28.2151 67.0455 28.9482C67.8704 29.6878 68.5584 30.5295 69.024 31.103C70.0239 29.5186 69.8451 27.7646 68.8814 26.9005Z" stroke="#222222" stroke-width="1.73114"/>
<circle cx="44.8358" cy="49.3069" r="29.5697" fill="white" stroke="#222222" stroke-width="3.24588"/>
<circle cx="35.7274" cy="44.4864" r="2.84188" fill="#222222"/>
<circle cx="53.7154" cy="44.4864" r="2.84188" fill="#222222"/>
<mask id="path-11-inside-1_1049_3545" fill="white">
<path fill-rule="evenodd" clip-rule="evenodd" d="M51.6547 64.2436C55.8931 64.2436 59.329 61.3433 59.329 57.7656C59.329 54.1879 55.8931 51.2876 51.6547 51.2876C48.6866 51.2876 46.112 52.7099 44.8354 54.7912C43.5588 52.7099 40.9842 51.2876 38.0161 51.2876C33.7777 51.2876 30.3418 54.1879 30.3418 57.7656C30.3418 61.3433 33.7777 64.2436 38.0161 64.2436C40.9842 64.2436 43.5588 62.8212 44.8354 60.74C46.112 62.8212 48.6866 64.2436 51.6547 64.2436Z"/>
</mask>
<path d="M44.8354 54.7912L42.4375 56.262L44.8354 60.1712L47.2333 56.262L44.8354 54.7912ZM44.8354 60.74L47.2333 59.2691L44.8354 55.3599L42.4375 59.2691L44.8354 60.74ZM56.5159 57.7656C56.5159 59.3617 54.8051 61.4305 51.6547 61.4305V67.0566C56.9811 67.0566 62.1421 63.3248 62.1421 57.7656H56.5159ZM51.6547 54.1007C54.8051 54.1007 56.5159 56.1695 56.5159 57.7656H62.1421C62.1421 52.2063 56.9811 48.4745 51.6547 48.4745V54.1007ZM47.2333 56.262C47.9385 55.1124 49.5445 54.1007 51.6547 54.1007V48.4745C47.8286 48.4745 44.2856 50.3074 42.4375 53.3203L47.2333 56.262ZM38.0161 54.1007C40.1263 54.1007 41.7323 55.1124 42.4375 56.262L47.2333 53.3203C45.3852 50.3074 41.8422 48.4745 38.0161 48.4745V54.1007ZM33.1549 57.7656C33.1549 56.1695 34.8657 54.1007 38.0161 54.1007V48.4745C32.6897 48.4745 27.5287 52.2063 27.5287 57.7656H33.1549ZM38.0161 61.4305C34.8657 61.4305 33.1549 59.3617 33.1549 57.7656H27.5287C27.5287 63.3249 32.6897 67.0567 38.0161 67.0567V61.4305ZM42.4375 59.2691C41.7323 60.4187 40.1263 61.4305 38.0161 61.4305V67.0567C41.8422 67.0567 45.3852 65.2238 47.2333 62.2109L42.4375 59.2691ZM51.6547 61.4305C49.5446 61.4305 47.9385 60.4187 47.2333 59.2691L42.4375 62.2109C44.2856 65.2238 47.8286 67.0566 51.6547 67.0566V61.4305Z" fill="#222222" mask="url(#path-11-inside-1_1049_3545)"/>
<mask id="mask0_1049_3545" style="mask-type:alpha" maskUnits="userSpaceOnUse" x="13" y="18" width="64" height="63">
<circle cx="44.8358" cy="49.3069" r="30.6517" fill="white" stroke="#222222" stroke-width="1.08196"/>
</mask>
<g mask="url(#mask0_1049_3545)">
<path fill-rule="evenodd" clip-rule="evenodd" d="M44.8358 16.7607C45.7321 16.7607 46.4587 17.5489 46.4587 18.5211L46.4587 29.1762C46.4587 30.1485 45.7321 30.9366 44.8358 30.9366C43.9395 30.9366 43.2129 30.1485 43.2129 29.1762L43.2129 18.5211C43.2129 17.5489 43.9395 16.7607 44.8358 16.7607Z" fill="#222222"/>
<line x1="38.4719" y1="19.1497" x2="38.4719" y2="25.6842" stroke="#222222" stroke-width="2.61379" stroke-linecap="round"/>
<line x1="51.4553" y1="19.1497" x2="51.4553" y2="25.6842" stroke="#222222" stroke-width="2.61379" stroke-linecap="round"/>
<line x1="35.4985" y1="36.5794" x2="39.622" y2="38.2288" stroke="#222222" stroke-width="2.5967" stroke-linecap="round"/>
<path d="M54.8628 36.7559L50.1484 38.6416" stroke="#222222" stroke-width="2.5967" stroke-linecap="round"/>
<line x1="34.409" y1="55.3284" x2="27.793" y2="53.2052" stroke="#222222" stroke-width="2.2" stroke-linecap="round"/>
<line x1="1.1" y1="-1.1" x2="8.04827" y2="-1.1" transform="matrix(0.952167 -0.305578 -0.305578 -0.952167 54 55.2949)" stroke="#222222" stroke-width="2.2" stroke-linecap="round"/>
<line x1="1.1" y1="-1.1" x2="8.04827" y2="-1.1" transform="matrix(0.952167 -0.305578 -0.305578 -0.952167 26 61.2324)" stroke="#222222" stroke-width="2.2" stroke-linecap="round"/>
<line x1="62.3272" y1="62.0062" x2="55.7113" y2="59.8829" stroke="#222222" stroke-width="2.2" stroke-linecap="round"/>
<ellipse cx="44.9074" cy="53.1239" rx="5.24118" ry="4.5419" fill="#523A0B"/>
</g>
</svg>
