<svg width="36" height="36" viewBox="0 0 36 36" fill="none" xmlns="http://www.w3.org/2000/svg">
<rect width="36" height="36" rx="18" fill="#DEDEDE"/>
<path d="M13.3272 9.14895C13.5195 10.8442 12.7486 13.2314 11.3084 13.3947C9.86813 13.5581 7.88457 11.5505 7.69232 9.85522C7.50007 8.15998 8.58498 6.90242 10.0252 6.73909C11.4654 6.57576 13.135 7.4537 13.3272 9.14895Z" fill="white"/>
<path fill-rule="evenodd" clip-rule="evenodd" d="M11.8238 11.3811C12.0942 10.7381 12.2074 9.92406 12.1349 9.28416C12.0388 8.43671 11.1489 7.81935 10.1604 7.93145C9.39921 8.01777 8.76477 8.66261 8.88468 9.72C8.94023 10.2099 9.2992 10.8972 9.87687 11.4694C10.4908 12.0776 11.0008 12.2219 11.1731 12.2024C11.2283 12.1961 11.5264 12.0882 11.8238 11.3811ZM11.3084 13.3947C12.7486 13.2314 13.5195 10.8442 13.3272 9.14895C13.135 7.4537 11.4654 6.57576 10.0252 6.73909C8.58498 6.90242 7.50007 8.15998 7.69232 9.85522C7.88457 11.5505 9.86813 13.5581 11.3084 13.3947Z" fill="white"/>
<path d="M23.5927 9.14895C23.4004 10.8442 24.1713 13.2314 25.6116 13.3947C27.0518 13.5581 29.0354 11.5505 29.2276 9.85522C29.4198 8.15998 28.3349 6.90242 26.8947 6.73909C25.4545 6.57576 23.7849 7.4537 23.5927 9.14895Z" fill="white"/>
<path fill-rule="evenodd" clip-rule="evenodd" d="M25.0961 11.3811C24.8257 10.7381 24.7125 9.92406 24.785 9.28416C24.8811 8.43671 25.771 7.81935 26.7595 7.93145C27.5207 8.01777 28.1552 8.66261 28.0352 9.72C27.9797 10.2099 27.6207 10.8972 27.0431 11.4694C26.4292 12.0776 25.9191 12.2219 25.7468 12.2024C25.6916 12.1961 25.3935 12.0882 25.0961 11.3811ZM25.6116 13.3947C24.1713 13.2314 23.4004 10.8442 23.5927 9.14895C23.7849 7.4537 25.4545 6.57576 26.8947 6.73909C28.3349 6.90242 29.4198 8.15998 29.2276 9.85522C29.0354 11.5505 27.0518 13.5581 25.6116 13.3947Z" fill="white"/>
<path fill-rule="evenodd" clip-rule="evenodd" d="M9.31554 9.14899C9.40695 8.94788 9.64409 8.85895 9.8452 8.95036C11.1583 9.54722 11.8249 11.0119 11.5652 12.5006C11.5272 12.7182 11.32 12.8638 11.1024 12.8259C10.8848 12.7879 10.7391 12.5807 10.7771 12.3631C10.9838 11.1781 10.447 10.1027 9.51417 9.67866C9.31306 9.58725 9.22413 9.35011 9.31554 9.14899Z" fill="white"/>
<path fill-rule="evenodd" clip-rule="evenodd" d="M27.7329 9.43519C27.6616 9.2261 27.4343 9.11439 27.2252 9.18569C26.6111 9.3951 26.0831 9.99806 25.7261 10.5608C25.5407 10.8532 25.3861 11.1586 25.277 11.4399C25.1716 11.7115 25.0948 11.9954 25.0963 12.2341C25.0978 12.455 25.2781 12.6329 25.499 12.6315C25.7199 12.63 25.8978 12.4497 25.8963 12.2288C25.8957 12.1403 25.9302 11.968 26.0228 11.7293C26.1117 11.5002 26.242 11.2411 26.4017 10.9893C26.735 10.4639 27.1381 10.0606 27.4834 9.94288C27.6925 9.87158 27.8042 9.64428 27.7329 9.43519Z" fill="white"/>
<path d="M30.1588 20.2785C30.1588 26.3103 26.4444 31.2 17.8792 31.2C9.31408 31.2 5.59961 26.3103 5.59961 20.2785C5.59961 13.0608 12.1172 10.734 17.8792 10.734C23.2634 10.734 30.1588 12.5859 30.1588 20.2785Z" fill="white"/>
<path fill-rule="evenodd" clip-rule="evenodd" d="M26.3873 27.1478C28.1092 25.4456 28.9588 23.0504 28.9588 20.2785C28.9588 16.8733 27.4736 14.8706 25.425 13.6531C23.2917 12.3852 20.4694 11.934 17.8792 11.934C15.1289 11.934 12.3097 12.4941 10.2194 13.8142C8.19728 15.0913 6.79961 17.1052 6.79961 20.2785C6.79961 23.0504 7.64921 25.4456 9.37112 27.1478C11.0903 28.8473 13.8249 30 17.8792 30C21.9335 30 24.6681 28.8473 26.3873 27.1478ZM17.8792 31.2C26.4444 31.2 30.1588 26.3103 30.1588 20.2785C30.1588 12.5859 23.2634 10.734 17.8792 10.734C12.1172 10.734 5.59961 13.0608 5.59961 20.2785C5.59961 26.3103 9.31408 31.2 17.8792 31.2Z" fill="white"/>
<path fill-rule="evenodd" clip-rule="evenodd" d="M18.2594 10.8779C18.5789 10.9659 18.7666 11.2962 18.6786 11.6157C18.6096 11.866 18.538 12.1081 18.468 12.3449C18.2808 12.9783 18.1049 13.5734 18.021 14.1849C18.0125 14.2473 18.0076 14.304 18.0014 14.3749C17.9985 14.4081 17.9954 14.4444 17.9914 14.486C17.9805 14.6022 17.964 14.7466 17.9264 14.8973C17.846 15.2187 17.5202 15.4142 17.1988 15.3338C16.8773 15.2534 16.6818 14.9277 16.7622 14.6062C16.7773 14.5458 16.7872 14.4742 16.7968 14.3731C16.7988 14.3516 16.8009 14.327 16.8033 14.3002C16.8104 14.2182 16.8193 14.1159 16.8321 14.0219C16.9294 13.3124 17.1439 12.5875 17.3389 11.9287C17.4036 11.7098 17.4662 11.4983 17.5216 11.297C17.6096 10.9776 17.9399 10.7899 18.2594 10.8779Z" fill="white"/>
<path fill-rule="evenodd" clip-rule="evenodd" d="M21.0548 11.1004C21.3183 11.1831 21.465 11.4636 21.3823 11.7271C21.2826 12.0451 21.1635 12.3541 21.051 12.6458C21.0428 12.6671 21.0346 12.6884 21.0264 12.7095C20.9047 13.0256 20.7919 13.3234 20.7031 13.6262L20.7031 13.6262C20.703 13.6268 20.7003 13.6371 20.6955 13.6675C20.6933 13.6811 20.6912 13.6952 20.6886 13.7129L20.6878 13.7181C20.685 13.737 20.6816 13.7598 20.6777 13.7833C20.6654 13.8583 20.6368 14.0304 20.5352 14.1828C20.382 14.4126 20.0716 14.4747 19.8418 14.3215C19.6225 14.1752 19.556 13.8857 19.6837 13.6598C19.6855 13.6517 19.688 13.6392 19.6911 13.6205C19.6935 13.606 19.6958 13.5905 19.6986 13.5715L19.6994 13.5659C19.7019 13.5492 19.7049 13.5293 19.708 13.5096C19.7147 13.4676 19.7252 13.4072 19.7435 13.3449C19.8453 12.9975 19.9723 12.6641 20.0933 12.35C20.1006 12.3309 20.108 12.3119 20.1153 12.2929C20.2303 11.9946 20.3385 11.714 20.4282 11.4279C20.5108 11.1644 20.7914 11.0178 21.0548 11.1004ZM19.6807 13.6713C19.6807 13.6713 19.6808 13.6709 19.6811 13.6702C19.6808 13.6709 19.6807 13.6713 19.6807 13.6713Z" fill="white"/>
<path fill-rule="evenodd" clip-rule="evenodd" d="M15.2947 11.1729C15.5682 11.2113 15.7587 11.4641 15.7204 11.7375C15.6881 11.9671 15.664 12.1978 15.6388 12.4388C15.6325 12.4992 15.6261 12.5603 15.6195 12.6222C15.5871 12.9254 15.5501 13.2421 15.4918 13.5577C15.4656 13.6996 15.4531 13.8275 15.4531 13.9657C15.4531 14.2419 15.2293 14.4657 14.9531 14.4657C14.677 14.4657 14.4531 14.2419 14.4531 13.9657C14.4531 13.7615 14.4722 13.5726 14.5085 13.376C14.5594 13.1003 14.5932 12.8156 14.6251 12.5161C14.6312 12.459 14.6373 12.4012 14.6434 12.3427C14.6687 12.1001 14.6952 11.8473 14.7301 11.5985C14.7685 11.3251 15.0213 11.1345 15.2947 11.1729Z" fill="white"/>
<path d="M14.5686 20.1352C14.5686 20.6281 14.1291 21.0276 13.587 21.0276C13.0449 21.0276 12.6055 20.6281 12.6055 20.1352C12.6055 19.6424 13.0449 19.2429 13.587 19.2429C14.1291 19.2429 14.5686 19.6424 14.5686 20.1352Z" fill="white"/>
<path d="M22.5998 20.1352C22.5998 20.6281 22.1604 21.0276 21.6183 21.0276C21.0762 21.0276 20.6367 20.6281 20.6367 20.1352C20.6367 19.6424 21.0762 19.2429 21.6183 19.2429C22.1604 19.2429 22.5998 19.6424 22.5998 20.1352Z" fill="white"/>
<path fill-rule="evenodd" clip-rule="evenodd" d="M17.6174 22.1614C17.84 22.1614 18.0204 22.3418 18.0204 22.5644C18.0204 23.2479 17.6328 23.8074 17.0867 24.1301C16.8401 24.2758 16.5609 24.3741 16.2418 24.3741C16.1138 24.3741 15.9864 24.3606 15.8855 24.3499C15.882 24.3496 15.8785 24.3492 15.8751 24.3488C15.3059 24.2887 14.8765 23.8627 14.6223 23.566C14.4775 23.397 14.4972 23.1426 14.6662 22.9978C14.8352 22.853 15.0896 22.8727 15.2344 23.0417C15.4778 23.3258 15.7273 23.5228 15.9598 23.5473C16.0709 23.5591 16.1594 23.5681 16.2418 23.5681C16.3865 23.5681 16.5253 23.5256 16.6767 23.4362C17.0179 23.2346 17.2144 22.9188 17.2144 22.5644C17.2144 22.3418 17.3949 22.1614 17.6174 22.1614Z" fill="white"/>
<path fill-rule="evenodd" clip-rule="evenodd" d="M17.6175 22.2308C17.395 22.2308 17.2145 22.4113 17.2145 22.6338C17.2145 23.3571 17.7358 23.9031 18.2375 24.1995C18.4841 24.3453 18.7633 24.4436 19.0824 24.4436C19.2104 24.4436 19.3378 24.4301 19.4388 24.4194C19.4422 24.419 19.4457 24.4187 19.4491 24.4183C20.0183 24.3581 20.4477 23.9322 20.7019 23.6355C20.8467 23.4664 20.827 23.212 20.658 23.0673C20.489 22.9225 20.2346 22.9421 20.0898 23.1111C19.8464 23.3953 19.5969 23.5922 19.3644 23.6168C19.2533 23.6285 19.1648 23.6376 19.0824 23.6376C18.9377 23.6376 18.7989 23.5951 18.6476 23.5057C18.2619 23.2778 18.0205 22.9485 18.0205 22.6338C18.0205 22.4113 17.8401 22.2308 17.6175 22.2308Z" fill="white"/>
<path d="M18.7763 21.8158C18.7763 22.4759 18.4194 22.8119 17.7056 22.8119C16.9025 22.8119 16.6348 22.4759 16.6348 21.8158C16.6348 21.1556 17.2148 20.6703 17.7056 20.6703C18.1963 20.6703 18.7763 21.1556 18.7763 21.8158Z" fill="white"/>
</svg>
