<svg width="90" height="90" viewBox="0 0 90 90" fill="none" xmlns="http://www.w3.org/2000/svg">
<g clip-path="url(#clip0_1049_3532)">
<rect width="90" height="90" rx="45" fill="#FFE28D"/>
<path d="M12.2024 48.6173C13.5334 31.9053 27.4837 19.022 44.2487 19.022C60.7565 19.022 74.5814 31.525 76.2348 47.9499L79.295 78.35C81.364 98.904 65.2264 116.748 44.5684 116.748C24.2001 116.748 8.15946 99.3786 9.77659 79.0746L12.2024 48.6173Z" fill="white" stroke="#333333" stroke-width="3"/>
<path fill-rule="evenodd" clip-rule="evenodd" d="M18.6459 50.1227L14.1147 99.5025L76.0323 100.171L69.8878 49.904C69.8731 43.4274 64.6183 38.1816 58.1383 38.1816C52.312 38.1816 47.4762 42.4223 46.549 47.9854L41.9906 48.0304C41.0821 42.4452 36.236 38.1816 30.394 38.1816C23.9049 38.1816 18.6444 43.4421 18.6444 49.9312C18.6444 49.9952 18.6449 50.059 18.6459 50.1227Z" fill="white"/>
<path d="M14.1147 99.5025L12.621 99.3654L12.4724 100.985L14.0986 101.002L14.1147 99.5025ZM18.6459 50.1227L20.1397 50.2597L20.147 50.1794L20.1457 50.0987L18.6459 50.1227ZM76.0323 100.171L76.0161 101.671L77.729 101.689L77.5212 99.989L76.0323 100.171ZM69.8878 49.904L68.3878 49.9074L68.388 49.997L68.3989 50.086L69.8878 49.904ZM46.549 47.9854L46.5638 49.4853L47.8218 49.4729L48.0286 48.232L46.549 47.9854ZM41.9906 48.0304L40.5101 48.2712L40.717 49.543L42.0054 49.5303L41.9906 48.0304ZM15.6085 99.6395L20.1397 50.2597L17.1522 49.9856L12.621 99.3654L15.6085 99.6395ZM76.0485 98.6711L14.1309 98.0026L14.0986 101.002L76.0161 101.671L76.0485 98.6711ZM68.3989 50.086L74.5434 100.353L77.5212 99.989L71.3768 49.722L68.3989 50.086ZM71.3878 49.9006C71.3712 42.5971 65.4456 36.6816 58.1383 36.6816V39.6816C63.791 39.6816 68.375 44.2577 68.3878 49.9074L71.3878 49.9006ZM58.1383 36.6816C51.5667 36.6816 46.1152 41.4643 45.0695 47.7388L48.0286 48.232C48.8372 43.3802 53.0573 39.6816 58.1383 39.6816V36.6816ZM42.0054 49.5303L46.5638 49.4853L46.5342 46.4855L41.9758 46.5305L42.0054 49.5303ZM43.4712 47.7896C42.4465 41.4901 36.9832 36.6816 30.394 36.6816V39.6816C35.4887 39.6816 39.7178 43.4002 40.5101 48.2712L43.4712 47.7896ZM30.394 36.6816C23.0765 36.6816 17.1444 42.6137 17.1444 49.9312H20.1444C20.1444 44.2705 24.7333 39.6816 30.394 39.6816V36.6816ZM17.1444 49.9312C17.1444 50.0032 17.145 50.0749 17.1461 50.1466L20.1457 50.0987C20.1449 50.043 20.1444 49.9872 20.1444 49.9312H17.1444Z" fill="#222222"/>
<path d="M52.9289 54.3789C52.9289 57.5303 49.5753 60.6 44.7259 60.6C39.8766 60.6 36.523 57.5303 36.523 54.3789C36.523 51.2275 39.8766 48.1578 44.7259 48.1578C49.5753 48.1578 52.9289 51.2275 52.9289 54.3789Z" stroke="#F9B900" stroke-width="2.8"/>
<line x1="37.4043" y1="54.1" x2="52.0475" y2="54.1" stroke="#F9B900" stroke-width="1.8"/>
<circle cx="30.689" cy="48.2286" r="2.29498" fill="black"/>
<circle cx="57.9908" cy="48.2286" r="2.29498" fill="black"/>
<circle cx="-18.9565" cy="4.39213" r="22.4273" fill="#6A41BF"/>
</g>
<defs>
<clipPath id="clip0_1049_3532">
<rect width="90" height="90" rx="45" fill="white"/>
</clipPath>
</defs>
</svg>
