<svg width="90" height="90" viewBox="0 0 90 90" fill="none" xmlns="http://www.w3.org/2000/svg">
<g clip-path="url(#clip0_1049_3440)">
<rect width="90" height="90" rx="45" fill="#FFE28D"/>
<mask id="path-2-inside-1_1049_3440" fill="white">
<path fill-rule="evenodd" clip-rule="evenodd" d="M44.7401 14C26.5698 14 17.166 26.9654 17.166 41.0461C17.166 50.8022 21.7362 56.534 27.8494 59.7345C14.0088 65.5047 7.80078 79.0197 7.80078 94.772C7.80078 119.9 27.1585 128 44.2718 128C60.263 128 80.7429 121.553 80.7429 94.772C80.7429 79.1409 74.63 65.7128 61.0124 59.8691C67.5292 56.5817 72.3143 50.6804 72.3143 41.0461C72.3143 26.9654 62.9105 14 44.7401 14Z"/>
</mask>
<path fill-rule="evenodd" clip-rule="evenodd" d="M44.7401 14C26.5698 14 17.166 26.9654 17.166 41.0461C17.166 50.8022 21.7362 56.534 27.8494 59.7345C14.0088 65.5047 7.80078 79.0197 7.80078 94.772C7.80078 119.9 27.1585 128 44.2718 128C60.263 128 80.7429 121.553 80.7429 94.772C80.7429 79.1409 74.63 65.7128 61.0124 59.8691C67.5292 56.5817 72.3143 50.6804 72.3143 41.0461C72.3143 26.9654 62.9105 14 44.7401 14Z" fill="white"/>
<path d="M27.8494 59.7345L29.1577 62.8727L35.8471 60.0839L29.4264 56.7224L27.8494 59.7345ZM61.0124 59.8691L59.4811 56.8335L52.9703 60.1178L59.6716 62.9936L61.0124 59.8691ZM20.566 41.0461C20.566 34.7445 22.6691 28.8429 26.6361 24.5504C30.5597 20.305 36.5188 17.4 44.7401 17.4V10.6C34.7911 10.6 26.9631 14.1777 21.6422 19.9352C16.3648 25.6456 13.766 33.267 13.766 41.0461H20.566ZM29.4264 56.7224C26.8056 55.3503 24.6307 53.4997 23.0989 51.0474C21.5728 48.6043 20.566 45.3741 20.566 41.0461H13.766C13.766 46.4743 15.0442 50.988 17.3316 54.6499C19.6132 58.3026 22.78 60.9182 26.2724 62.7467L29.4264 56.7224ZM26.5411 56.5963C11.0031 63.0741 4.40078 78.1834 4.40078 94.772H11.2008C11.2008 79.8559 17.0146 67.9352 29.1577 62.8727L26.5411 56.5963ZM4.40078 94.772C4.40078 108.335 9.69009 117.689 17.5959 123.542C25.3443 129.277 35.2556 131.4 44.2718 131.4V124.6C36.1747 124.6 27.8506 122.672 21.6418 118.076C15.5903 113.596 11.2008 106.336 11.2008 94.772H4.40078ZM44.2718 131.4C52.6297 131.4 62.5357 129.73 70.4476 124.219C78.5626 118.565 84.1429 109.169 84.1429 94.772H77.3429C77.3429 107.156 72.6832 114.374 66.5606 118.639C60.2347 123.046 51.9052 124.6 44.2718 124.6V131.4ZM84.1429 94.772C84.1429 78.313 77.6452 63.3068 62.3532 56.7446L59.6716 62.9936C71.6149 68.1187 77.3429 79.9687 77.3429 94.772H84.1429ZM68.9143 41.0461C68.9143 49.2663 64.9734 54.0629 59.4811 56.8335L62.5437 62.9047C70.0851 59.1005 75.7143 52.0944 75.7143 41.0461H68.9143ZM44.7401 17.4C52.9615 17.4 58.9206 20.305 62.8441 24.5504C66.8112 28.8429 68.9143 34.7445 68.9143 41.0461H75.7143C75.7143 33.267 73.1155 25.6456 67.8381 19.9352C62.5171 14.1777 54.6892 10.6 44.7401 10.6V17.4Z" fill="#222222" mask="url(#path-2-inside-1_1049_3440)"/>
<path d="M22.4871 64.7955L15.8436 58.2068M5.67442 47.4923L15.8436 58.2068M5.75693 60.3235L15.8436 58.2068" stroke="#222222" stroke-width="4.18468"/>
<path d="M68.7264 66.1839L74.3277 58.6891M82.809 46.5945L74.3277 58.6891M84.6161 59.298L74.3277 58.6891" stroke="#222222" stroke-width="4.18468"/>
<circle cx="46.9232" cy="65.3543" r="1.93781" fill="#333333"/>
<circle cx="46.9232" cy="76.2322" r="1.93781" fill="#333333"/>
<circle cx="35.4679" cy="38.8932" r="2.28769" fill="black"/>
<circle cx="54.503" cy="38.8932" r="2.28769" fill="black"/>
<path d="M42.9638 36.9534C43.5977 34.9917 46.3731 34.9917 47.0069 36.9534L48.1155 40.3844C48.5588 41.7563 47.5358 43.162 46.094 43.162H43.8768C42.435 43.162 41.412 41.7563 41.8553 40.3844L42.9638 36.9534Z" fill="#FFA132"/>
<path d="M39.3201 47.8511C40.9622 48.6721 45.5272 49.8216 50.6505 47.8511" stroke="black" stroke-width="2.8326" stroke-linecap="round" stroke-linejoin="round"/>
</g>
<defs>
<clipPath id="clip0_1049_3440">
<rect width="90" height="90" rx="45" fill="white"/>
</clipPath>
</defs>
</svg>
