<svg width="90" height="90" viewBox="0 0 90 90" fill="none" xmlns="http://www.w3.org/2000/svg">
<g clip-path="url(#clip0_1049_3472)">
<rect width="90" height="90" rx="45" fill="#FFE28D"/>
<path d="M78.6587 52.4834L78.6584 52.4792C78.3962 48.7934 76.7805 45.2523 74.2326 42.6528L73.2712 41.6718L73.9957 40.5048C74.3804 39.8851 74.6825 39.3923 74.9131 38.8464L74.926 38.8159L74.94 38.786C76.0893 36.3288 76.5806 33.7275 76.4134 30.9956C76.3955 30.8997 76.3847 30.8209 76.378 30.7725L76.3765 30.7614C76.3701 30.7148 76.3672 30.697 76.3664 30.692L76.336 30.5659L76.3247 30.4333C76.0971 27.7626 75.3072 25.3677 73.8936 23.2104L73.8884 23.2025C71.7601 19.9159 68.4495 17.6544 64.7593 16.9283C61.0542 16.1994 57.1567 17.0047 53.9999 19.1969L53.9824 19.209L53.9646 19.2207C53.5987 19.4619 53.2538 19.7454 52.8251 20.1005L51.5764 21.135L50.4499 19.9685C50.2162 19.7266 50.0375 19.543 49.8752 19.3969L46.7214 17.1924C44.5259 16.0961 42.2134 15.6189 39.7922 15.7808C39.1738 15.9237 38.5502 16.057 37.9433 16.1867L37.9353 16.1884C37.3172 16.3205 36.7161 16.4489 36.1268 16.5853C33.8564 17.4763 31.9659 18.8065 30.3912 20.6245C30.0915 20.9791 29.876 21.2383 29.6984 21.5142L29.1656 22.3417L28.1817 22.3163C26.7341 22.2788 25.3312 22.5019 23.9186 23.0265C21.8912 23.7906 20.1807 24.9618 18.754 26.6285L18.7524 26.6304C17.3016 28.3206 16.3794 30.3239 15.9307 32.6061C15.8659 32.9426 15.8309 33.2917 15.7881 33.7354L15.717 34.4715L15.1395 34.9336C14.339 35.5742 13.5846 36.349 12.8288 37.2134C10.6534 39.7856 9.24718 42.7398 8.63583 46.103C8.02082 49.4864 8.25035 52.7752 9.32677 56.0396L9.33066 56.0514L9.33062 56.0514C9.33992 56.0803 9.34817 56.1071 9.35453 56.128L9.36358 56.1578L9.36839 56.1737L9.41648 56.2484L9.4851 56.4464C10.5595 59.5458 12.2755 62.1883 14.6368 64.3603C17.1287 66.5808 19.9313 68.0231 23.1018 68.6485C26.2566 69.2707 29.3612 69.0489 32.4081 67.979C32.7791 67.7861 33.144 67.5923 33.5165 67.3945L33.5195 67.3929C33.924 67.1781 34.3376 66.9585 34.763 66.7382L35.9792 66.1085L36.8828 67.1377C37.3055 67.6193 37.6659 68.0279 38.0502 68.3908C40.4168 70.5436 43.1446 71.25 46.4952 71.25C49.4191 71.25 52.1167 69.6634 54.0359 67.1792L54.9959 65.9366L56.3349 66.7568C58.9316 68.3475 61.8339 68.9177 65.2222 68.9177C68.6906 68.9177 72.6194 66.6368 75.0216 63.794L78.6587 52.4834ZM78.6587 52.4834C78.9591 56.5655 77.6016 60.7344 75.0216 63.7939L78.6587 52.4834Z" fill="white" stroke="#222222" stroke-width="3.5"/>
<path d="M32.5 52.5C33.1232 55.8719 30.6087 99.0661 30.6087 101.314L64.8841 103L59.2754 55L64.8841 41.5L53.884 48.5L47 35L40.116 48.5L28.5 43.5C28.5 43.5 32.0014 49.8025 32.5 52.5Z" fill="white" stroke="black" stroke-width="3" stroke-linejoin="round"/>
<path d="M39.8955 65.9556C41.8424 67.3072 47.2547 69.1995 53.329 65.9556" stroke="#FE6C6C" stroke-width="2.77719" stroke-linecap="round" stroke-linejoin="round"/>
<circle cx="41.2429" cy="59.2429" r="2.24293" fill="#222222"/>
<circle cx="52.5759" cy="59.2429" r="2.24293" fill="#222222"/>
</g>
<defs>
<clipPath id="clip0_1049_3472">
<rect width="90" height="90" rx="45" fill="white"/>
</clipPath>
</defs>
</svg>
