<svg width="90" height="90" viewBox="0 0 90 90" fill="none" xmlns="http://www.w3.org/2000/svg">
<rect width="90" height="90" rx="45" fill="#FFE28D"/>
<path d="M31.8276 23.0414C32.0385 24.9008 31.7162 27.1941 30.9423 29.0342C30.1346 30.9545 29.071 31.8864 28.1019 31.9963C26.9863 32.1229 25.2788 31.3661 23.6365 29.7392C22.0395 28.1571 20.9108 26.1408 20.7213 24.469C20.331 21.0282 22.4802 18.6502 25.2321 18.3381C28.2679 17.9939 31.4672 19.863 31.8276 23.0414Z" fill="white" stroke="#222222" stroke-width="3"/>
<path d="M60.4748 23.0414C60.264 24.9008 60.5863 27.1941 61.3602 29.0342C62.1679 30.9545 63.2315 31.8864 64.2006 31.9963C65.3162 32.1229 67.0237 31.3661 68.666 29.7392C70.263 28.1571 71.3916 26.1408 71.5812 24.469C71.9714 21.0282 69.8223 18.6502 67.0704 18.3381C64.0346 17.9939 60.8353 19.863 60.4748 23.0414Z" fill="white" stroke="#222222" stroke-width="3"/>
<path d="M24.2036 23.2866C27.0111 24.5627 28.5152 27.7378 27.9322 31.0799" stroke="#222222" stroke-width="2" stroke-linecap="round"/>
<path d="M68.3845 23.9102C65.9861 24.728 63.7288 28.9416 63.7396 30.5781" stroke="#222222" stroke-width="2" stroke-linecap="round"/>
<mask id="path-6-inside-1_1049_3495" fill="white">
<path d="M75.398 50.6961C75.398 65.7756 66.1119 78 44.699 78C23.2862 78 14 65.7756 14 50.6961C14 32.6519 30.2941 26.835 44.699 26.835C58.1594 26.835 75.398 31.4647 75.398 50.6961Z"/>
</mask>
<path d="M75.398 50.6961C75.398 65.7756 66.1119 78 44.699 78C23.2862 78 14 65.7756 14 50.6961C14 32.6519 30.2941 26.835 44.699 26.835C58.1594 26.835 75.398 31.4647 75.398 50.6961Z" fill="white"/>
<path d="M44.699 26.835V29.835V26.835ZM72.398 50.6961C72.398 57.6261 70.274 63.6138 65.9693 67.8694C61.6713 72.1182 54.8348 75 44.699 75V81C55.9761 81 64.4891 77.7696 70.1874 72.1364C75.879 66.5099 78.398 58.8457 78.398 50.6961H72.398ZM44.699 75C34.5633 75 27.7268 72.1182 23.4288 67.8694C19.124 63.6138 17 57.6261 17 50.6961H11C11 58.8457 13.5191 66.5099 19.2106 72.1364C24.9089 77.7696 33.4219 81 44.699 81V75ZM17 50.6961C17 42.7629 20.4942 37.7281 25.5496 34.5355C30.7751 31.2353 37.8233 29.835 44.699 29.835V23.835C37.1698 23.835 28.8685 25.3431 22.3458 29.4624C15.6529 33.6893 11 40.5851 11 50.6961H17ZM44.699 29.835C51.1746 29.835 58.2304 30.9631 63.5634 34.1327C68.6849 37.1765 72.398 42.1833 72.398 50.6961H78.398C78.398 39.9776 73.4918 33.0538 66.6289 28.9749C59.9775 25.0218 51.6838 23.835 44.699 23.835V29.835Z" fill="#222222" mask="url(#path-6-inside-1_1049_3495)"/>
<path d="M45.2541 28.6406C44.6595 30.7996 43.8762 33.0268 43.5703 35.2583C43.4961 35.7992 43.4964 36.3513 43.3645 36.8791" stroke="#222222" stroke-width="3" stroke-linecap="round"/>
<path d="M52.2623 28.9434C51.7563 30.5569 51.0339 32.088 50.5575 33.7134C50.4663 34.0243 50.4759 34.4951 50.2971 34.7632" stroke="#222222" stroke-width="2.5" stroke-linecap="round"/>
<path d="M38.0643 29.1699C37.8552 30.6596 37.7748 32.1888 37.5016 33.6671C37.4234 34.0901 37.384 34.4861 37.384 34.9142" stroke="#222222" stroke-width="2.5" stroke-linecap="round"/>
<ellipse cx="33.9717" cy="50.3377" rx="2.45389" ry="2.23081" fill="#222222"/>
<ellipse cx="54.0493" cy="50.3377" rx="2.45389" ry="2.23081" fill="#222222"/>
<path d="M37.3184 58.2598C37.9403 58.9859 38.789 59.7646 39.7911 59.8705C40.0581 59.8987 40.3334 59.928 40.6019 59.928C41.1817 59.928 41.7042 59.752 42.2016 59.4581C43.3108 58.8026 44.041 57.7086 44.041 56.4111" stroke="#222222" stroke-width="2.01492" stroke-linecap="round"/>
<path d="M50.9902 58.4327C50.3683 59.1587 49.5196 59.9374 48.5175 60.0433C48.2505 60.0715 47.9752 60.1009 47.7067 60.1009C47.1269 60.1009 46.6044 59.9249 46.107 59.6309C44.9978 58.9755 44.0445 57.8814 44.0445 56.584" stroke="#222222" stroke-width="2.01492" stroke-linecap="round"/>
<path d="M46.9448 54.54C46.9448 56.1904 46.0524 57.0302 44.2678 57.0302C42.2601 57.0302 41.5908 56.1904 41.5908 54.54C41.5908 52.8896 43.0408 51.6763 44.2678 51.6763C45.4947 51.6763 46.9448 52.8896 46.9448 54.54Z" fill="#9C6B0C"/>
</svg>
