<svg width="145" height="140" viewBox="0 0 145 140" fill="none" xmlns="http://www.w3.org/2000/svg">
    <path d="M56.7937 11.6635C57.1449 14.7604 56.6116 18.5411 55.3291 21.5906C54.0144 24.7163 52.1363 26.6026 50.0852 26.8352C47.8949 27.0835 44.9293 25.6409 42.2705 23.007C39.6547 20.4157 37.7286 17.0472 37.3976 14.1284C36.7252 8.1987 40.4698 3.9656 45.3448 3.41276C50.4895 2.82933 56.1495 5.98306 56.7937 11.6635Z" fill="white" stroke="#222222" stroke-width="2.84927"/>
    <path d="M100.122 11.6635C99.7711 14.7604 100.304 18.5411 101.587 21.5906C102.902 24.7163 104.78 26.6026 106.831 26.8352C109.021 27.0835 111.987 25.6409 114.646 23.007C117.261 20.4157 119.187 17.0472 119.518 14.1284C120.191 8.1987 116.446 3.9656 111.571 3.41276C106.426 2.82933 100.766 5.98306 100.122 11.6635Z" fill="white" stroke="#222222" stroke-width="2.84927"/>
    <path d="M43.8262 12.1562C48.2559 14.1697 50.6291 19.1794 49.7093 24.4526" stroke="#222222" stroke-width="2.84927" stroke-linecap="round"/>
    <path d="M113.535 13.1445C109.751 14.435 106.189 21.0833 106.206 23.6654" stroke="#222222" stroke-width="2.84927" stroke-linecap="round"/>
    <path d="M123.747 87.574C103.582 84.6035 88.0459 107.375 82.7984 119.132L87.9808 123.722C96.9519 110.815 110.056 107.819 115.487 107.935C111.333 117.961 122.755 125.48 132.609 121.566C145.161 116.58 148.954 91.287 123.747 87.574Z" fill="white" stroke="#222222" stroke-width="2.84927" stroke-linejoin="round"/>
    <mask id="path-6-inside-1_1806_38799" fill="white">
        <path fill-rule="evenodd" clip-rule="evenodd" d="M92.628 96.6858C114.766 91.3711 124.602 74.9009 124.602 55.4065C124.602 25.0628 97.4022 17.7578 76.1641 17.7578C53.4357 17.7578 27.7266 26.9359 27.7266 55.4065C27.7266 74.8633 37.5248 91.3074 59.572 96.6548C57.1627 99.4092 55.7423 103.294 55.7423 108.606C55.7423 119.803 61.8472 128.879 75.9246 128.879C90.0019 128.879 96.1069 119.803 96.1069 108.606C96.1069 103.225 94.8237 99.3838 92.628 96.6858Z"/>
    </mask>
    <path fill-rule="evenodd" clip-rule="evenodd" d="M92.628 96.6858C114.766 91.3711 124.602 74.9009 124.602 55.4065C124.602 25.0628 97.4022 17.7578 76.1641 17.7578C53.4357 17.7578 27.7266 26.9359 27.7266 55.4065C27.7266 74.8633 37.5248 91.3074 59.572 96.6548C57.1627 99.4092 55.7423 103.294 55.7423 108.606C55.7423 119.803 61.8472 128.879 75.9246 128.879C90.0019 128.879 96.1069 119.803 96.1069 108.606C96.1069 103.225 94.8237 99.3838 92.628 96.6858Z" fill="white"/>
    <path d="M92.628 96.6858L91.9629 93.9152C91.0106 94.1439 90.2425 94.8455 89.9289 95.7732C89.6152 96.7009 89.8 97.7247 90.4181 98.4843L92.628 96.6858ZM59.572 96.6548L61.7166 98.5308C62.3725 97.781 62.5891 96.7431 62.288 95.7935C61.9869 94.844 61.2117 94.1207 60.2436 93.8858L59.572 96.6548ZM121.752 55.4065C121.752 64.6825 119.414 73.055 114.609 79.6927C109.823 86.3022 102.444 91.399 91.9629 93.9152L93.2932 99.4563C104.95 96.6579 113.557 90.8622 119.224 83.0344C124.871 75.2348 127.451 65.6249 127.451 55.4065H121.752ZM76.1641 20.6071C86.5413 20.6071 98.0628 22.4054 106.891 27.6526C115.519 32.7803 121.752 41.2821 121.752 55.4065H127.451C127.451 39.1872 120.085 28.8646 109.803 22.7539C99.7223 16.7627 87.025 14.9085 76.1641 14.9085V20.6071ZM30.5758 55.4065C30.5758 42.2054 36.4529 33.677 44.9436 28.3147C53.596 22.8504 65.1103 20.6071 76.1641 20.6071V14.9085C64.4896 14.9085 51.7851 17.2542 41.9008 23.4966C31.8548 29.841 24.8773 40.137 24.8773 55.4065H30.5758ZM60.2436 93.8858C49.8076 91.3547 42.4583 86.2574 37.6919 79.6541C32.9051 73.0226 30.5758 64.6646 30.5758 55.4065H24.8773C24.8773 65.6051 27.4471 75.1976 33.0713 82.9893C38.7158 90.8091 47.2892 96.6076 58.9004 99.4238L60.2436 93.8858ZM58.5915 108.606C58.5915 103.817 59.8609 100.652 61.7166 98.5308L57.4274 94.7789C54.4646 98.1661 52.893 102.771 52.893 108.606H58.5915ZM75.9246 126.03C69.5314 126.03 65.3214 123.993 62.6768 121.041C59.9845 118.035 58.5915 113.717 58.5915 108.606H52.893C52.893 114.692 54.5525 120.511 58.432 124.843C62.3593 129.227 68.2405 131.729 75.9246 131.729V126.03ZM93.2576 108.606C93.2576 113.717 91.8647 118.035 89.1723 121.041C86.5278 123.993 82.3178 126.03 75.9246 126.03V131.729C83.6087 131.729 89.4899 129.227 93.4172 124.843C97.2966 120.511 98.9562 114.692 98.9562 108.606H93.2576ZM90.4181 98.4843C92.0861 100.534 93.2576 103.673 93.2576 108.606H98.9562C98.9562 102.777 97.5614 98.2338 94.838 94.8873L90.4181 98.4843Z" fill="#222222" mask="url(#path-6-inside-1_1806_38799)"/>
    <path d="M69.3887 126.746H76.037V136.956H69.3887V126.746Z" fill="#222222"/>
    <path d="M79.8359 126.027H86.4842V136.95H79.8359V126.027Z" fill="#222222"/>
    <path d="M76.0366 136.949C76.0366 138.848 73.9105 139.323 71.2878 139.323C68.6652 139.323 66.5391 139.323 66.5391 136.949C66.5391 134.574 68.6652 134.574 71.2878 134.574C73.9105 134.574 76.0366 135.637 76.0366 136.949Z" fill="#222222"/>
    <path d="M86.4819 136.949C86.4819 138.848 84.3558 139.323 81.7332 139.323C79.1105 139.323 76.9844 139.323 76.9844 136.949C76.9844 134.574 79.1105 134.574 81.7332 134.574C84.3558 134.574 86.4819 135.637 86.4819 136.949Z" fill="#222222"/>
    <path d="M67.4429 101.145C65.4959 100.076 63.3273 103.252 62.4863 104.973L63.169 109.485L67.4429 110.612C67.9672 109.88 69.2118 108.131 69.9953 106.991C70.9748 105.567 69.8766 102.48 67.4429 101.145Z" fill="white"/>
    <path d="M80.9473 102.043C78.8385 102.739 79.6846 106.491 80.3712 108.279L87.8759 108.495C87.6975 107.613 87.2657 105.51 86.9657 104.16C86.5906 102.472 83.5833 101.172 80.9473 102.043Z" fill="white"/>
    <path d="M71.0322 20.4883C69.7591 24.1606 68.0819 27.9491 67.4269 31.7448C67.2681 32.6649 67.2688 33.6041 66.9863 34.5018" stroke="#222222" stroke-width="4.74878" stroke-linecap="round"/>
    <path d="M80.3702 20.4883C79.5719 23.0342 78.432 25.4499 77.6803 28.0146C77.5365 28.5051 77.5515 29.2479 77.2695 29.6709" stroke="#222222" stroke-width="3.79903" stroke-linecap="round"/>
    <path d="M62.0072 21.3125C61.6773 23.6629 60.0638 26.9033 59.6328 29.2356C59.5094 29.9031 59.4473 30.5279 59.4473 31.2033" stroke="#222222" stroke-width="3.79903" stroke-linecap="round"/>
    <ellipse cx="53.2364" cy="56.3118" rx="3.20904" ry="2.91731" fill="#222222"/>
    <ellipse cx="77.2676" cy="56.3118" rx="3.20904" ry="2.91731" fill="#222222"/>
    <path d="M53.6934 68.0622C54.5067 69.0116 55.6165 70.0299 56.9271 70.1684C57.2762 70.2054 57.6362 70.2437 57.9873 70.2437C58.7456 70.2437 59.4289 70.0135 60.0793 69.6292C61.5299 68.772 62.4848 67.3412 62.4848 65.6445" stroke="#222222" stroke-width="2.91731" stroke-linecap="round"/>
    <path d="M73.707 68.0622C72.8937 69.0116 71.7839 70.0299 70.4733 70.1684C70.1241 70.2054 69.7642 70.2437 69.4131 70.2437C68.6548 70.2437 67.9715 70.0135 67.321 69.6292C65.8705 68.772 64.6238 67.3412 64.6238 65.6445" stroke="#222222" stroke-width="2.91731" stroke-linecap="round"/>
    <path d="M67.6695 62.9716C67.6695 65.1298 66.5026 66.2281 64.1687 66.2281C61.5432 66.2281 60.668 65.1298 60.668 62.9716C60.668 60.8133 62.5642 59.2266 64.1687 59.2266C65.7733 59.2266 67.6695 60.8133 67.6695 62.9716Z" fill="#222222"/>
    <path d="M95.3427 109.067C103.059 102.656 119.505 95.3434 126.922 99.4507C137.797 105.473 133.512 118.613 128.721 122.081" stroke="#222222" stroke-width="3.79903" stroke-linecap="round" stroke-linejoin="round"/>
    <path d="M114.679 107.91C116.05 107.827 119.25 108.299 121.077 110.852" stroke="#222222" stroke-width="2.84927" stroke-linecap="round" stroke-linejoin="round"/>
    <path d="M60.6431 99.793L63.1617 106.011L58.8949 108.841L55.2965 108.378L53.3438 106.682L53.7556 103.752L55.4005 101.438L60.6431 99.793Z" fill="white"/>
    <path d="M61.957 107.51C59.4945 109.301 55.1907 111.209 53.176 106.777C51.1612 102.344 57.1118 100.73 60.6936 100.282" stroke="#222222" stroke-width="2.84927" stroke-linecap="round"/>
    <path d="M71.1216 99.8633L73.6402 106.082L69.3734 108.911L65.775 108.449L63.8223 106.752L64.2341 103.822L65.879 101.509L71.1216 99.8633Z" fill="white"/>
    <path d="M79.2252 62.7188C72.0958 62.7188 70.1909 55.2869 71.052 50.4175C71.0895 50.2055 71.3673 50.1445 71.4883 50.3224C71.8632 50.8734 72.1967 51.6692 72.7494 51.6001C73.5801 51.4963 74.1556 44.1662 79.0789 42.1037C79.2352 42.0383 79.3987 42.1624 79.3815 42.3309C79.138 44.7195 80.5722 48.1391 83.1129 48.1391C84.5694 48.1391 85.566 46.9767 86.0639 45.8093C86.2152 45.4547 86.7333 45.4994 86.8201 45.875C87.7086 49.7234 90.084 62.7188 79.2252 62.7188Z" fill="#FF8F1F"/>
    <path d="M51.5396 62.7188C44.4103 62.7188 42.5054 55.2869 43.3664 50.4175C43.4039 50.2055 43.6817 50.1445 43.8028 50.3224C44.1776 50.8734 44.5112 51.6692 45.0639 51.6001C45.8946 51.4963 46.4701 44.1662 51.3934 42.1037C51.5496 42.0383 51.7131 42.1624 51.696 42.3309C51.4525 44.7195 52.8866 48.1391 55.4274 48.1391C56.8839 48.1391 57.8804 46.9767 58.3784 45.8093C58.5296 45.4547 59.0478 45.4994 59.1345 45.875C60.0231 49.7234 62.3984 62.7188 51.5396 62.7188Z" fill="#FF8F1F"/>
    <path d="M77.0195 55.5186C77.1872 55.3777 77.4417 55.4744 77.4798 55.69C77.5688 56.1946 77.8617 57.0618 78.8224 57.0618C79.9781 57.0618 80.7623 53.8819 80.968 52.9466C81.0019 52.7928 81.1518 52.6883 81.3062 52.7197C84.1943 53.3069 85.5985 62.6849 79.2484 62.6849C74.6256 62.6849 75.6729 56.6498 77.0195 55.5186ZM84.9112 45.3626C85.013 44.5665 83.5597 46.7439 83.5597 46.7439C83.5597 46.7439 84.6677 47.2672 84.9112 45.3626ZM70.2681 57.2352C70.2987 56.8963 69.8627 55.9889 69.7855 56.3482C69.6008 57.2077 70.2374 57.5741 70.2681 57.2352Z" fill="#FFB636"/>
    <path d="M49.332 55.5186C49.4997 55.3777 49.7542 55.4744 49.7923 55.69C49.8813 56.1946 50.1742 57.0618 51.1349 57.0618C52.2906 57.0618 53.0748 53.8819 53.2805 52.9466C53.3144 52.7928 53.4643 52.6883 53.6187 52.7197C56.5068 53.3069 57.911 62.6849 51.5609 62.6849C46.9381 62.6849 47.9854 56.6498 49.332 55.5186ZM57.2237 45.3626C57.3255 44.5665 55.8722 46.7439 55.8722 46.7439C55.8722 46.7439 56.9802 47.2672 57.2237 45.3626ZM42.5806 57.2352C42.6112 56.8963 42.1752 55.9889 42.098 56.3482C41.9133 57.2077 42.5499 57.5741 42.5806 57.2352Z" fill="#FFB636"/>
    <path d="M35.3196 67.0534C34.9068 66.4444 34.0785 66.2853 33.4695 66.698C32.8604 67.1108 32.7013 67.9391 33.114 68.5481L35.3196 67.0534ZM61.8297 106.172L35.3196 67.0534L33.114 68.5481L59.6242 107.667L61.8297 106.172Z" fill="#222222"/>
    <path d="M68.624 121.292C69.0162 121.915 69.8388 122.102 70.4612 121.709C71.0837 121.317 71.2704 120.495 70.8782 119.872L68.624 121.292ZM63.2928 112.831L68.624 121.292L70.8782 119.872L65.547 111.411L63.2928 112.831Z" fill="#222222"/>
    <path d="M116.488 33.7629C86.1951 25.1751 57.2564 25.7947 38.3278 32.7713C36.6095 34.4866 31.7672 40.3332 31.1172 42.6774C51.9434 34.4518 92.6766 34.8453 121.21 43.5036C121.053 40.8491 118.05 35.3897 116.488 33.7629Z" fill="#F9B900" stroke="#222222" stroke-width="2.16874"/>
    <path d="M131.66 70.9332L123.542 52.9141L123.344 61.8256L123.938 74.3012L131.66 70.9332Z" fill="#F9B900" stroke="#222222" stroke-width="2.16874"/>
    <path d="M2.79251 87.087L33.3652 68.6493C33.8228 68.3734 34.4164 68.5059 34.7132 68.9502L50.2423 92.1981C50.5699 92.6885 50.4041 93.3544 49.8849 93.634L49.5859 93.795L19.457 112.889C18.9938 113.183 18.3806 113.049 18.0824 112.588L2.46965 88.487C2.16254 88.0129 2.30879 87.3787 2.79251 87.087Z" fill="#FB6C05" stroke="#222222" stroke-width="3.2037"/>
    <path d="M18.7759 88.5829C17.8331 89.1605 17.3079 89.9353 17.1579 90.7615C17.0951 91.1436 17.2768 91.5166 17.671 91.6501C18.0538 91.7905 18.4565 91.6063 18.5874 91.1824C18.7579 90.5936 18.9987 90.1962 19.5439 89.8621C20.4413 89.3124 21.0616 89.4323 21.4165 90.0116L21.4374 90.0457C21.9175 90.8295 21.6884 91.501 20.6774 92.1204L20.2004 92.4127C19.8369 92.6353 19.8518 93.0168 20.0606 93.3575C20.2693 93.6983 20.6023 93.8849 20.9658 93.6622L21.5679 93.2934C22.7265 92.5835 23.4377 92.6478 23.9109 93.4202L23.9665 93.5111C24.3563 94.1472 24.2535 94.8976 23.0494 95.6352C22.4928 95.9762 22.0073 96.1018 21.2647 96.0881C20.7986 96.0924 20.5179 96.3737 20.5222 96.8397C20.524 97.2761 20.8016 97.6528 21.2929 97.6643C22.2093 97.6809 23.059 97.4103 23.945 96.8675C25.8988 95.6706 26.2461 93.9424 25.4737 92.6816L25.4041 92.568C24.6873 91.398 23.524 91.3607 22.5911 91.776C23.283 90.9928 23.2887 89.8801 22.7807 89.0509L22.7459 88.9941C22.0779 87.9036 20.6388 87.4417 18.7759 88.5829ZM27.507 85.1087C27.7001 84.9904 27.81 85.0168 27.9283 85.2099L28.332 85.8688C29.1601 87.2205 29.1757 87.6796 27.2185 91.472C27.0143 91.8783 27.3128 92.2891 27.6616 92.4504C28.0104 92.6116 28.501 92.5454 28.7007 92.1575C30.8596 87.9291 30.9785 86.9502 29.8024 85.0304L29.03 83.7696C28.5916 83.0539 28.2138 82.9729 27.4868 83.4182L24.0677 85.5129C23.7156 85.7286 23.7305 86.11 23.9393 86.4508C24.1411 86.7802 24.4741 86.9668 24.8262 86.7511L27.507 85.1087ZM31.6151 80.6705C31.3576 80.2502 30.8872 80.2728 30.5009 80.5094C30.1261 80.7391 29.8923 81.1479 30.1497 81.5682L35.4803 90.2694C35.7378 90.6897 36.2082 90.6671 36.5831 90.4374C36.9693 90.2008 37.2031 89.792 36.9457 89.3717L31.6151 80.6705Z" fill="white"/>
    <path d="M66.5591 103.059L69.0777 109.277L64.8109 112.107L61.2125 111.644L59.2598 109.947L59.6716 107.017L61.3165 104.704L66.5591 103.059Z" fill="white"/>
    <path d="M70.0004 110C67.538 111.79 62.1094 114.264 60.0946 109.832C58.0799 105.399 64.7397 103.396 68.3215 102.948" stroke="#222222" stroke-width="2.84927" stroke-linecap="round"/>
</svg>
