<svg width="105" height="130" viewBox="0 23 110 135" fill="none" xmlns="http://www.w3.org/2000/svg">
<g filter="url(#filter0_dd_1252_40377)">
<rect x="26.25" y="23.2656" width="81.7984" height="81.7984" rx="40.8992" fill="#FEE500"/>
</g>
<path d="M22.5589 94.1894C22.7907 96.2332 22.4369 98.7485 21.5872 100.769C20.7036 102.869 19.5199 103.94 18.3941 104.068C17.122 104.212 15.2284 103.355 13.4339 101.577C11.6846 99.8444 10.4377 97.6268 10.2272 95.7707C9.7952 91.9612 12.1803 89.3098 15.2453 88.9622C18.5944 88.5824 22.1567 90.6424 22.5589 94.1894Z" fill="white" stroke="#222222" stroke-width="3"/>
<path d="M53.4391 94.1894C53.2073 96.2332 53.5611 98.7485 54.4109 100.769C55.2944 102.869 56.4782 103.94 57.6039 104.068C58.8761 104.212 60.7697 103.355 62.5642 101.577C64.3134 99.8444 65.5603 97.6268 65.7708 95.7707C66.2029 91.9612 63.8177 89.3098 60.7527 88.9622C57.4037 88.5824 53.8414 90.6424 53.4391 94.1894Z" fill="white" stroke="#222222" stroke-width="3"/>
<path d="M14.1406 94.4727C17.1923 95.8597 18.8273 99.311 18.1936 102.944" stroke="#222222" stroke-width="2.34947" stroke-linecap="round"/>
<path d="M62.166 95.1484C59.559 96.0374 57.1053 100.618 57.1171 102.396" stroke="#222222" stroke-width="2.34947" stroke-linecap="round"/>
<mask id="path-6-inside-1_1252_40377" fill="white">
<path d="M69.7893 124.265C69.7893 140.656 59.6954 153.944 36.4201 153.944C13.1447 153.944 3.05078 140.656 3.05078 124.265C3.05078 104.651 20.7622 98.3281 36.4201 98.3281C51.0512 98.3281 69.7893 103.361 69.7893 124.265Z"/>
</mask>
<path d="M69.7893 124.265C69.7893 140.656 59.6954 153.944 36.4201 153.944C13.1447 153.944 3.05078 140.656 3.05078 124.265C3.05078 104.651 20.7622 98.3281 36.4201 98.3281C51.0512 98.3281 69.7893 103.361 69.7893 124.265Z" fill="white"/>
<path d="M36.4201 98.3281V101.328V98.3281ZM66.7893 124.265C66.7893 131.851 64.4634 138.432 59.7239 143.117C54.9911 147.796 47.4871 150.944 36.4201 150.944V156.944C48.6284 156.944 57.809 153.447 63.942 147.384C70.0683 141.328 72.7893 133.07 72.7893 124.265H66.7893ZM36.4201 150.944C25.353 150.944 17.849 147.796 13.1162 143.117C8.37672 138.432 6.05078 131.851 6.05078 124.265H0.0507812C0.0507812 133.07 2.77179 141.328 8.89806 147.384C15.0311 153.447 24.2117 156.944 36.4201 156.944V150.944ZM6.05078 124.265C6.05078 115.547 9.89929 109.993 15.4656 106.478C21.2021 102.855 28.9179 101.328 36.4201 101.328V95.3281C28.2644 95.3281 19.2954 96.9627 12.2618 101.405C5.05796 105.954 0.0507812 113.369 0.0507812 124.265H6.05078ZM36.4201 101.328C43.481 101.328 51.2043 102.557 57.0586 106.036C62.7013 109.39 66.7893 114.916 66.7893 124.265H72.7893C72.7893 112.71 67.5083 105.267 60.1241 100.878C52.9515 96.6156 43.9902 95.3281 36.4201 95.3281V101.328Z" fill="#222222" mask="url(#path-6-inside-1_1252_40377)"/>
<path d="M37.0246 100.293C36.3783 102.64 35.5269 105.061 35.1944 107.486C35.1137 108.074 35.1141 108.674 34.9707 109.248" stroke="#222222" stroke-width="3.5242" stroke-linecap="round"/>
<path d="M44.64 100.621C44.09 102.375 43.3048 104.039 42.7869 105.806C42.6878 106.144 42.6982 106.656 42.5039 106.947" stroke="#222222" stroke-width="2.93684" stroke-linecap="round"/>
<path d="M29.2082 100.867C28.9809 102.486 28.8935 104.149 28.5965 105.755C28.5116 106.215 28.4688 106.646 28.4688 107.111" stroke="#222222" stroke-width="2.93684" stroke-linecap="round"/>
<ellipse cx="24.7591" cy="123.874" rx="2.66733" ry="2.42485" fill="#222222"/>
<ellipse cx="46.5833" cy="123.874" rx="2.66733" ry="2.42485" fill="#222222"/>
<path d="M28.3965 132.486C29.0725 133.275 29.995 134.122 31.0843 134.237C31.3745 134.267 31.6738 134.299 31.9656 134.299C32.5959 134.299 33.1638 134.108 33.7045 133.789C34.9102 133.076 35.7038 131.887 35.7038 130.477" stroke="#222222" stroke-width="2.367" stroke-linecap="round"/>
<path d="M43.2578 132.674C42.5818 133.463 41.6593 134.309 40.57 134.424C40.2797 134.455 39.9805 134.487 39.6887 134.487C39.0584 134.487 38.4905 134.296 37.9498 133.976C36.7441 133.264 35.7079 132.074 35.7079 130.664" stroke="#222222" stroke-width="2.367" stroke-linecap="round"/>
<path d="M38.8606 128.445C38.8606 130.239 37.8907 131.152 35.9508 131.152C33.7685 131.152 33.041 130.239 33.041 128.445C33.041 126.651 34.6172 125.332 35.9508 125.332C37.2845 125.332 38.8606 126.651 38.8606 128.445Z" fill="#222222"/>
<path d="M66.1301 44.2344C53.4676 44.2344 43.2559 52.4037 43.2559 62.3213C43.2559 68.7588 47.5039 74.3956 53.8761 77.6143L51.7193 85.6694C51.6787 85.7902 51.6724 85.9197 51.7013 86.0438C51.7301 86.1679 51.793 86.2815 51.8827 86.3719C52.0136 86.4873 52.182 86.5512 52.3565 86.5516C52.5012 86.54 52.6385 86.4828 52.7487 86.3882L62.0291 80.1306C63.399 80.3197 64.7799 80.4178 66.1628 80.4246C78.809 80.4246 89.0371 72.2553 89.0371 62.3213C89.0371 52.3873 78.7763 44.2344 66.1301 44.2344Z" fill="#392020"/>
<path d="M51.2616 59.4617H48.7617C48.4519 59.4707 48.1459 59.3914 47.8795 59.233C47.7612 59.1589 47.6595 59.061 47.5807 58.9458C47.502 58.8305 47.448 58.7002 47.422 58.563C47.414 58.4761 47.414 58.3887 47.422 58.3017C47.4142 58.139 47.4458 57.9768 47.5141 57.8289C47.5823 57.681 47.6852 57.5518 47.8141 57.4521C48.0989 57.2458 48.4427 57.1368 48.7944 57.1416H56.3266C56.6389 57.1306 56.947 57.2162 57.2089 57.3867C57.33 57.4575 57.4338 57.5545 57.5129 57.6703C57.592 57.7861 57.6444 57.9181 57.6664 58.0566C57.6743 58.1381 57.6743 58.2203 57.6664 58.3017C57.6741 58.4668 57.6426 58.6313 57.5744 58.7818C57.5062 58.9323 57.4034 59.0645 57.2742 59.1676C56.9963 59.3736 56.6558 59.4776 56.3102 59.4617H53.8921V68.0559C53.9019 68.239 53.8736 68.4221 53.8089 68.5937C53.7442 68.7652 53.6446 68.9215 53.5163 69.0526C53.3933 69.1779 53.2455 69.2761 53.0823 69.3408C52.9191 69.4055 52.7441 69.4353 52.5687 69.4283C52.2618 69.4371 51.9615 69.339 51.7191 69.1507C51.4883 68.9668 51.3316 68.7056 51.2779 68.4153C51.2618 68.2961 51.2618 68.1752 51.2779 68.0559L51.2616 59.4617Z" fill="#FEE500"/>
<path d="M58.3853 57.7769C58.4572 57.5081 58.6259 57.2752 58.8591 57.1233C59.1076 56.9825 59.3907 56.9146 59.6761 56.9273H60.2969C60.5997 56.9164 60.8995 56.99 61.1629 57.1397C61.442 57.3274 61.6403 57.6132 61.7184 57.9403L64.9862 67.1717C65.0709 67.4126 65.1418 67.6582 65.1986 67.9071C65.2041 68.0105 65.2041 68.114 65.1986 68.2174C65.2041 68.3767 65.1748 68.5352 65.1127 68.6819C65.0506 68.8287 64.9572 68.9602 64.8391 69.0671C64.7246 69.1844 64.5872 69.2769 64.4354 69.3387C64.2836 69.4006 64.1207 69.4304 63.9568 69.4265C63.7048 69.4515 63.4517 69.3911 63.2383 69.2548C63.0249 69.1184 62.8636 68.9142 62.7804 68.675L62.0942 66.6653H57.7971L57.1109 68.675C57.0297 68.9189 56.8665 69.1271 56.649 69.2641C56.4315 69.4012 56.1732 69.4585 55.9181 69.4265C55.6418 69.4337 55.3712 69.3473 55.1502 69.1814C54.9349 69.0101 54.7896 68.7662 54.7417 68.4953C54.7331 68.4029 54.7331 68.3098 54.7417 68.2174C54.7137 68.0552 54.7137 67.8896 54.7417 67.7274C54.7417 67.5477 54.8561 67.3514 54.9215 67.1717L58.3853 57.7769ZM60.0192 59.9174L58.467 64.819H61.555L60.0192 59.9174Z" fill="#FEE500"/>
<path d="M65.5737 58.3036C65.5571 57.937 65.6863 57.5787 65.9331 57.307C66.0586 57.1804 66.2092 57.0815 66.3753 57.0168C66.5413 56.9521 66.7191 56.9228 66.8971 56.931C67.2032 56.9275 67.5019 57.0252 67.7467 57.2089C67.9737 57.4005 68.1244 57.6671 68.1715 57.9604C68.1876 58.0742 68.1876 58.1898 68.1715 58.3036V66.8979H72.6647C72.9761 66.8938 73.2823 66.9787 73.547 67.1428C73.666 67.2161 73.7682 67.3138 73.847 67.4292C73.9258 67.5446 73.9795 67.6752 74.0045 67.8127C74.0045 67.8127 74.0045 67.9761 74.0045 68.0578C74.0122 68.2206 73.9807 68.3826 73.9124 68.5305C73.8441 68.6784 73.7412 68.8078 73.6124 68.9075C73.3275 69.1138 72.9837 69.2226 72.632 69.2178H67.1095C66.7578 69.2405 66.4082 69.1489 66.1129 68.9566C65.8487 68.759 65.6727 68.4657 65.6227 68.1396C65.6107 67.9601 65.6107 67.7798 65.6227 67.6003L65.5737 58.3036Z" fill="#FEE500"/>
<path d="M74.2996 58.3025C74.2898 57.9369 74.4182 57.581 74.659 57.3058C74.9039 57.0833 75.218 56.9519 75.5484 56.9341C75.8788 56.9162 76.2052 57.0129 76.4726 57.2077C76.7045 57.3977 76.861 57.6642 76.9138 57.9592C76.9219 58.0735 76.9219 58.1883 76.9138 58.3025V62.3054L81.0475 57.5344C81.2068 57.3717 81.3759 57.219 81.554 57.0771C81.7218 56.9771 81.9142 56.9261 82.1095 56.9299C82.3951 56.9283 82.6744 57.0139 82.9101 57.175C83.0212 57.2498 83.1161 57.3463 83.1891 57.4586C83.2621 57.5709 83.3117 57.6967 83.3349 57.8286C83.3415 57.8609 83.3415 57.8944 83.3349 57.9267C83.327 57.9644 83.327 58.0033 83.3349 58.041C83.3344 58.2129 83.2893 58.3819 83.2042 58.5313C83.1175 58.6894 83.0134 58.8372 82.8938 58.9722L80.1815 61.946L83.4493 67.011V67.1743C83.619 67.4085 83.7512 67.6677 83.8414 67.9424V68.024C83.8603 68.2133 83.833 68.4044 83.7619 68.5808C83.6907 68.7573 83.5779 68.9137 83.433 69.037C83.1604 69.243 82.8269 69.3523 82.4853 69.3475C82.2583 69.3569 82.0329 69.306 81.8318 69.2003C81.6141 69.0544 81.4348 68.8583 81.3089 68.6285L78.2699 63.7269L76.8158 65.2465V67.9749C76.8255 68.3405 76.6972 68.6963 76.4563 68.9715C76.3272 69.0977 76.1736 69.1963 76.005 69.2609C75.8364 69.3256 75.6564 69.3551 75.476 69.3475C75.1745 69.3538 74.8801 69.2556 74.6427 69.0697C74.4119 68.8857 74.2553 68.6247 74.2016 68.3345C74.1854 68.2152 74.1854 68.0942 74.2016 67.9749L74.2996 58.3025Z" fill="#FEE500"/>
<defs>
<filter id="filter0_dd_1252_40377" x="0.347427" y="0.471361" width="133.604" height="133.602" filterUnits="userSpaceOnUse" color-interpolation-filters="sRGB">
<feFlood flood-opacity="0" result="BackgroundImageFix"/>
<feColorMatrix in="SourceAlpha" type="matrix" values="0 0 0 0 0 0 0 0 0 0 0 0 0 0 0 0 0 0 127 0" result="hardAlpha"/>
<feOffset dy="3.10831"/>
<feGaussianBlur stdDeviation="11.9152"/>
<feColorMatrix type="matrix" values="0 0 0 0 0.0862745 0 0 0 0 0.133333 0 0 0 0 0.2 0 0 0 0.03 0"/>
<feBlend mode="normal" in2="BackgroundImageFix" result="effect1_dropShadow_1252_40377"/>
<feColorMatrix in="SourceAlpha" type="matrix" values="0 0 0 0 0 0 0 0 0 0 0 0 0 0 0 0 0 0 127 0" result="hardAlpha"/>
<feOffset dy="3.10831"/>
<feGaussianBlur stdDeviation="12.9513"/>
<feComposite in2="hardAlpha" operator="out"/>
<feColorMatrix type="matrix" values="0 0 0 0 0 0 0 0 0 0 0 0 0 0 0 0 0 0 0.04 0"/>
<feBlend mode="normal" in2="effect1_dropShadow_1252_40377" result="effect2_dropShadow_1252_40377"/>
<feBlend mode="normal" in="SourceGraphic" in2="effect2_dropShadow_1252_40377" result="shape"/>
</filter>
</defs>
</svg>
