<svg width="29" height="29" viewBox="0 0 29 29" fill="none" xmlns="http://www.w3.org/2000/svg">
<path fill-rule="evenodd" clip-rule="evenodd" d="M16.8984 3.07057C17.0039 3.27512 17.0301 3.53708 17.0825 4.061V4.06101C17.1816 5.05254 17.2312 5.54831 17.4386 5.82035C17.702 6.16573 18.1304 6.3432 18.5609 6.2852C18.8999 6.23951 19.2855 5.92403 20.0567 5.29307C20.4641 4.95973 20.6678 4.79306 20.887 4.723C21.1656 4.63394 21.4671 4.64898 21.7354 4.76532C21.9466 4.85684 22.1327 5.04295 22.5049 5.41518L23.5847 6.49496C23.9571 6.86734 24.1432 7.05352 24.2348 7.26474C24.351 7.53303 24.3661 7.83437 24.2771 8.1129C24.207 8.33217 24.0403 8.53596 23.7068 8.94354L23.7068 8.94355C23.0756 9.71502 22.76 10.1008 22.7144 10.4399C22.6565 10.8702 22.8339 11.2985 23.179 11.5618C23.4511 11.7693 23.9472 11.8189 24.9392 11.9181C25.4635 11.9706 25.7257 11.9968 25.9303 12.1024C26.1901 12.2364 26.3924 12.46 26.4999 12.7318C26.5846 12.9459 26.5846 13.2093 26.5846 13.7362V15.2632C26.5846 15.7894 26.5846 16.0525 26.5001 16.2664C26.3926 16.5386 26.19 16.7625 25.9298 16.8966C25.7254 17.0019 25.4636 17.0281 24.9401 17.0805C23.949 17.1796 23.4535 17.2291 23.1816 17.4364C22.836 17.6998 22.6584 18.1285 22.7165 18.5591C22.7623 18.898 23.0777 19.2835 23.7086 20.0546L23.7086 20.0546C24.0421 20.4622 24.2088 20.6659 24.2789 20.8852C24.3679 21.1637 24.3529 21.4652 24.2365 21.7335C24.145 21.9447 23.9589 22.1308 23.5866 22.5031L23.5866 22.5031L22.5072 23.5825L22.5072 23.5825C22.1345 23.9552 21.9482 24.1415 21.7367 24.2331C21.4687 24.3491 21.1676 24.3641 20.8893 24.2753C20.6698 24.2053 20.4659 24.0384 20.0579 23.7047C19.2858 23.0729 18.8997 22.757 18.5602 22.7115C18.1303 22.6539 17.7025 22.8311 17.4393 23.1758C17.2314 23.4481 17.1818 23.9444 17.0825 24.9371C17.0301 25.4616 17.0039 25.7238 16.8982 25.9286C16.7642 26.1882 16.5407 26.3904 16.2691 26.4979C16.0548 26.5827 15.7913 26.5827 15.2642 26.5827H13.7381C13.2113 26.5827 12.9479 26.5827 12.7338 26.498C12.462 26.3905 12.2383 26.1881 12.1043 25.9284C11.9987 25.7237 11.9725 25.4616 11.9201 24.9375L11.9201 24.9374C11.8209 23.9453 11.7713 23.4492 11.5636 23.177C11.3003 22.832 10.8722 22.6547 10.4421 22.7125C10.1028 22.7581 9.71691 23.0738 8.94511 23.7053C8.5373 24.0389 8.33339 24.2058 8.11399 24.2758C7.8356 24.3647 7.53442 24.3497 7.26626 24.2335C7.05491 24.142 6.86863 23.9557 6.49608 23.5832L5.41668 22.5038C5.04427 22.1314 4.85807 21.9452 4.76654 21.7339C4.65031 21.4657 4.63528 21.1644 4.72424 20.8859C4.7943 20.6666 4.96108 20.4627 5.29465 20.055C5.9258 19.2836 6.24138 18.8979 6.28705 18.5588C6.34502 18.1284 6.16757 17.7 5.82224 17.4367C5.55019 17.2292 5.05441 17.1797 4.06285 17.0805L4.06284 17.0805C3.539 17.0281 3.27708 17.0019 3.07255 16.8965C2.81258 16.7624 2.61006 16.5386 2.50256 16.2666C2.41797 16.0526 2.41797 15.7894 2.41797 15.2629V13.7365C2.41797 13.2093 2.41797 12.9458 2.50276 12.7315C2.61025 12.4599 2.81249 12.2365 3.07205 12.1025C3.2768 11.9968 3.53912 11.9706 4.06376 11.9181C5.05626 11.8189 5.55251 11.7692 5.82467 11.5615C6.16966 11.2983 6.34697 10.8702 6.28919 10.4401C6.24361 10.1008 5.92789 9.71489 5.29646 8.94314L5.29646 8.94314C4.96287 8.53542 4.79608 8.33156 4.72603 8.1122C4.63712 7.83377 4.65214 7.53254 4.76832 7.26434C4.85985 7.05303 5.0461 6.86678 5.4186 6.49428L6.49839 5.41449C6.87048 5.0424 7.05653 4.85635 7.26756 4.76484C7.53603 4.64841 7.83763 4.63337 8.11635 4.7225C8.33544 4.79256 8.53908 4.95918 8.94636 5.29241C9.71725 5.92314 10.1027 6.2385 10.4416 6.28424C10.8722 6.34236 11.3008 6.1648 11.5642 5.81923C11.7715 5.54726 11.8211 5.05172 11.9202 4.06063V4.06063C11.9725 3.53704 11.9987 3.27524 12.1041 3.07079C12.2381 2.81067 12.4621 2.60804 12.7342 2.50052C12.9481 2.41602 13.2112 2.41602 13.7375 2.41602H15.2648C15.7913 2.41602 16.0546 2.41602 16.2686 2.50061C16.5406 2.60812 16.7644 2.81063 16.8984 3.07057ZM14.5006 19.333C17.17 19.333 19.334 17.1691 19.334 14.4997C19.334 11.8303 17.17 9.66634 14.5006 9.66634C11.8313 9.66634 9.66732 11.8303 9.66732 14.4997C9.66732 17.1691 11.8313 19.333 14.5006 19.333Z" fill="white"/>
</svg>
