<svg width="13" height="14" viewBox="0 0 13 14" fill="none" xmlns="http://www.w3.org/2000/svg">
<path d="M8.66667 4.4C8.66667 4.16068 8.86068 3.96667 9.1 3.96667C9.33932 3.96667 9.53333 4.16068 9.53333 4.4C9.53333 4.63932 9.33932 4.83333 9.1 4.83333C8.86068 4.83333 8.66667 4.63932 8.66667 4.4Z" fill="#AFAFAF"/>
<path fill-rule="evenodd" clip-rule="evenodd" d="M6.19359 0.62692C6.27485 0.545655 6.38507 0.5 6.5 0.5H11.7C12.418 0.5 13 1.08203 13 1.8V7C13 7.11493 12.9543 7.22515 12.8731 7.30641L6.80641 13.3731C6.63719 13.5423 6.36281 13.5423 6.19359 13.3731L0.12692 7.30641C-0.0423068 7.13719 -0.0423068 6.86281 0.12692 6.69359L6.19359 0.62692ZM9.1 3.1C8.38203 3.1 7.8 3.68203 7.8 4.4C7.8 5.11797 8.38203 5.7 9.1 5.7C9.81797 5.7 10.4 5.11797 10.4 4.4C10.4 3.68203 9.81797 3.1 9.1 3.1Z" fill="#AFAFAF"/>
</svg>
